STARTFONT 2.3
FONT -FontForge-Source Code Pro-Book-R-Normal--10-100-72-72-M-60-ISO10646-1
SIZE 10 72 72  4
FONTBOUNDINGBOX 11 18 -3 -5
COMMENT "Generated by fontforge, http://fontforge.sourceforge.net"
COMMENT "Copyright 2010, 2012 Adobe Systems Incorporated (http://www.adobe.com/), with Reserved Font Name `Source'."
STARTPROPERTIES 42
FOUNDRY "FontForge"
FAMILY_NAME "Source Code Pro"
WEIGHT_NAME "Book"
SLANT "R"
SETWIDTH_NAME "Normal"
ADD_STYLE_NAME ""
PIXEL_SIZE 10
POINT_SIZE 100
RESOLUTION_X 72
RESOLUTION_Y 72
SPACING "M"
AVERAGE_WIDTH 60
CHARSET_REGISTRY "ISO10646"
CHARSET_ENCODING "1"
FONTNAME_REGISTRY ""
CHARSET_COLLECTIONS "ASCII ISOLatin1Encoding ISO8859-2 ISO8859-9 ISO8859-4 ISO10646-1"
BITS_PER_PIXEL 4
FONT_NAME "SourceCodePro-It"
FACE_NAME "Source Code Pro Italic"
COPYRIGHT "Copyright 2010, 2012 Adobe Systems Incorporated (http://www.adobe.com/), with Reserved Font Name `Source'."
FONT_VERSION "1.050;PS 1.000;hotconv 16.6.51;makeotf.lib2.5.65220"
FONT_ASCENT 8
FONT_DESCENT 2
UNDERLINE_POSITION -1
UNDERLINE_THICKNESS 1
X_HEIGHT 4
CAP_HEIGHT 6
RAW_ASCENT 750
RAW_DESCENT 250
ITALIC_ANGLE 5056
NORM_SPACE 6
RELATIVE_WEIGHT 40
RELATIVE_SETWIDTH 50
SUPERSCRIPT_X 0
SUPERSCRIPT_Y 3
SUPERSCRIPT_SIZE 6
SUBSCRIPT_X 0
SUBSCRIPT_Y 0
SUBSCRIPT_SIZE 6
FIGURE_WIDTH 6
AVG_LOWERCASE_WIDTH 60
AVG_UPPERCASE_WIDTH 60
ENDPROPERTIES
CHARS 1269
STARTCHAR space
ENCODING 32
SWIDTH 600 0
DWIDTH 6 0
BBX 1 1 0 0
BITMAP
00
ENDCHAR
STARTCHAR exclam
ENCODING 33
SWIDTH 600 0
DWIDTH 6 0
BBX 4 7 1 0
BITMAP
00B1
00B0
01A0
0370
0530
0000
1D10
ENDCHAR
STARTCHAR quotedbl
ENCODING 34
SWIDTH 600 0
DWIDTH 6 0
BBX 5 3 1 4
BITMAP
0E1A50
2B0C10
360A00
ENDCHAR
STARTCHAR numbersign
ENCODING 35
SWIDTH 600 0
DWIDTH 6 0
BBX 6 6 0 0
BITMAP
006171
0AFFF6
035440
4FFFD0
080800
172600
ENDCHAR
STARTCHAR dollar
ENCODING 36
SWIDTH 600 0
DWIDTH 6 0
BBX 6 8 0 -1
BITMAP
000800
03DF60
085171
03B400
001870
3713B0
09FE40
008000
ENDCHAR
STARTCHAR percent
ENCODING 37
SWIDTH 600 0
DWIDTH 6 0
BBX 7 6 -1 0
BITMAP
07E80080
0A2A1810
0CD41000
0011BE40
02756560
1803EB10
ENDCHAR
STARTCHAR ampersand
ENCODING 38
SWIDTH 600 0
DWIDTH 6 0
BBX 6 7 0 0
BITMAP
00AE30
048550
048800
09C016
839382
B22D90
6ED7B2
ENDCHAR
STARTCHAR quotesingle
ENCODING 39
SWIDTH 600 0
DWIDTH 6 0
BBX 3 3 2 4
BITMAP
0D30
0D00
1800
ENDCHAR
STARTCHAR parenleft
ENCODING 40
SWIDTH 600 0
DWIDTH 6 0
BBX 4 9 2 -2
BITMAP
0075
0850
4800
A100
A000
A000
A000
9200
1900
ENDCHAR
STARTCHAR parenright
ENCODING 41
SWIDTH 600 0
DWIDTH 6 0
BBX 4 9 0 -2
BITMAP
0091
0038
000A
000A
000A
0019
0083
0580
5700
ENDCHAR
STARTCHAR asterisk
ENCODING 42
SWIDTH 600 0
DWIDTH 6 0
BBX 5 5 1 1
BITMAP
006000
538410
4EE700
1BA000
817200
ENDCHAR
STARTCHAR plus
ENCODING 43
SWIDTH 600 0
DWIDTH 6 0
BBX 6 5 0 1
BITMAP
004400
005500
2FFFF2
005500
005500
ENDCHAR
STARTCHAR comma
ENCODING 44
SWIDTH 600 0
DWIDTH 6 0
BBX 3 5 1 -3
BITMAP
1D40
1E60
0930
5B00
B100
ENDCHAR
STARTCHAR hyphen
ENCODING 45
SWIDTH 600 0
DWIDTH 6 0
BBX 6 1 0 3
BITMAP
2FFFF2
ENDCHAR
STARTCHAR period
ENCODING 46
SWIDTH 600 0
DWIDTH 6 0
BBX 3 2 1 0
BITMAP
1D30
2D20
ENDCHAR
STARTCHAR slash
ENCODING 47
SWIDTH 600 0
DWIDTH 6 0
BBX 6 9 0 -2
BITMAP
000028
0000A1
000470
000A00
006500
01A000
073000
190000
920000
ENDCHAR
STARTCHAR zero
ENCODING 48
SWIDTH 600 0
DWIDTH 6 0
BBX 6 6 0 0
BITMAP
01BEA0
0B5195
380056
556783
4915B0
0AEC20
ENDCHAR
STARTCHAR one
ENCODING 49
SWIDTH 600 0
DWIDTH 6 0
BBX 5 6 0 0
BITMAP
009D20
000B00
001A00
004700
008400
8FFFC0
ENDCHAR
STARTCHAR two
ENCODING 50
SWIDTH 600 0
DWIDTH 6 0
BBX 5 6 0 0
BITMAP
01BE80
0731C0
000270
003700
075000
8FFFE0
ENDCHAR
STARTCHAR three
ENCODING 51
SWIDTH 600 0
DWIDTH 6 0
BBX 6 6 0 0
BITMAP
01BFB0
0432C1
00DE30
0014A0
6404B0
1AEC30
ENDCHAR
STARTCHAR four
ENCODING 52
SWIDTH 600 0
DWIDTH 6 0
BBX 6 6 0 0
BITMAP
0005E1
0086A0
292380
BFFFF5
000820
000A00
ENDCHAR
STARTCHAR five
ENCODING 53
SWIDTH 600 0
DWIDTH 6 0
BBX 6 6 0 0
BITMAP
04FFF5
084000
0BCE70
0001C0
6414B0
1BEB20
ENDCHAR
STARTCHAR six
ENCODING 54
SWIDTH 600 0
DWIDTH 6 0
BBX 6 6 0 0
BITMAP
019EC1
0A6133
2BCE80
5C31C0
4913B0
09EC30
ENDCHAR
STARTCHAR seven
ENCODING 55
SWIDTH 600 0
DWIDTH 6 0
BBX 5 6 1 0
BITMAP
CFFFB0
001920
00A200
075000
0C0000
480000
ENDCHAR
STARTCHAR eight
ENCODING 56
SWIDTH 600 0
DWIDTH 6 0
BBX 6 6 0 0
BITMAP
02CFB0
046184
08B5C2
4B2660
5802B0
0AFE70
ENDCHAR
STARTCHAR nine
ENCODING 57
SWIDTH 600 0
DWIDTH 6 0
BBX 6 6 0 0
BITMAP
03CE90
0B31A4
0C12A5
08EBB2
3317A0
1CE910
ENDCHAR
STARTCHAR colon
ENCODING 58
SWIDTH 600 0
DWIDTH 6 0
BBX 3 6 1 0
BITMAP
05C0
06B0
0000
0000
1D30
2D20
ENDCHAR
STARTCHAR semicolon
ENCODING 59
SWIDTH 600 0
DWIDTH 6 0
BBX 3 9 1 -3
BITMAP
05C0
06B0
0000
0000
1D40
1E60
0930
5B00
B100
ENDCHAR
STARTCHAR less
ENCODING 60
SWIDTH 600 0
DWIDTH 6 0
BBX 4 7 1 0
BITMAP
0019
02C5
4C30
C300
4C30
02C5
0019
ENDCHAR
STARTCHAR equal
ENCODING 61
SWIDTH 600 0
DWIDTH 6 0
BBX 6 3 0 2
BITMAP
2FFFF2
000000
2FFFF2
ENDCHAR
STARTCHAR greater
ENCODING 62
SWIDTH 600 0
DWIDTH 6 0
BBX 4 7 1 0
BITMAP
9100
5C20
03C4
003C
03C4
5C20
9100
ENDCHAR
STARTCHAR question
ENCODING 63
SWIDTH 600 0
DWIDTH 6 0
BBX 5 7 1 0
BITMAP
07EB00
161B20
001900
029100
091000
000000
3C0000
ENDCHAR
STARTCHAR at
ENCODING 64
SWIDTH 600 0
DWIDTH 6 0
BBX 6 9 0 -2
BITMAP
008ED4
098129
290008
722AD7
90A4C5
90AEA2
910000
591220
09EB10
ENDCHAR
STARTCHAR A
ENCODING 65
SWIDTH 600 0
DWIDTH 6 0
BBX 6 7 -1 0
BITMAP
0000D4
000776
001938
007419
01EFFB
07600C
1C000C
ENDCHAR
STARTCHAR B
ENCODING 66
SWIDTH 600 0
DWIDTH 6 0
BBX 6 7 0 0
BITMAP
05FFC2
084086
0B56A2
0DAB80
2900A2
5602C1
8FFD50
ENDCHAR
STARTCHAR C
ENCODING 67
SWIDTH 600 0
DWIDTH 6 0
BBX 6 7 0 0
BITMAP
005DE3
05B226
0C1000
2A0000
390000
1D3150
05DE50
ENDCHAR
STARTCHAR D
ENCODING 68
SWIDTH 600 0
DWIDTH 6 0
BBX 6 7 0 0
BITMAP
08FD80
0B12B5
0C0048
2A0057
570094
8317B0
AFE910
ENDCHAR
STARTCHAR E
ENCODING 69
SWIDTH 600 0
DWIDTH 6 0
BBX 6 7 0 0
BITMAP
03FFFD
057000
083000
0BFFC0
0C0000
290000
5FFFC0
ENDCHAR
STARTCHAR F
ENCODING 70
SWIDTH 600 0
DWIDTH 6 0
BBX 6 7 0 0
BITMAP
00FFFF
039000
066000
08FFE0
0B1000
0C0000
2A0000
ENDCHAR
STARTCHAR G
ENCODING 71
SWIDTH 600 0
DWIDTH 6 0
BBX 6 7 0 0
BITMAP
007ED2
08A135
1C0000
480AF5
570083
2C21B0
07EE70
ENDCHAR
STARTCHAR H
ENCODING 72
SWIDTH 600 0
DWIDTH 6 0
BBX 6 7 0 0
BITMAP
09300B
0B0039
0B0056
2FFFF3
5700A1
8400B0
B101A0
ENDCHAR
STARTCHAR I
ENCODING 73
SWIDTH 600 0
DWIDTH 6 0
BBX 6 7 0 0
BITMAP
06FFFA
000C00
002900
006600
009300
00B000
9FFF70
ENDCHAR
STARTCHAR J
ENCODING 74
SWIDTH 600 0
DWIDTH 6 0
BBX 6 7 0 0
BITMAP
03FFF5
000092
0000B0
0001B0
000480
631B30
3DE800
ENDCHAR
STARTCHAR K
ENCODING 75
SWIDTH 600 0
DWIDTH 6 0
BBX 6 7 0 0
BITMAP
05603A
0833A0
0B3A00
0DBB00
2C1A20
470480
7400C1
ENDCHAR
STARTCHAR L
ENCODING 76
SWIDTH 600 0
DWIDTH 6 0
BBX 5 7 1 0
BITMAP
0B0000
0B0000
390000
560000
830000
B00000
EFFF10
ENDCHAR
STARTCHAR M
ENCODING 77
SWIDTH 600 0
DWIDTH 6 0
BBX 6 7 0 0
BITMAP
0A705C
0A90A9
0A9596
389A74
65A5A1
9210B0
B001A0
ENDCHAR
STARTCHAR N
ENCODING 78
SWIDTH 600 0
DWIDTH 6 0
BBX 6 7 0 0
BITMAP
08700B
0AA038
0B9156
1A4683
471AA0
740AA0
A10690
ENDCHAR
STARTCHAR O
ENCODING 79
SWIDTH 600 0
DWIDTH 6 0
BBX 6 7 0 0
BITMAP
01BEB1
0B6187
490029
750038
840085
6915C0
0AEC20
ENDCHAR
STARTCHAR P
ENCODING 80
SWIDTH 600 0
DWIDTH 6 0
BBX 6 7 0 0
BITMAP
04FFD4
07504A
0A1178
0CFE91
0B0000
380000
660000
ENDCHAR
STARTCHAR Q
ENCODING 81
SWIDTH 600 0
DWIDTH 6 0
BBX 6 9 0 -2
BITMAP
01BEA1
0B6187
490029
750038
840085
6915D0
1BFC20
00B310
003DD0
ENDCHAR
STARTCHAR R
ENCODING 82
SWIDTH 600 0
DWIDTH 6 0
BBX 6 7 0 0
BITMAP
07FFC2
093077
0B01A4
0FFE70
391B00
660A30
830580
ENDCHAR
STARTCHAR S
ENCODING 83
SWIDTH 600 0
DWIDTH 6 0
BBX 6 7 0 0
BITMAP
01BE90
087172
069000
007C20
0003B0
5614B0
0AEC30
ENDCHAR
STARTCHAR T
ENCODING 84
SWIDTH 600 0
DWIDTH 6 0
BBX 6 7 1 0
BITMAP
EFFFF3
00C000
02A000
057000
084000
0B1000
0C0000
ENDCHAR
STARTCHAR U
ENCODING 85
SWIDTH 600 0
DWIDTH 6 0
BBX 6 7 0 0
BITMAP
09200B
0B0039
0B0066
390093
5600C1
4A16A0
0AEC20
ENDCHAR
STARTCHAR V
ENCODING 86
SWIDTH 600 0
DWIDTH 6 0
BBX 6 7 1 0
BITMAP
B100B1
A20480
830A10
743800
56A100
498000
3E1000
ENDCHAR
STARTCHAR W
ENCODING 87
SWIDTH 600 0
DWIDTH 6 0
BBX 7 7 0 0
BITMAP
1A000740
29000A00
384A1A00
47884600
57899200
6B29A000
6B098000
ENDCHAR
STARTCHAR X
ENCODING 88
SWIDTH 600 0
DWIDTH 6 0
BBX 6 7 0 0
BITMAP
08503A
02A1B1
00B930
009A00
048C00
1B1840
A302A0
ENDCHAR
STARTCHAR Y
ENCODING 89
SWIDTH 600 0
DWIDTH 6 0
BBX 6 7 1 0
BITMAP
B100B1
750850
393B00
0CB200
0A7000
0A1000
0C0000
ENDCHAR
STARTCHAR Z
ENCODING 90
SWIDTH 600 0
DWIDTH 6 0
BBX 6 7 0 0
BITMAP
0AFFFC
0000A3
000950
007700
059000
3A0000
BFFFE0
ENDCHAR
STARTCHAR bracketleft
ENCODING 91
SWIDTH 600 0
DWIDTH 6 0
BBX 5 9 1 -2
BITMAP
01FFA0
046000
072000
090000
090000
180000
440000
710000
AFF100
ENDCHAR
STARTCHAR backslash
ENCODING 92
SWIDTH 600 0
DWIDTH 6 0
BBX 2 9 2 -2
BITMAP
90
A0
90
82
55
27
09
09
09
ENDCHAR
STARTCHAR bracketright
ENCODING 93
SWIDTH 600 0
DWIDTH 6 0
BBX 5 9 0 -2
BITMAP
03FF70
000350
000620
000800
000900
001800
004500
008200
CFE000
ENDCHAR
STARTCHAR asciicircum
ENCODING 94
SWIDTH 600 0
DWIDTH 6 0
BBX 4 4 1 3
BITMAP
0880
0990
5555
A11A
ENDCHAR
STARTCHAR underscore
ENCODING 95
SWIDTH 600 0
DWIDTH 6 0
BBX 6 1 -1 -2
BITMAP
3FFFF9
ENDCHAR
STARTCHAR grave
ENCODING 96
SWIDTH 600 0
DWIDTH 6 0
BBX 3 2 2 6
BITMAP
3800
0820
ENDCHAR
STARTCHAR a
ENCODING 97
SWIDTH 600 0
DWIDTH 6 0
BBX 6 5 0 0
BITMAP
03DE97
1C41B4
6600A1
6816C0
1CE8A0
ENDCHAR
STARTCHAR b
ENCODING 98
SWIDTH 600 0
DWIDTH 6 0
BBX 6 7 0 0
BITMAP
057000
083000
0B9EB1
0D51A5
290084
5A14C1
89EC30
ENDCHAR
STARTCHAR c
ENCODING 99
SWIDTH 600 0
DWIDTH 6 0
BBX 6 5 0 0
BITMAP
02BEA0
1C4152
480000
3B1260
08ED30
ENDCHAR
STARTCHAR d
ENCODING 100
SWIDTH 600 0
DWIDTH 6 0
BBX 6 7 0 0
BITMAP
00000C
00001A
03DEA7
1C41B4
6600B1
6816D0
1CE8A0
ENDCHAR
STARTCHAR e
ENCODING 101
SWIDTH 600 0
DWIDTH 6 0
BBX 6 5 0 0
BITMAP
03CE90
1C31A2
4FFFF3
491250
0AEC30
ENDCHAR
STARTCHAR f
ENCODING 102
SWIDTH 600 0
DWIDTH 6 0
BBX 6 7 1 0
BITMAP
008EC1
03B120
BFFF60
083000
0B0000
0B0000
380000
ENDCHAR
STARTCHAR g
ENCODING 103
SWIDTH 600 0
DWIDTH 6 0
BBX 6 7 0 -2
BITMAP
04CE96
1C31B3
5600B1
6A38C0
1AC790
412950
5EE900
ENDCHAR
STARTCHAR h
ENCODING 104
SWIDTH 600 0
DWIDTH 6 0
BBX 6 7 0 0
BITMAP
057000
083000
0B6DD2
0E8194
2A0092
5700B0
8301A0
ENDCHAR
STARTCHAR i
ENCODING 105
SWIDTH 600 0
DWIDTH 6 0
BBX 4 7 1 0
BITMAP
01D0
0000
DF90
0550
0820
0B11
08E8
ENDCHAR
STARTCHAR j
ENCODING 106
SWIDTH 600 0
DWIDTH 6 0
BBX 6 9 -1 -2
BITMAP
00004A
000000
009FF5
000092
0000B0
0001B0
000480
021B40
1BE900
ENDCHAR
STARTCHAR k
ENCODING 107
SWIDTH 600 0
DWIDTH 6 0
BBX 6 7 0 0
BITMAP
039000
066000
093095
0B1A40
0DBB00
3C1740
6501B0
ENDCHAR
STARTCHAR l
ENCODING 108
SWIDTH 600 0
DWIDTH 6 0
BBX 4 7 1 0
BITMAP
8FC0
0180
0550
0810
0A00
0C11
0BE6
ENDCHAR
STARTCHAR m
ENCODING 109
SWIDTH 600 0
DWIDTH 6 0
BBX 6 5 0 0
BITMAP
2BD9D8
5B4C49
845656
B19283
C0B0B0
ENDCHAR
STARTCHAR n
ENCODING 110
SWIDTH 600 0
DWIDTH 6 0
BBX 6 5 0 0
BITMAP
0A6DD2
0E8194
2A0092
5700B0
8301A0
ENDCHAR
STARTCHAR o
ENCODING 111
SWIDTH 600 0
DWIDTH 6 0
BBX 6 5 0 0
BITMAP
04DE80
2C31B3
750093
7814C0
1BEB20
ENDCHAR
STARTCHAR p
ENCODING 112
SWIDTH 600 0
DWIDTH 6 0
BBX 6 7 0 -2
BITMAP
0B8EB1
0E61A5
290084
5A14C1
8AEC30
B00000
B00000
ENDCHAR
STARTCHAR q
ENCODING 113
SWIDTH 600 0
DWIDTH 6 0
BBX 6 7 0 -2
BITMAP
03DE96
1C41B4
6600A1
6816C0
1CE9A0
000570
000840
ENDCHAR
STARTCHAR r
ENCODING 114
SWIDTH 600 0
DWIDTH 6 0
BBX 5 5 1 0
BITMAP
289E60
5D5110
850000
B10000
C00000
ENDCHAR
STARTCHAR s
ENCODING 115
SWIDTH 600 0
DWIDTH 6 0
BBX 5 5 0 0
BITMAP
05DE60
0A3270
029A20
3613A0
08ED50
ENDCHAR
STARTCHAR t
ENCODING 116
SWIDTH 600 0
DWIDTH 6 0
BBX 6 7 0 0
BITMAP
006400
009200
3EFFF6
00B000
038000
068120
02DE60
ENDCHAR
STARTCHAR u
ENCODING 117
SWIDTH 600 0
DWIDTH 6 0
BBX 6 5 0 0
BITMAP
0B0066
1A0093
4700C0
6719C0
3ED590
ENDCHAR
STARTCHAR v
ENCODING 118
SWIDTH 600 0
DWIDTH 6 0
BBX 6 5 0 0
BITMAP
1B0048
0B00B1
092650
056A00
02E300
ENDCHAR
STARTCHAR w
ENCODING 119
SWIDTH 600 0
DWIDTH 6 0
BBX 7 5 0 0
BITMAP
83380A10
83892900
75898300
7A39A000
7B0B6000
ENDCHAR
STARTCHAR x
ENCODING 120
SWIDTH 600 0
DWIDTH 6 0
BBX 6 5 0 0
BITMAP
0840A2
01A930
00B700
085B00
770660
ENDCHAR
STARTCHAR y
ENCODING 121
SWIDTH 600 0
DWIDTH 6 0
BBX 7 7 -1 -2
BITMAP
00B00480
00B00B10
00837400
00579000
001E2000
00570000
4E900000
ENDCHAR
STARTCHAR z
ENCODING 122
SWIDTH 600 0
DWIDTH 6 0
BBX 6 5 0 0
BITMAP
0CFFF4
000670
008500
193000
9FFFA0
ENDCHAR
STARTCHAR braceleft
ENCODING 123
SWIDTH 600 0
DWIDTH 6 0
BBX 5 9 1 -2
BITMAP
006EC0
00C200
019000
066000
CC1000
1A0000
070000
090000
1DF200
ENDCHAR
STARTCHAR bar
ENCODING 124
SWIDTH 600 0
DWIDTH 6 0
BBX 2 10 2 -3
BITMAP
55
55
55
55
55
55
55
55
55
55
ENDCHAR
STARTCHAR braceright
ENCODING 125
SWIDTH 600 0
DWIDTH 6 0
BBX 5 9 0 -2
BITMAP
04FC00
000A00
000700
001900
001DB0
008500
00A000
03B000
DE5000
ENDCHAR
STARTCHAR asciitilde
ENCODING 126
SWIDTH 600 0
DWIDTH 6 0
BBX 6 2 0 2
BITMAP
0AD381
183DA0
ENDCHAR
STARTCHAR uni00A0
ENCODING 160
SWIDTH 600 0
DWIDTH 6 0
BBX 1 1 0 0
BITMAP
00
ENDCHAR
STARTCHAR exclamdown
ENCODING 161
SWIDTH 600 0
DWIDTH 6 0
BBX 3 7 1 -2
BITMAP
04A0
0000
0710
0900
0A00
2A00
4800
ENDCHAR
STARTCHAR cent
ENCODING 162
SWIDTH 600 0
DWIDTH 6 0
BBX 4 7 1 0
BITMAP
0061
1AEA
9783
B070
D553
6ED3
0700
ENDCHAR
STARTCHAR sterling
ENCODING 163
SWIDTH 600 0
DWIDTH 6 0
BBX 6 6 0 0
BITMAP
00AEC1
02A144
3FFF60
029000
082000
AFFF90
ENDCHAR
STARTCHAR currency
ENCODING 164
SWIDTH 600 0
DWIDTH 6 0
BBX 6 6 0 0
BITMAP
040004
09CEC4
0A41C0
0C13B0
3CEC90
400040
ENDCHAR
STARTCHAR yen
ENCODING 165
SWIDTH 600 0
DWIDTH 6 0
BBX 6 6 0 0
BITMAP
073026
006020
4FD9F3
008400
7FFFF0
00B000
ENDCHAR
STARTCHAR brokenbar
ENCODING 166
SWIDTH 600 0
DWIDTH 6 0
BBX 2 10 2 -3
BITMAP
55
55
55
55
22
22
55
55
55
55
ENDCHAR
STARTCHAR section
ENCODING 167
SWIDTH 600 0
DWIDTH 6 0
BBX 5 8 0 -1
BITMAP
00AE70
01C150
0BB300
0B0450
0550B0
002BB0
251C10
0AE900
ENDCHAR
STARTCHAR dieresis
ENCODING 168
SWIDTH 600 0
DWIDTH 6 0
BBX 3 1 2 6
BITMAP
92A0
ENDCHAR
STARTCHAR copyright
ENCODING 169
SWIDTH 600 0
DWIDTH 6 0
BBX 6 7 0 0
BITMAP
02BFC2
0B4148
63AE47
766327
73EA27
8414B1
1BEB20
ENDCHAR
STARTCHAR ordfeminine
ENCODING 170
SWIDTH 600 0
DWIDTH 6 0
BBX 4 3 1 4
BITMAP
08EA
2918
1E94
ENDCHAR
STARTCHAR guillemotleft
ENCODING 171
SWIDTH 600 0
DWIDTH 6 0
BBX 6 4 0 1
BITMAP
018081
1B1940
2A0B10
072360
ENDCHAR
STARTCHAR logicalnot
ENCODING 172
SWIDTH 600 0
DWIDTH 6 0
BBX 6 3 0 1
BITMAP
2FFFF2
000072
000072
ENDCHAR
STARTCHAR uni00AD
ENCODING 173
SWIDTH 600 0
DWIDTH 6 0
BBX 6 1 0 3
BITMAP
2FFFF2
ENDCHAR
STARTCHAR registered
ENCODING 174
SWIDTH 600 0
DWIDTH 6 0
BBX 5 4 1 3
BITMAP
07EC10
36A350
63A630
1DE700
ENDCHAR
STARTCHAR macron
ENCODING 175
SWIDTH 600 0
DWIDTH 6 0
BBX 3 1 2 6
BITMAP
AFE0
ENDCHAR
STARTCHAR degree
ENCODING 176
SWIDTH 600 0
DWIDTH 6 0
BBX 3 3 2 4
BITMAP
4E70
9280
8E40
ENDCHAR
STARTCHAR plusminus
ENCODING 177
SWIDTH 600 0
DWIDTH 6 0
BBX 6 6 0 0
BITMAP
005500
005500
2FFFF2
005500
000000
2FFFF2
ENDCHAR
STARTCHAR two.sups
ENCODING 178
SWIDTH 600 0
DWIDTH 6 0
BBX 4 4 1 4
BITMAP
03E9
0317
0340
2FF7
ENDCHAR
STARTCHAR three.sups
ENCODING 179
SWIDTH 600 0
DWIDTH 6 0
BBX 4 5 1 4
BITMAP
03E8
0129
01F3
1447
09E3
ENDCHAR
STARTCHAR acute
ENCODING 180
SWIDTH 600 0
DWIDTH 6 0
BBX 2 2 3 6
BITMAP
2A
92
ENDCHAR
STARTCHAR uni00B5
ENCODING 181
SWIDTH 600 0
DWIDTH 6 0
BBX 6 7 0 -2
BITMAP
0B0065
1A0092
3700B0
6719B0
9CE5E0
A00000
A00000
ENDCHAR
STARTCHAR paragraph
ENCODING 182
SWIDTH 600 0
DWIDTH 6 0
BBX 6 7 0 0
BITMAP
03BF75
0DFDA2
1FFAB0
0BF8B0
003580
000740
000A10
ENDCHAR
STARTCHAR periodcentered
ENCODING 183
SWIDTH 600 0
DWIDTH 6 0
BBX 2 2 2 3
BITMAP
98
B6
ENDCHAR
STARTCHAR cedilla
ENCODING 184
SWIDTH 600 0
DWIDTH 6 0
BBX 2 4 1 -4
BITMAP
07
5A
1B
D4
ENDCHAR
STARTCHAR one.sups
ENCODING 185
SWIDTH 600 0
DWIDTH 6 0
BBX 4 4 1 4
BITMAP
03C3
0080
0090
3FFC
ENDCHAR
STARTCHAR ordmasculine
ENCODING 186
SWIDTH 600 0
DWIDTH 6 0
BBX 4 3 1 4
BITMAP
08EB
1A1B
1CE6
ENDCHAR
STARTCHAR guillemotright
ENCODING 187
SWIDTH 600 0
DWIDTH 6 0
BBX 5 4 0 1
BITMAP
080720
0571B0
095590
542700
ENDCHAR
STARTCHAR onequarter
ENCODING 188
SWIDTH 600 0
DWIDTH 6 0
BBX 7 6 -1 0
BITMAP
04D00080
00801810
00801000
00102500
02717600
1806FF40
ENDCHAR
STARTCHAR onehalf
ENCODING 189
SWIDTH 600 0
DWIDTH 6 0
BBX 7 6 -1 0
BITMAP
04D00080
00801810
00801000
00108E20
02705300
1804FF20
ENDCHAR
STARTCHAR threequarters
ENCODING 190
SWIDTH 600 0
DWIDTH 6 0
BBX 7 6 -1 0
BITMAP
03E50080
06F21810
09E31000
00102500
02717600
1806FF40
ENDCHAR
STARTCHAR questiondown
ENCODING 191
SWIDTH 600 0
DWIDTH 6 0
BBX 4 7 0 -2
BITMAP
002C
0000
0046
0390
2900
6816
2DE4
ENDCHAR
STARTCHAR Agrave
ENCODING 192
SWIDTH 600 0
DWIDTH 6 0
BBX 6 9 -1 0
BITMAP
000290
000073
0000D4
000776
001938
007419
01EFFB
07600C
1C000C
ENDCHAR
STARTCHAR Aacute
ENCODING 193
SWIDTH 600 0
DWIDTH 6 0
BBX 7 9 -1 0
BITMAP
00000920
00007500
0000D400
00077600
00193800
00741900
01EFFB00
07600C00
1C000C00
ENDCHAR
STARTCHAR Acircumflex
ENCODING 194
SWIDTH 600 0
DWIDTH 6 0
BBX 7 8 -1 0
BITMAP
00037810
0000D400
00077600
00193800
00741900
01EFFB00
07600C00
1C000C00
ENDCHAR
STARTCHAR Atilde
ENCODING 195
SWIDTH 600 0
DWIDTH 6 0
BBX 7 10 -1 0
BITMAP
00001000
0007E390
00083E40
0000D400
00077600
00193800
00741900
01EFFB00
07600C00
1C000C00
ENDCHAR
STARTCHAR Adieresis
ENCODING 196
SWIDTH 600 0
DWIDTH 6 0
BBX 7 8 -1 0
BITMAP
00055730
0000D400
00077600
00193800
00741900
01EFFB00
07600C00
1C000C00
ENDCHAR
STARTCHAR Aring
ENCODING 197
SWIDTH 600 0
DWIDTH 6 0
BBX 6 10 -1 0
BITMAP
00009A
000099
0000C8
0000D4
000776
001938
007419
01EFFB
07600C
1C000C
ENDCHAR
STARTCHAR AE
ENCODING 198
SWIDTH 600 0
DWIDTH 6 0
BBX 8 7 -1 0
BITMAP
0000CFF6
00079500
00189200
0081CF80
03FFC000
0B228000
5705FF50
ENDCHAR
STARTCHAR Ccedilla
ENCODING 199
SWIDTH 600 0
DWIDTH 6 0
BBX 6 11 0 -4
BITMAP
005DE3
05B226
0C1000
2A0000
390000
1D3150
05DE50
006100
00B300
007500
06B000
ENDCHAR
STARTCHAR Egrave
ENCODING 200
SWIDTH 600 0
DWIDTH 6 0
BBX 6 9 0 0
BITMAP
000910
000370
03FFFD
057000
083000
0BFFC0
0C0000
290000
5FFFC0
ENDCHAR
STARTCHAR Eacute
ENCODING 201
SWIDTH 600 0
DWIDTH 6 0
BBX 6 9 0 0
BITMAP
000056
000390
03FFFD
057000
083000
0BFFC0
0C0000
290000
5FFFC0
ENDCHAR
STARTCHAR Ecircumflex
ENCODING 202
SWIDTH 600 0
DWIDTH 6 0
BBX 6 8 0 0
BITMAP
001774
03FFFD
057000
083000
0BFFC0
0C0000
290000
5FFFC0
ENDCHAR
STARTCHAR Edieresis
ENCODING 203
SWIDTH 600 0
DWIDTH 6 0
BBX 6 8 0 0
BITMAP
001927
03FFFD
057000
083000
0BFFC0
0C0000
290000
5FFFC0
ENDCHAR
STARTCHAR Igrave
ENCODING 204
SWIDTH 600 0
DWIDTH 6 0
BBX 6 9 0 0
BITMAP
002900
000730
06FFFA
000C00
002900
006600
009300
00B000
9FFF70
ENDCHAR
STARTCHAR Iacute
ENCODING 205
SWIDTH 600 0
DWIDTH 6 0
BBX 6 9 0 0
BITMAP
000092
000750
06FFFA
000C00
002900
006600
009300
00B000
9FFF70
ENDCHAR
STARTCHAR Icircumflex
ENCODING 206
SWIDTH 600 0
DWIDTH 6 0
BBX 6 8 0 0
BITMAP
003781
06FFFA
000C00
002900
006600
009300
00B000
9FFF70
ENDCHAR
STARTCHAR Idieresis
ENCODING 207
SWIDTH 600 0
DWIDTH 6 0
BBX 6 8 0 0
BITMAP
005573
06FFFA
000C00
002900
006600
009300
00B000
9FFF70
ENDCHAR
STARTCHAR Eth
ENCODING 208
SWIDTH 600 0
DWIDTH 6 0
BBX 6 7 0 0
BITMAP
06FE90
0931A7
0B002A
AFF439
1A0076
5616D1
8FEB20
ENDCHAR
STARTCHAR Ntilde
ENCODING 209
SWIDTH 600 0
DWIDTH 6 0
BBX 6 10 0 0
BITMAP
000100
007E39
0083E4
08700B
0AA038
0B9156
1A4683
471AA0
740AA0
A10690
ENDCHAR
STARTCHAR Ograve
ENCODING 210
SWIDTH 600 0
DWIDTH 6 0
BBX 6 9 0 0
BITMAP
002900
000730
01BEB1
0B6187
490029
750038
840085
6915C0
0AEC20
ENDCHAR
STARTCHAR Oacute
ENCODING 211
SWIDTH 600 0
DWIDTH 6 0
BBX 6 9 0 0
BITMAP
000092
000750
01BEB1
0B6187
490029
750038
840085
6915C0
0AEC20
ENDCHAR
STARTCHAR Ocircumflex
ENCODING 212
SWIDTH 600 0
DWIDTH 6 0
BBX 6 8 0 0
BITMAP
003781
01BEB1
0B6187
490029
750038
840085
6915C0
0AEC20
ENDCHAR
STARTCHAR Otilde
ENCODING 213
SWIDTH 600 0
DWIDTH 6 0
BBX 6 10 0 0
BITMAP
000100
007E39
0083E4
01BEB1
0B6187
490029
750038
840085
6915C0
0AEC20
ENDCHAR
STARTCHAR Odieresis
ENCODING 214
SWIDTH 600 0
DWIDTH 6 0
BBX 6 8 0 0
BITMAP
005573
01BEB1
0B6187
490029
750038
840085
6915C0
0AEC20
ENDCHAR
STARTCHAR multiply
ENCODING 215
SWIDTH 600 0
DWIDTH 6 0
BBX 4 4 1 1
BITMAP
9118
1AA1
1AA1
9119
ENDCHAR
STARTCHAR Oslash
ENCODING 216
SWIDTH 600 0
DWIDTH 6 0
BBX 7 9 0 -1
BITMAP
00000100
01BEBA10
0C61B800
4A087A00
75573800
97908500
6D15C000
AAEC2000
10000000
ENDCHAR
STARTCHAR Ugrave
ENCODING 217
SWIDTH 600 0
DWIDTH 6 0
BBX 6 9 0 0
BITMAP
002900
000730
09200B
0B0039
0B0066
390093
5600C1
4A16A0
0AEC20
ENDCHAR
STARTCHAR Uacute
ENCODING 218
SWIDTH 600 0
DWIDTH 6 0
BBX 6 9 0 0
BITMAP
000092
000750
09200B
0B0039
0B0066
390093
5600C1
4A16A0
0AEC20
ENDCHAR
STARTCHAR Ucircumflex
ENCODING 219
SWIDTH 600 0
DWIDTH 6 0
BBX 6 8 0 0
BITMAP
003781
09200B
0B0039
0B0066
390093
5600C1
4A16A0
0AEC20
ENDCHAR
STARTCHAR Udieresis
ENCODING 220
SWIDTH 600 0
DWIDTH 6 0
BBX 6 8 0 0
BITMAP
005573
09200B
0B0039
0B0066
390093
5600C1
4A16A0
0AEC20
ENDCHAR
STARTCHAR Yacute
ENCODING 221
SWIDTH 600 0
DWIDTH 6 0
BBX 6 9 1 0
BITMAP
001A10
008400
B100B1
750850
393B00
0CB200
0A7000
0A1000
0C0000
ENDCHAR
STARTCHAR Thorn
ENCODING 222
SWIDTH 600 0
DWIDTH 6 0
BBX 6 7 0 0
BITMAP
056000
08FFB1
0B1086
0C0057
1B02B3
4FFD60
760000
ENDCHAR
STARTCHAR germandbls
ENCODING 223
SWIDTH 600 0
DWIDTH 6 0
BBX 6 7 0 0
BITMAP
00AEB0
0791B1
0B1460
0C0C00
3A0490
663194
938EB1
ENDCHAR
STARTCHAR agrave
ENCODING 224
SWIDTH 600 0
DWIDTH 6 0
BBX 6 8 0 0
BITMAP
001A00
000640
000000
03DE97
1C41B4
6600A1
6816C0
1CE8A0
ENDCHAR
STARTCHAR aacute
ENCODING 225
SWIDTH 600 0
DWIDTH 6 0
BBX 6 8 0 0
BITMAP
0001A1
000830
000000
03DE97
1C41B4
6600A1
6816C0
1CE8A0
ENDCHAR
STARTCHAR acircumflex
ENCODING 226
SWIDTH 600 0
DWIDTH 6 0
BBX 6 8 0 0
BITMAP
001B90
007271
000000
03DE97
1C41B4
6600A1
6816C0
1CE8A0
ENDCHAR
STARTCHAR atilde
ENCODING 227
SWIDTH 600 0
DWIDTH 6 0
BBX 6 8 0 0
BITMAP
005927
0082E4
000000
03DE97
1C41B4
6600A1
6816C0
1CE8A0
ENDCHAR
STARTCHAR adieresis
ENCODING 228
SWIDTH 600 0
DWIDTH 6 0
BBX 6 7 0 0
BITMAP
007492
000000
03DE97
1C41B4
6600A1
6816C0
1CE8A0
ENDCHAR
STARTCHAR aring
ENCODING 229
SWIDTH 600 0
DWIDTH 6 0
BBX 6 8 0 0
BITMAP
000CA0
0037A0
001D70
03DE97
1C41B4
6600A1
6816C0
1CE8A0
ENDCHAR
STARTCHAR ae
ENCODING 230
SWIDTH 600 0
DWIDTH 6 0
BBX 7 5 -1 0
BITMAP
02CD6EA0
0226B5C0
05CEBA90
2B2A5210
1ED6DC20
ENDCHAR
STARTCHAR ccedilla
ENCODING 231
SWIDTH 600 0
DWIDTH 6 0
BBX 6 9 0 -4
BITMAP
02BEA0
1C4152
480000
3B1260
08ED30
007000
00D100
00A200
099000
ENDCHAR
STARTCHAR egrave
ENCODING 232
SWIDTH 600 0
DWIDTH 6 0
BBX 6 8 0 0
BITMAP
002900
000730
000000
03CE90
1C31A2
4FFFF3
491250
0AEC30
ENDCHAR
STARTCHAR eacute
ENCODING 233
SWIDTH 600 0
DWIDTH 6 0
BBX 6 8 0 0
BITMAP
0001A0
000920
000000
03CE90
1C31A2
4FFFF3
491250
0AEC30
ENDCHAR
STARTCHAR ecircumflex
ENCODING 234
SWIDTH 600 0
DWIDTH 6 0
BBX 6 8 0 0
BITMAP
001B80
008181
000000
03CE90
1C31A2
4FFFF3
491250
0AEC30
ENDCHAR
STARTCHAR edieresis
ENCODING 235
SWIDTH 600 0
DWIDTH 6 0
BBX 6 7 0 0
BITMAP
0083A1
000000
03CE90
1C31A2
4FFFF3
491250
0AEC30
ENDCHAR
STARTCHAR igrave
ENCODING 236
SWIDTH 600 0
DWIDTH 6 0
BBX 4 8 1 0
BITMAP
0560
0091
0000
DF90
0550
0820
0B11
08E8
ENDCHAR
STARTCHAR iacute
ENCODING 237
SWIDTH 600 0
DWIDTH 6 0
BBX 4 8 1 0
BITMAP
0038
0191
0000
DF90
0550
0820
0B11
08E8
ENDCHAR
STARTCHAR icircumflex
ENCODING 238
SWIDTH 600 0
DWIDTH 6 0
BBX 4 8 1 0
BITMAP
04D5
1818
0000
DF90
0550
0820
0B11
08E8
ENDCHAR
STARTCHAR idieresis
ENCODING 239
SWIDTH 600 0
DWIDTH 6 0
BBX 4 7 1 0
BITMAP
0B0A
0000
DF90
0550
0820
0B11
08E8
ENDCHAR
STARTCHAR eth
ENCODING 240
SWIDTH 600 0
DWIDTH 6 0
BBX 6 7 0 0
BITMAP
004857
0069B0
06EDB2
4B22C5
830074
7703C1
1BEC30
ENDCHAR
STARTCHAR ntilde
ENCODING 241
SWIDTH 600 0
DWIDTH 6 0
BBX 6 8 0 0
BITMAP
005927
0083E3
000000
0A6DD2
0E8194
2A0092
5700B0
8301A0
ENDCHAR
STARTCHAR ograve
ENCODING 242
SWIDTH 600 0
DWIDTH 6 0
BBX 6 8 0 0
BITMAP
003800
000820
000000
04DE80
2C31B3
750093
7814C0
1BEB20
ENDCHAR
STARTCHAR oacute
ENCODING 243
SWIDTH 600 0
DWIDTH 6 0
BBX 6 8 0 0
BITMAP
0002A0
000920
000000
04DE80
2C31B3
750093
7814C0
1BEB20
ENDCHAR
STARTCHAR ocircumflex
ENCODING 244
SWIDTH 600 0
DWIDTH 6 0
BBX 6 8 0 0
BITMAP
002C70
008180
000000
04DE80
2C31B3
750093
7814C0
1BEB20
ENDCHAR
STARTCHAR otilde
ENCODING 245
SWIDTH 600 0
DWIDTH 6 0
BBX 6 8 0 0
BITMAP
007935
0084D2
000000
04DE80
2C31B3
750093
7814C0
1BEB20
ENDCHAR
STARTCHAR odieresis
ENCODING 246
SWIDTH 600 0
DWIDTH 6 0
BBX 6 7 0 0
BITMAP
0092A0
000000
04DE80
2C31B3
750093
7814C0
1BEB20
ENDCHAR
STARTCHAR divide
ENCODING 247
SWIDTH 600 0
DWIDTH 6 0
BBX 6 5 0 1
BITMAP
006600
000000
2FFFF2
000000
006600
ENDCHAR
STARTCHAR oslash
ENCODING 248
SWIDTH 600 0
DWIDTH 6 0
BBX 6 7 0 -1
BITMAP
000001
04DEB6
2C37C3
758583
7C45C0
9BEB20
100000
ENDCHAR
STARTCHAR ugrave
ENCODING 249
SWIDTH 600 0
DWIDTH 6 0
BBX 6 8 0 0
BITMAP
003800
000820
000000
0B0066
1A0093
4700C0
6719C0
3ED590
ENDCHAR
STARTCHAR uacute
ENCODING 250
SWIDTH 600 0
DWIDTH 6 0
BBX 6 8 0 0
BITMAP
0002A0
000920
000000
0B0066
1A0093
4700C0
6719C0
3ED590
ENDCHAR
STARTCHAR ucircumflex
ENCODING 251
SWIDTH 600 0
DWIDTH 6 0
BBX 6 8 0 0
BITMAP
002C70
008180
000000
0B0066
1A0093
4700C0
6719C0
3ED590
ENDCHAR
STARTCHAR udieresis
ENCODING 252
SWIDTH 600 0
DWIDTH 6 0
BBX 6 7 0 0
BITMAP
0092A0
000000
0B0066
1A0093
4700C0
6719C0
3ED590
ENDCHAR
STARTCHAR yacute
ENCODING 253
SWIDTH 600 0
DWIDTH 6 0
BBX 7 10 -1 -2
BITMAP
00002900
0000A100
00000000
00B00480
00B00B10
00837400
00579000
001E2000
00570000
4E900000
ENDCHAR
STARTCHAR thorn
ENCODING 254
SWIDTH 600 0
DWIDTH 6 0
BBX 6 9 0 -2
BITMAP
057000
083000
0B9EB1
0D51A5
290084
5A14C1
8AEC30
B00000
B00000
ENDCHAR
STARTCHAR ydieresis
ENCODING 255
SWIDTH 600 0
DWIDTH 6 0
BBX 7 9 -1 -2
BITMAP
000A1B00
00000000
00B00480
00B00B10
00837400
00579000
001E2000
00570000
4E900000
ENDCHAR
STARTCHAR Amacron
ENCODING 256
SWIDTH 600 0
DWIDTH 6 0
BBX 7 8 -1 0
BITMAP
0006FF30
0000D400
00077600
00193800
00741900
01EFFB00
07600C00
1C000C00
ENDCHAR
STARTCHAR amacron
ENCODING 257
SWIDTH 600 0
DWIDTH 6 0
BBX 6 7 0 0
BITMAP
007FF1
000000
03DE97
1C41B4
6600A1
6816C0
1CE8A0
ENDCHAR
STARTCHAR Abreve
ENCODING 258
SWIDTH 600 0
DWIDTH 6 0
BBX 7 9 -1 0
BITMAP
00063550
0002EB00
0000D400
00077600
00193800
00741900
01EFFB00
07600C00
1C000C00
ENDCHAR
STARTCHAR abreve
ENCODING 259
SWIDTH 600 0
DWIDTH 6 0
BBX 6 7 0 0
BITMAP
008256
004EA0
03DE97
1C41B4
6600A1
6816C0
1CE8A0
ENDCHAR
STARTCHAR Aogonek
ENCODING 260
SWIDTH 600 0
DWIDTH 6 0
BBX 6 9 -1 -2
BITMAP
0000D4
000776
001A38
007419
01EFFB
07600C
1C000C
000044
00009D
ENDCHAR
STARTCHAR aogonek
ENCODING 261
SWIDTH 600 0
DWIDTH 6 0
BBX 6 7 0 -2
BITMAP
03DE97
1C41B4
6600A1
6816C0
1CE8A0
000520
002E60
ENDCHAR
STARTCHAR Cacute
ENCODING 262
SWIDTH 600 0
DWIDTH 6 0
BBX 6 9 0 0
BITMAP
000056
000390
005DE3
05B226
0C1000
2A0000
390000
1D3150
05DE50
ENDCHAR
STARTCHAR cacute
ENCODING 263
SWIDTH 600 0
DWIDTH 6 0
BBX 6 8 0 0
BITMAP
000092
000740
000000
02BEA0
1C4152
480000
3B1260
08ED30
ENDCHAR
STARTCHAR Ccircumflex
ENCODING 264
SWIDTH 600 0
DWIDTH 6 0
BBX 6 8 0 0
BITMAP
001774
005DE3
05B226
0C1000
2A0000
390000
1D3150
05DE50
ENDCHAR
STARTCHAR ccircumflex
ENCODING 265
SWIDTH 600 0
DWIDTH 6 0
BBX 6 8 0 0
BITMAP
000AA0
006363
000000
02BEA0
1C4152
480000
3B1260
08ED30
ENDCHAR
STARTCHAR Cdotaccent
ENCODING 266
SWIDTH 600 0
DWIDTH 6 0
BBX 6 8 0 0
BITMAP
000290
005DE3
05B226
0C1000
2A0000
390000
1D3150
05DE50
ENDCHAR
STARTCHAR cdotaccent
ENCODING 267
SWIDTH 600 0
DWIDTH 6 0
BBX 6 7 0 0
BITMAP
000860
000000
02BEA0
1C4152
480000
3B1260
08ED30
ENDCHAR
STARTCHAR Ccaron
ENCODING 268
SWIDTH 600 0
DWIDTH 6 0
BBX 6 8 0 0
BITMAP
000875
005DE3
05B226
0C1000
2A0000
390000
1D3150
05DE50
ENDCHAR
STARTCHAR ccaron
ENCODING 269
SWIDTH 600 0
DWIDTH 6 0
BBX 6 8 0 0
BITMAP
004445
000B90
000000
02BEA0
1C4152
480000
3B1260
08ED30
ENDCHAR
STARTCHAR Dcaron
ENCODING 270
SWIDTH 600 0
DWIDTH 6 0
BBX 6 8 0 0
BITMAP
003872
08FD80
0B12B5
0C0048
2A0057
570094
8317B0
AFE910
ENDCHAR
STARTCHAR dcaron
ENCODING 271
SWIDTH 600 0
DWIDTH 6 0
BBX 8 8 0 0
BITMAP
00000083
00003990
00006580
05EDC200
2C22D000
7401B000
86198000
3DDA5000
ENDCHAR
STARTCHAR Dcroat
ENCODING 272
SWIDTH 600 0
DWIDTH 6 0
BBX 6 7 0 0
BITMAP
06FE90
0931A7
0B002A
AFF439
1A0076
5616D1
8FEB20
ENDCHAR
STARTCHAR dcroat
ENCODING 273
SWIDTH 600 0
DWIDTH 6 0
BBX 7 7 0 0
BITMAP
00000C00
0008BF60
00004800
06DEB500
4B21C100
7715C000
3DE99000
ENDCHAR
STARTCHAR Emacron
ENCODING 274
SWIDTH 600 0
DWIDTH 6 0
BBX 6 8 0 0
BITMAP
001FF8
03FFFD
057000
083000
0BFFC0
0C0000
290000
5FFFC0
ENDCHAR
STARTCHAR emacron
ENCODING 275
SWIDTH 600 0
DWIDTH 6 0
BBX 6 7 0 0
BITMAP
008FF0
000000
03CE90
1C31A2
4FFFF3
491250
0AEC30
ENDCHAR
STARTCHAR Ebreve
ENCODING 276
SWIDTH 600 0
DWIDTH 6 0
BBX 6 9 0 0
BITMAP
001819
000BD3
03FFFD
057000
083000
0BFFC0
0C0000
290000
5FFFC0
ENDCHAR
STARTCHAR ebreve
ENCODING 277
SWIDTH 600 0
DWIDTH 6 0
BBX 6 7 0 0
BITMAP
009164
005EA0
03CE90
1C31A2
4FFFF3
491250
0AEC30
ENDCHAR
STARTCHAR Edotaccent
ENCODING 278
SWIDTH 600 0
DWIDTH 6 0
BBX 6 8 0 0
BITMAP
000290
03FFFD
057000
083000
0BFFC0
0C0000
290000
5FFFC0
ENDCHAR
STARTCHAR edotaccent
ENCODING 279
SWIDTH 600 0
DWIDTH 6 0
BBX 6 7 0 0
BITMAP
000A30
000000
03CE90
1C31A2
4FFFF3
491250
0AEC30
ENDCHAR
STARTCHAR Eogonek
ENCODING 280
SWIDTH 600 0
DWIDTH 6 0
BBX 6 9 0 -2
BITMAP
03FFFD
057000
083000
0BFFC0
0C0000
290000
5FFFC0
000610
002E60
ENDCHAR
STARTCHAR eogonek
ENCODING 281
SWIDTH 600 0
DWIDTH 6 0
BBX 6 7 0 -2
BITMAP
03CE90
1C31A2
4FFFF3
491250
0AEC20
003200
006E20
ENDCHAR
STARTCHAR Ecaron
ENCODING 282
SWIDTH 600 0
DWIDTH 6 0
BBX 6 8 0 0
BITMAP
000875
03FFFD
057000
083000
0BFFC0
0C0000
290000
5FFFC0
ENDCHAR
STARTCHAR ecaron
ENCODING 283
SWIDTH 600 0
DWIDTH 6 0
BBX 6 8 0 0
BITMAP
006263
001D70
000000
03CE90
1C31A2
4FFFF3
491250
0AEC30
ENDCHAR
STARTCHAR Gcircumflex
ENCODING 284
SWIDTH 600 0
DWIDTH 6 0
BBX 6 8 0 0
BITMAP
002773
007ED2
08A135
1C0000
480AF5
570083
2C21B0
07EE70
ENDCHAR
STARTCHAR gcircumflex
ENCODING 285
SWIDTH 600 0
DWIDTH 6 0
BBX 6 10 0 -2
BITMAP
001B90
007271
000000
04CE96
1C31B3
5600B1
6A38C0
1AC790
412950
5EE900
ENDCHAR
STARTCHAR Gbreve
ENCODING 286
SWIDTH 600 0
DWIDTH 6 0
BBX 6 9 0 0
BITMAP
003728
000CD2
007ED2
08A135
1C0000
480AF5
570083
2C21B0
07EE70
ENDCHAR
STARTCHAR gbreve
ENCODING 287
SWIDTH 600 0
DWIDTH 6 0
BBX 6 9 0 -2
BITMAP
008256
004EA0
04CE96
1C31B3
5600B1
6A38C0
1AC790
412950
5EE900
ENDCHAR
STARTCHAR Gdotaccent
ENCODING 288
SWIDTH 600 0
DWIDTH 6 0
BBX 6 8 0 0
BITMAP
000480
007ED2
08A135
1C0000
480AF5
570083
2C21B0
07EE70
ENDCHAR
STARTCHAR gdotaccent
ENCODING 289
SWIDTH 600 0
DWIDTH 6 0
BBX 6 9 0 -2
BITMAP
000940
000000
04CE96
1C31B3
5600B1
6A38C0
1AC790
412950
5EE900
ENDCHAR
STARTCHAR uni0122
ENCODING 290
SWIDTH 600 0
DWIDTH 6 0
BBX 6 10 0 -3
BITMAP
007ED2
08A135
1C0000
480AF5
570083
2C21B0
07EE70
009500
005700
04C100
ENDCHAR
STARTCHAR uni0123
ENCODING 291
SWIDTH 600 0
DWIDTH 6 0
BBX 6 9 0 -2
BITMAP
000390
000A10
04CF96
1C31B3
5600B1
6A38C0
1AC790
412950
5EE900
ENDCHAR
STARTCHAR Hcircumflex
ENCODING 292
SWIDTH 600 0
DWIDTH 6 0
BBX 6 8 0 0
BITMAP
003781
09300B
0B0039
0B0056
2FFFF3
5700A1
8400B0
B101A0
ENDCHAR
STARTCHAR hcircumflex
ENCODING 293
SWIDTH 600 0
DWIDTH 6 0
BBX 6 9 0 0
BITMAP
177500
000000
057000
083000
0B6DD2
0E8194
2A0092
5700B0
8301A0
ENDCHAR
STARTCHAR Hbar
ENCODING 294
SWIDTH 600 0
DWIDTH 6 0
BBX 7 7 0 0
BITMAP
09201B00
7FFFFF40
0B005700
2FFFF400
5700A100
8400B000
B101A000
ENDCHAR
STARTCHAR hbar
ENCODING 295
SWIDTH 600 0
DWIDTH 6 0
BBX 6 7 0 0
BITMAP
047000
3FFF70
092000
0C8EE2
1E6193
4800A0
8401B0
ENDCHAR
STARTCHAR Itilde
ENCODING 296
SWIDTH 600 0
DWIDTH 6 0
BBX 6 10 0 0
BITMAP
000100
007E39
0083E4
06FFFA
000C00
002900
006600
009300
00B000
9FFF70
ENDCHAR
STARTCHAR itilde
ENCODING 297
SWIDTH 600 0
DWIDTH 6 0
BBX 5 8 1 0
BITMAP
087530
257C00
000000
DF9000
055000
082000
0B1100
08E800
ENDCHAR
STARTCHAR Imacron
ENCODING 298
SWIDTH 600 0
DWIDTH 6 0
BBX 6 8 0 0
BITMAP
006FF3
06FFFA
000C00
002900
006600
009300
00B000
9FFF70
ENDCHAR
STARTCHAR imacron
ENCODING 299
SWIDTH 600 0
DWIDTH 6 0
BBX 4 7 1 0
BITMAP
0CFB
0000
DF90
0550
0820
0B11
08E8
ENDCHAR
STARTCHAR Ibreve
ENCODING 300
SWIDTH 600 0
DWIDTH 6 0
BBX 6 9 0 0
BITMAP
006355
002EB0
06FFFA
000C00
002900
006600
009300
00B000
9FFF70
ENDCHAR
STARTCHAR ibreve
ENCODING 301
SWIDTH 600 0
DWIDTH 6 0
BBX 5 7 1 0
BITMAP
0A1910
08E600
DF9000
055000
082000
0B1100
08E800
ENDCHAR
STARTCHAR Iogonek
ENCODING 302
SWIDTH 600 0
DWIDTH 6 0
BBX 6 9 0 -2
BITMAP
06FFFA
000C00
002900
006600
009300
00B000
9FFF70
053000
0AC000
ENDCHAR
STARTCHAR iogonek
ENCODING 303
SWIDTH 600 0
DWIDTH 6 0
BBX 4 9 1 -2
BITMAP
01D0
0000
DF90
0550
0820
0B11
09E5
0230
05E3
ENDCHAR
STARTCHAR Idotaccent
ENCODING 304
SWIDTH 600 0
DWIDTH 6 0
BBX 6 8 0 0
BITMAP
000740
06FFFA
000C00
002900
006600
009300
00B000
9FFF70
ENDCHAR
STARTCHAR dotlessi
ENCODING 305
SWIDTH 600 0
DWIDTH 6 0
BBX 4 5 1 0
BITMAP
DF90
0550
0820
0B11
08E8
ENDCHAR
STARTCHAR IJ
ENCODING 306
SWIDTH 600 0
DWIDTH 6 0
BBX 6 9 0 -2
BITMAP
056038
084066
0B1093
0C00C1
2A00C0
4702A0
740570
000A40
00BB00
ENDCHAR
STARTCHAR ij
ENCODING 307
SWIDTH 600 0
DWIDTH 6 0
BBX 6 9 0 -2
BITMAP
02B086
000000
0750C0
0A21B0
0C0480
1B0850
480B10
002C00
02E600
ENDCHAR
STARTCHAR Jcircumflex
ENCODING 308
SWIDTH 600 0
DWIDTH 6 0
BBX 6 8 0 0
BITMAP
003781
03FFF5
000092
0000B0
0001B0
000480
631B30
3DE800
ENDCHAR
STARTCHAR jcircumflex
ENCODING 309
SWIDTH 600 0
DWIDTH 6 0
BBX 7 10 -1 -2
BITMAP
00007D10
00036260
00000000
009FF500
00009200
0000B000
0001B000
00048000
021B4000
1BE90000
ENDCHAR
STARTCHAR uni0136
ENCODING 310
SWIDTH 600 0
DWIDTH 6 0
BBX 6 10 0 -3
BITMAP
05603A
0833A0
0B3A00
0DBB00
2C1A20
470480
7400C1
00A300
007500
06B100
ENDCHAR
STARTCHAR uni0137
ENCODING 311
SWIDTH 600 0
DWIDTH 6 0
BBX 6 10 0 -3
BITMAP
039000
066000
093095
0B1A40
0DBB00
3C1740
6501B0
00B200
008400
07A000
ENDCHAR
STARTCHAR kgreenlandic
ENCODING 312
SWIDTH 600 0
DWIDTH 6 0
BBX 6 5 0 0
BITMAP
0A2095
0B1A30
1DBB00
3B1750
6501B0
ENDCHAR
STARTCHAR Lacute
ENCODING 313
SWIDTH 600 0
DWIDTH 6 0
BBX 5 9 1 0
BITMAP
009200
075000
0B0000
0B0000
390000
560000
830000
B00000
EFFF10
ENDCHAR
STARTCHAR lacute
ENCODING 314
SWIDTH 600 0
DWIDTH 6 0
BBX 4 10 1 0
BITMAP
001A
0093
0000
8FC0
0180
0550
0810
0A00
0C11
0BE6
ENDCHAR
STARTCHAR uni013B
ENCODING 315
SWIDTH 600 0
DWIDTH 6 0
BBX 5 10 1 -3
BITMAP
0B0000
0B0000
390000
560000
830000
B00000
EFFF10
085000
048000
3C2000
ENDCHAR
STARTCHAR uni013C
ENCODING 316
SWIDTH 600 0
DWIDTH 6 0
BBX 4 10 1 -3
BITMAP
8FC0
0180
0550
0810
0A00
0C11
0BE6
0680
02A0
1D40
ENDCHAR
STARTCHAR Lcaron
ENCODING 317
SWIDTH 600 0
DWIDTH 6 0
BBX 5 8 1 0
BITMAP
000550
0B0820
0B0800
390000
560000
830000
B00000
EFFF10
ENDCHAR
STARTCHAR lcaron
ENCODING 318
SWIDTH 600 0
DWIDTH 6 0
BBX 5 8 1 0
BITMAP
0001A0
8FC360
018620
055000
081000
0A0000
0C1100
0BE600
ENDCHAR
STARTCHAR Ldot
ENCODING 319
SWIDTH 600 0
DWIDTH 6 0
BBX 5 7 1 0
BITMAP
0B0000
0B0000
390000
560860
830000
B00000
EFFF10
ENDCHAR
STARTCHAR ldot
ENCODING 320
SWIDTH 600 0
DWIDTH 6 0
BBX 6 7 1 0
BITMAP
DF6000
073000
0A0000
0A00C1
280000
571000
3ED200
ENDCHAR
STARTCHAR Lslash
ENCODING 321
SWIDTH 600 0
DWIDTH 6 0
BBX 6 7 0 0
BITMAP
00B000
00B000
039570
06B400
5D3000
0B0000
0EFFF1
ENDCHAR
STARTCHAR lslash
ENCODING 322
SWIDTH 600 0
DWIDTH 6 0
BBX 4 7 1 0
BITMAP
8FC0
0181
05B7
4C20
3A00
0C11
0BE6
ENDCHAR
STARTCHAR Nacute
ENCODING 323
SWIDTH 600 0
DWIDTH 6 0
BBX 6 9 0 0
BITMAP
000092
000750
08700B
0AA038
0B9156
1A4683
471AA0
740AA0
A10690
ENDCHAR
STARTCHAR nacute
ENCODING 324
SWIDTH 600 0
DWIDTH 6 0
BBX 6 8 0 0
BITMAP
0001A1
000830
000000
0A6DD2
0E8194
2A0092
5700B0
8301A0
ENDCHAR
STARTCHAR uni0145
ENCODING 325
SWIDTH 600 0
DWIDTH 6 0
BBX 6 10 0 -3
BITMAP
08700B
0AA038
0B9156
1A4683
471AA0
740AA0
A10690
02C000
01B000
0B7000
ENDCHAR
STARTCHAR uni0146
ENCODING 326
SWIDTH 600 0
DWIDTH 6 0
BBX 6 8 0 -3
BITMAP
0A6DD2
0E8194
2A0092
5700B0
8301A0
01C000
01B100
0A7000
ENDCHAR
STARTCHAR Ncaron
ENCODING 327
SWIDTH 600 0
DWIDTH 6 0
BBX 6 8 0 0
BITMAP
002873
08700B
0AA038
0B9156
1A4683
471AA0
740AA0
A10690
ENDCHAR
STARTCHAR ncaron
ENCODING 328
SWIDTH 600 0
DWIDTH 6 0
BBX 6 8 0 0
BITMAP
006264
001C80
000000
0A6DD2
0E8194
2A0092
5700B0
8301A0
ENDCHAR
STARTCHAR napostrophe
ENCODING 329
SWIDTH 600 0
DWIDTH 6 0
BBX 8 7 -1 0
BITMAP
03E10000
05F10000
04BA6EC0
1B2E71C1
002B00B0
005801A0
00740480
ENDCHAR
STARTCHAR Eng
ENCODING 330
SWIDTH 600 0
DWIDTH 6 0
BBX 6 7 0 0
BITMAP
099EC1
0C7187
0C0048
2A0057
570094
8403D0
B17E40
ENDCHAR
STARTCHAR eng
ENCODING 331
SWIDTH 600 0
DWIDTH 6 0
BBX 6 7 0 -2
BITMAP
0A6DD2
0E8194
2A0092
5700B0
8301B0
000680
008D20
ENDCHAR
STARTCHAR Omacron
ENCODING 332
SWIDTH 600 0
DWIDTH 6 0
BBX 6 8 0 0
BITMAP
006FF3
01BEB1
0B6187
490029
750038
840085
6915C0
0AEC20
ENDCHAR
STARTCHAR omacron
ENCODING 333
SWIDTH 600 0
DWIDTH 6 0
BBX 6 7 0 0
BITMAP
00AFE0
000000
04DE80
2C31B3
750093
7814C0
1BEB20
ENDCHAR
STARTCHAR Obreve
ENCODING 334
SWIDTH 600 0
DWIDTH 6 0
BBX 6 9 0 0
BITMAP
006355
002EB0
01BEB1
0B6187
490029
750038
840085
6915C0
0AEC20
ENDCHAR
STARTCHAR obreve
ENCODING 335
SWIDTH 600 0
DWIDTH 6 0
BBX 6 7 0 0
BITMAP
009173
006E90
04DE80
2C31B3
750093
7814C0
1BEB20
ENDCHAR
STARTCHAR Ohungarumlaut
ENCODING 336
SWIDTH 600 0
DWIDTH 6 0
BBX 6 9 0 0
BITMAP
000549
001854
01BEB1
0B6187
490029
750038
840085
6915C0
0AEC20
ENDCHAR
STARTCHAR ohungarumlaut
ENCODING 337
SWIDTH 600 0
DWIDTH 6 0
BBX 6 8 0 0
BITMAP
000838
002681
000000
04DE80
2C31B3
750093
7814C0
1BEB20
ENDCHAR
STARTCHAR OE
ENCODING 338
SWIDTH 600 0
DWIDTH 6 0
BBX 7 7 0 0
BITMAP
02BFFF70
0D575000
67091000
930CF600
B11B0000
87470000
1BFFF500
ENDCHAR
STARTCHAR oe
ENCODING 339
SWIDTH 600 0
DWIDTH 6 0
BBX 7 5 -1 0
BITMAP
02CE5EA0
0A45B1A0
0A04FFD0
1C1B6110
0AE6CD30
ENDCHAR
STARTCHAR Racute
ENCODING 340
SWIDTH 600 0
DWIDTH 6 0
BBX 6 9 0 0
BITMAP
000092
000750
07FFC2
093077
0B01A4
0FFE70
391B00
660A30
830580
ENDCHAR
STARTCHAR racute
ENCODING 341
SWIDTH 600 0
DWIDTH 6 0
BBX 5 8 1 0
BITMAP
000830
006500
000000
289E60
5D5110
850000
B10000
C00000
ENDCHAR
STARTCHAR uni0156
ENCODING 342
SWIDTH 600 0
DWIDTH 6 0
BBX 6 10 0 -3
BITMAP
07FFC2
093077
0B01A4
0FFE70
391B00
660A30
830580
00C100
00A100
0A8000
ENDCHAR
STARTCHAR uni0157
ENCODING 343
SWIDTH 600 0
DWIDTH 6 0
BBX 6 8 0 -3
BITMAP
0289E6
05D511
085000
0B1000
0C0000
3A0000
1B0000
C50000
ENDCHAR
STARTCHAR Rcaron
ENCODING 344
SWIDTH 600 0
DWIDTH 6 0
BBX 6 8 0 0
BITMAP
002872
07FFC2
093077
0B01A4
0FFE70
391B00
660A30
830580
ENDCHAR
STARTCHAR rcaron
ENCODING 345
SWIDTH 600 0
DWIDTH 6 0
BBX 5 8 1 0
BITMAP
036360
00AA00
000000
289E60
5D5110
850000
B10000
C00000
ENDCHAR
STARTCHAR Sacute
ENCODING 346
SWIDTH 600 0
DWIDTH 6 0
BBX 6 9 0 0
BITMAP
0001A0
000840
01BE90
087172
069000
007C20
0003B0
5614B0
0AEC30
ENDCHAR
STARTCHAR sacute
ENCODING 347
SWIDTH 600 0
DWIDTH 6 0
BBX 5 8 0 0
BITMAP
0002A0
000920
000000
05DE60
0A3270
029A20
3613A0
08ED50
ENDCHAR
STARTCHAR Scircumflex
ENCODING 348
SWIDTH 600 0
DWIDTH 6 0
BBX 6 8 0 0
BITMAP
004780
01BE90
087172
069000
007C20
0003B0
5614B0
0AEC30
ENDCHAR
STARTCHAR scircumflex
ENCODING 349
SWIDTH 600 0
DWIDTH 6 0
BBX 5 8 0 0
BITMAP
002C70
008180
000000
05DE60
0A3270
029A20
3613A0
08ED50
ENDCHAR
STARTCHAR uni015E
ENCODING 350
SWIDTH 600 0
DWIDTH 6 0
BBX 6 11 0 -4
BITMAP
01BE90
087172
069000
007C20
0003B0
5614B0
0AEC30
007000
02D000
01B000
0A7000
ENDCHAR
STARTCHAR uni015F
ENCODING 351
SWIDTH 600 0
DWIDTH 6 0
BBX 5 9 0 -4
BITMAP
05DE60
0A3270
029A20
3613A0
08ED50
007000
01D000
01B000
0A7000
ENDCHAR
STARTCHAR Scaron
ENCODING 352
SWIDTH 600 0
DWIDTH 6 0
BBX 6 8 0 0
BITMAP
003872
01BE90
087172
069000
007C20
0003B0
5614B0
0AEC30
ENDCHAR
STARTCHAR scaron
ENCODING 353
SWIDTH 600 0
DWIDTH 6 0
BBX 6 8 0 0
BITMAP
007172
002D60
000000
05DE60
0A3270
029A20
3613A0
08ED50
ENDCHAR
STARTCHAR uni0162
ENCODING 354
SWIDTH 600 0
DWIDTH 6 0
BBX 6 11 1 -4
BITMAP
EFFFF3
00C000
02A000
057000
084000
0B1000
0C0000
070000
5A0000
1B0000
D40000
ENDCHAR
STARTCHAR uni0163
ENCODING 355
SWIDTH 600 0
DWIDTH 6 0
BBX 6 11 0 -4
BITMAP
006400
009200
3EFFF6
00B000
038000
068120
02DE60
004300
009500
005700
04C100
ENDCHAR
STARTCHAR Tcaron
ENCODING 356
SWIDTH 600 0
DWIDTH 6 0
BBX 6 8 1 0
BITMAP
028730
EFFFF3
00C000
02A000
057000
084000
0B1000
0C0000
ENDCHAR
STARTCHAR tcaron
ENCODING 357
SWIDTH 600 0
DWIDTH 6 0
BBX 6 8 0 0
BITMAP
000055
006482
009280
3EFFF6
00B000
038000
068120
02DE60
ENDCHAR
STARTCHAR Tbar
ENCODING 358
SWIDTH 600 0
DWIDTH 6 0
BBX 6 7 1 0
BITMAP
EFFFF3
00C000
029000
9FFC00
074000
0A1000
0C0000
ENDCHAR
STARTCHAR tbar
ENCODING 359
SWIDTH 600 0
DWIDTH 6 0
BBX 6 7 0 0
BITMAP
006400
009200
3EFFF6
8FFFD0
056000
068120
01DE60
ENDCHAR
STARTCHAR Utilde
ENCODING 360
SWIDTH 600 0
DWIDTH 6 0
BBX 6 10 0 0
BITMAP
000100
007E39
0083E4
09200B
0B0039
0B0066
390093
5600C1
4A16A0
0AEC20
ENDCHAR
STARTCHAR utilde
ENCODING 361
SWIDTH 600 0
DWIDTH 6 0
BBX 6 8 0 0
BITMAP
007935
0074D2
000000
0B0066
1A0093
4700C0
6719C0
3ED590
ENDCHAR
STARTCHAR Umacron
ENCODING 362
SWIDTH 600 0
DWIDTH 6 0
BBX 6 8 0 0
BITMAP
006FF3
09200B
0B0039
0B0066
390093
5600C1
4A16A0
0AEC20
ENDCHAR
STARTCHAR umacron
ENCODING 363
SWIDTH 600 0
DWIDTH 6 0
BBX 6 7 0 0
BITMAP
00AFD0
000000
0B0066
1A0093
4700C0
6719C0
3ED590
ENDCHAR
STARTCHAR Ubreve
ENCODING 364
SWIDTH 600 0
DWIDTH 6 0
BBX 6 9 0 0
BITMAP
006355
002EB0
09200B
0B0039
0B0066
390093
5600C1
4A16A0
0AEC20
ENDCHAR
STARTCHAR ubreve
ENCODING 365
SWIDTH 600 0
DWIDTH 6 0
BBX 6 7 0 0
BITMAP
009183
006E80
0B0066
1A0093
4700C0
6719C0
3ED590
ENDCHAR
STARTCHAR Uring
ENCODING 366
SWIDTH 600 0
DWIDTH 6 0
BBX 6 10 0 0
BITMAP
0009A0
000990
000C80
09200B
0B0039
0B0066
390093
5600C1
4A16A0
0AEC20
ENDCHAR
STARTCHAR uring
ENCODING 367
SWIDTH 600 0
DWIDTH 6 0
BBX 6 8 0 0
BITMAP
001D70
005590
003E50
0B0066
1A0093
4700C0
6719C0
3ED590
ENDCHAR
STARTCHAR Uhungarumlaut
ENCODING 368
SWIDTH 600 0
DWIDTH 6 0
BBX 6 9 0 0
BITMAP
000549
001854
09200B
0B0039
0B0066
390093
5600C1
4A16A0
0AEC20
ENDCHAR
STARTCHAR uhungarumlaut
ENCODING 369
SWIDTH 600 0
DWIDTH 6 0
BBX 6 8 0 0
BITMAP
000837
002681
000000
0B0066
1A0093
4700C0
6719C0
3ED590
ENDCHAR
STARTCHAR Uogonek
ENCODING 370
SWIDTH 600 0
DWIDTH 6 0
BBX 6 9 0 -2
BITMAP
09200B
0B0039
0B0066
390093
5600C1
4A06A0
0BFC20
053000
0AC000
ENDCHAR
STARTCHAR uogonek
ENCODING 371
SWIDTH 600 0
DWIDTH 6 0
BBX 6 7 0 -2
BITMAP
0B0066
1A0093
4700C0
6719C0
3ED590
001520
003E50
ENDCHAR
STARTCHAR Wcircumflex
ENCODING 372
SWIDTH 600 0
DWIDTH 6 0
BBX 7 8 0 0
BITMAP
00478100
1A000740
29000A00
384A1A00
47884600
57899200
6B29A000
6B098000
ENDCHAR
STARTCHAR wcircumflex
ENCODING 373
SWIDTH 600 0
DWIDTH 6 0
BBX 7 8 0 0
BITMAP
003C6000
00818000
00000000
83380A10
83892900
75898300
7A39A000
7B0B6000
ENDCHAR
STARTCHAR Ycircumflex
ENCODING 374
SWIDTH 600 0
DWIDTH 6 0
BBX 6 8 1 0
BITMAP
047800
B100B1
750850
393B00
0CB200
0A7000
0A1000
0C0000
ENDCHAR
STARTCHAR ycircumflex
ENCODING 375
SWIDTH 600 0
DWIDTH 6 0
BBX 7 10 -1 -2
BITMAP
0003C600
00081800
00000000
00B00480
00B00B10
00837400
00579000
001E2000
00570000
4E900000
ENDCHAR
STARTCHAR Ydieresis
ENCODING 376
SWIDTH 600 0
DWIDTH 6 0
BBX 6 8 1 0
BITMAP
073910
B100B1
750850
393B00
0CB200
0A7000
0A1000
0C0000
ENDCHAR
STARTCHAR Zacute
ENCODING 377
SWIDTH 600 0
DWIDTH 6 0
BBX 6 9 0 0
BITMAP
0001A1
000840
0AFFFC
0000A3
000950
007700
059000
3A0000
BFFFE0
ENDCHAR
STARTCHAR zacute
ENCODING 378
SWIDTH 600 0
DWIDTH 6 0
BBX 6 8 0 0
BITMAP
0002A0
000920
000000
0CFFF4
000670
008500
193000
9FFFA0
ENDCHAR
STARTCHAR Zdotaccent
ENCODING 379
SWIDTH 600 0
DWIDTH 6 0
BBX 6 8 0 0
BITMAP
000930
0AFFFC
0000A3
000950
007700
059000
3A0000
BFFFE0
ENDCHAR
STARTCHAR zdotaccent
ENCODING 380
SWIDTH 600 0
DWIDTH 6 0
BBX 6 7 0 0
BITMAP
000C20
000000
0CFFF4
000670
008500
193000
9FFFA0
ENDCHAR
STARTCHAR Zcaron
ENCODING 381
SWIDTH 600 0
DWIDTH 6 0
BBX 6 8 0 0
BITMAP
003872
0AFFFC
0000A3
000950
007700
059000
3A0000
BFFFE0
ENDCHAR
STARTCHAR zcaron
ENCODING 382
SWIDTH 600 0
DWIDTH 6 0
BBX 6 8 0 0
BITMAP
007182
003D50
000000
0CFFF4
000670
008500
193000
9FFFA0
ENDCHAR
STARTCHAR longs
ENCODING 383
SWIDTH 600 0
DWIDTH 6 0
BBX 6 7 1 0
BITMAP
008EC1
03C120
BF7000
084000
0B1000
0B0000
380000
ENDCHAR
STARTCHAR uni0180
ENCODING 384
SWIDTH 600 0
DWIDTH 6 0
BBX 6 7 0 0
BITMAP
057000
3FFF70
092000
0CAEC1
1D4195
5913C2
8AED50
ENDCHAR
STARTCHAR uni018A
ENCODING 394
SWIDTH 600 0
DWIDTH 6 0
BBX 6 7 0 0
BITMAP
03CEB1
2A9579
82A10C
84B01B
13A068
0475D1
07EB20
ENDCHAR
STARTCHAR uni018F
ENCODING 399
SWIDTH 600 0
DWIDTH 6 0
BBX 6 7 0 0
BITMAP
009EC1
025177
000029
6FFFF8
650074
5915B0
0BEB10
ENDCHAR
STARTCHAR uni0192
ENCODING 402
SWIDTH 600 0
DWIDTH 6 0
BBX 7 8 -1 -1
BITMAP
00002DC0
0000A410
0000B000
004FFF00
00074000
000C0000
01680000
2EC10000
ENDCHAR
STARTCHAR uni0193
ENCODING 403
SWIDTH 600 0
DWIDTH 6 0
BBX 7 8 0 0
BITMAP
00001D70
007EE800
08A13500
1C000000
480AF500
57008300
2C21B000
07EE7000
ENDCHAR
STARTCHAR Ohorn
ENCODING 416
SWIDTH 600 0
DWIDTH 6 0
BBX 7 8 0 0
BITMAP
00000540
01BFCA10
0B618500
49002900
75003900
84008600
6915D000
0AEC2000
ENDCHAR
STARTCHAR ohorn
ENCODING 417
SWIDTH 600 0
DWIDTH 6 0
BBX 6 7 0 0
BITMAP
000008
00000A
04DEC4
2C31B2
750093
7814D1
1BEB30
ENDCHAR
STARTCHAR Uhorn
ENCODING 431
SWIDTH 600 0
DWIDTH 6 0
BBX 8 9 0 0
BITMAP
00000071
00000170
09200B00
0B003800
0B006500
39009200
5600C000
4A169000
0AEB1000
ENDCHAR
STARTCHAR uhorn
ENCODING 432
SWIDTH 600 0
DWIDTH 6 0
BBX 7 7 0 0
BITMAP
00000170
00000570
0B006D10
1A009500
4700C100
6719D000
3ED59000
ENDCHAR
STARTCHAR uni01C2
ENCODING 450
SWIDTH 600 0
DWIDTH 6 0
BBX 6 9 0 -2
BITMAP
000920
000B00
001A00
0EFFF2
007500
5EFFC0
00B000
01A000
057000
ENDCHAR
STARTCHAR uni01CD
ENCODING 461
SWIDTH 600 0
DWIDTH 6 0
BBX 7 8 -1 0
BITMAP
00028730
0000D400
00077600
00193800
00741900
01EFFB00
07600C00
1C000C00
ENDCHAR
STARTCHAR uni01CE
ENCODING 462
SWIDTH 600 0
DWIDTH 6 0
BBX 6 8 0 0
BITMAP
006354
001C80
000000
03DE97
1C41B4
6600A1
6816C0
1CE8A0
ENDCHAR
STARTCHAR uni01CF
ENCODING 463
SWIDTH 600 0
DWIDTH 6 0
BBX 6 8 0 0
BITMAP
002873
06FFFA
000C00
002900
006600
009300
00B000
9FFF70
ENDCHAR
STARTCHAR uni01D0
ENCODING 464
SWIDTH 600 0
DWIDTH 6 0
BBX 5 8 1 0
BITMAP
081910
05D400
000000
DF9000
055000
082000
0B1100
08E800
ENDCHAR
STARTCHAR uni01D1
ENCODING 465
SWIDTH 600 0
DWIDTH 6 0
BBX 6 8 0 0
BITMAP
002873
01BEB1
0B6187
490029
750038
840085
6915C0
0AEC20
ENDCHAR
STARTCHAR uni01D2
ENCODING 466
SWIDTH 600 0
DWIDTH 6 0
BBX 6 8 0 0
BITMAP
007172
002D60
000000
04DE80
2C31B3
750093
7814C0
1BEB20
ENDCHAR
STARTCHAR uni01D3
ENCODING 467
SWIDTH 600 0
DWIDTH 6 0
BBX 6 8 0 0
BITMAP
002873
09200B
0B0039
0B0066
390093
5600C1
4A16A0
0AEC20
ENDCHAR
STARTCHAR uni01D4
ENCODING 468
SWIDTH 600 0
DWIDTH 6 0
BBX 6 8 0 0
BITMAP
007172
002D60
000000
0B0066
1A0093
4700C0
6719C0
3ED590
ENDCHAR
STARTCHAR uni01D5
ENCODING 469
SWIDTH 600 0
DWIDTH 6 0
BBX 6 10 0 0
BITMAP
003FF6
000000
005471
09200B
0B0039
0B0066
390093
5600C1
4A16A0
0AEC20
ENDCHAR
STARTCHAR uni01D6
ENCODING 470
SWIDTH 600 0
DWIDTH 6 0
BBX 6 9 0 0
BITMAP
005FF3
000000
008190
000000
0B0066
1A0093
4700C0
6719C0
3ED590
ENDCHAR
STARTCHAR uni01D7
ENCODING 471
SWIDTH 600 0
DWIDTH 6 0
BBX 6 9 0 0
BITMAP
000171
005471
09200B
0B0039
0B0066
390093
5600C1
4A16A0
0AEC20
ENDCHAR
STARTCHAR uni01D8
ENCODING 472
SWIDTH 600 0
DWIDTH 6 0
BBX 6 8 0 0
BITMAP
000260
008190
000000
0B0066
1A0093
4700C0
6719C0
3ED590
ENDCHAR
STARTCHAR uni01D9
ENCODING 473
SWIDTH 600 0
DWIDTH 6 0
BBX 6 9 0 0
BITMAP
000872
005471
09200B
0B0039
0B0066
390093
5600C1
4A16A0
0AEC20
ENDCHAR
STARTCHAR uni01DA
ENCODING 474
SWIDTH 600 0
DWIDTH 6 0
BBX 6 8 0 0
BITMAP
002871
008190
000000
0B0066
1A0093
4700C0
6719C0
3ED590
ENDCHAR
STARTCHAR uni01DB
ENCODING 475
SWIDTH 600 0
DWIDTH 6 0
BBX 6 9 0 0
BITMAP
000620
005471
09200B
0B0039
0B0066
390093
5600C1
4A16A0
0AEC20
ENDCHAR
STARTCHAR uni01DC
ENCODING 476
SWIDTH 600 0
DWIDTH 6 0
BBX 6 8 0 0
BITMAP
000700
008190
000000
0B0066
1A0093
4700C0
6719C0
3ED590
ENDCHAR
STARTCHAR uni01E2
ENCODING 482
SWIDTH 600 0
DWIDTH 6 0
BBX 8 8 -1 0
BITMAP
00004FF5
0000CFF6
00079500
00189200
0081CF80
03FFC000
0B228000
5705FF50
ENDCHAR
STARTCHAR uni01E3
ENCODING 483
SWIDTH 600 0
DWIDTH 6 0
BBX 7 7 -1 0
BITMAP
0009FE00
00000000
02CD6EA0
0226B5C0
05CEBA90
2B2A5210
1ED6DC20
ENDCHAR
STARTCHAR Gcaron
ENCODING 486
SWIDTH 600 0
DWIDTH 6 0
BBX 6 8 0 0
BITMAP
001874
007ED2
08A135
1C0000
480AF5
570083
2C21B0
07EE70
ENDCHAR
STARTCHAR gcaron
ENCODING 487
SWIDTH 600 0
DWIDTH 6 0
BBX 6 10 0 -2
BITMAP
006354
001C80
000000
04CE96
1C31B3
5600B1
6A38C0
1AC790
412950
5EE900
ENDCHAR
STARTCHAR uni01EA
ENCODING 490
SWIDTH 600 0
DWIDTH 6 0
BBX 6 9 0 -2
BITMAP
01BEB1
0B6187
490029
750038
840085
6915C0
0AFC20
053000
0AC000
ENDCHAR
STARTCHAR uni01EB
ENCODING 491
SWIDTH 600 0
DWIDTH 6 0
BBX 6 7 0 -2
BITMAP
04DE80
2C31B3
750093
7814C0
1BFC30
053000
0AC000
ENDCHAR
STARTCHAR uni01F4
ENCODING 500
SWIDTH 600 0
DWIDTH 6 0
BBX 6 9 0 0
BITMAP
000065
000470
007ED2
08A135
1C0000
480AF5
570083
2C21B0
07EE70
ENDCHAR
STARTCHAR uni01F5
ENCODING 501
SWIDTH 600 0
DWIDTH 6 0
BBX 6 10 0 -2
BITMAP
0001A1
000830
000000
04CE96
1C31B3
5600B1
6A38C0
1AC790
412950
5EE900
ENDCHAR
STARTCHAR uni01F8
ENCODING 504
SWIDTH 600 0
DWIDTH 6 0
BBX 6 9 0 0
BITMAP
002900
000730
08700B
0AA038
0B9156
1A4683
471AA0
740AA0
A10690
ENDCHAR
STARTCHAR uni01F9
ENCODING 505
SWIDTH 600 0
DWIDTH 6 0
BBX 6 8 0 0
BITMAP
001A00
000640
000000
0A6DD2
0E8194
2A0092
5700B0
8301A0
ENDCHAR
STARTCHAR Aringacute
ENCODING 506
SWIDTH 600 0
DWIDTH 6 0
BBX 7 10 -1 0
BITMAP
00000510
00003600
0000CB00
0000D400
0007A600
001B3800
00741900
01EFFB00
07600C00
1C000C00
ENDCHAR
STARTCHAR aringacute
ENCODING 507
SWIDTH 600 0
DWIDTH 6 0
BBX 6 9 0 0
BITMAP
000180
000CA0
003790
001D70
03DE97
1C41A4
6600A1
6815C0
1CE8A0
ENDCHAR
STARTCHAR AEacute
ENCODING 508
SWIDTH 600 0
DWIDTH 6 0
BBX 8 9 -1 0
BITMAP
00000084
00000660
0000CFF6
00079500
00189200
0081CF80
03FFC000
0B228000
5705FF50
ENDCHAR
STARTCHAR aeacute
ENCODING 509
SWIDTH 600 0
DWIDTH 6 0
BBX 7 8 -1 0
BITMAP
00001A00
00009200
00000000
02CD6EA0
0226B5C0
05CEBA90
2B2A5210
1ED6DC20
ENDCHAR
STARTCHAR Oslashacute
ENCODING 510
SWIDTH 600 0
DWIDTH 6 0
BBX 7 10 0 -1
BITMAP
00009200
00075100
01BEBA10
0C61B800
4A087A00
75573800
97908500
6D15C000
AAEC2000
10000000
ENDCHAR
STARTCHAR oslashacute
ENCODING 511
SWIDTH 600 0
DWIDTH 6 0
BBX 6 9 0 -1
BITMAP
0002A0
000920
000001
04DEB6
2C37C3
758583
7C45C0
9BEB20
100000
ENDCHAR
STARTCHAR uni0218
ENCODING 536
SWIDTH 600 0
DWIDTH 6 0
BBX 6 10 0 -3
BITMAP
01BE90
087172
069000
007C20
0003B0
5614B0
0AEC30
00C100
00A100
0A8000
ENDCHAR
STARTCHAR uni0219
ENCODING 537
SWIDTH 600 0
DWIDTH 6 0
BBX 5 8 0 -3
BITMAP
05DE60
0A3270
029A20
3613A0
08ED50
00C100
00A100
0A8000
ENDCHAR
STARTCHAR uni021A
ENCODING 538
SWIDTH 600 0
DWIDTH 6 0
BBX 6 10 1 -3
BITMAP
EFFFF3
00C000
02A000
057000
084000
0B1000
0C0000
4A0000
1B0000
D50000
ENDCHAR
STARTCHAR uni021B
ENCODING 539
SWIDTH 600 0
DWIDTH 6 0
BBX 6 10 0 -3
BITMAP
006400
009200
3EFFF6
00B000
038000
068120
02DE60
008600
004800
03D200
ENDCHAR
STARTCHAR uni0237
ENCODING 567
SWIDTH 600 0
DWIDTH 6 0
BBX 6 7 -1 -2
BITMAP
009FF5
000092
0000B0
0001B0
000480
021B40
1BE900
ENDCHAR
STARTCHAR uni0243
ENCODING 579
SWIDTH 600 0
DWIDTH 6 0
BBX 6 7 0 0
BITMAP
06FFC3
092195
0CFF70
1B02C1
EFF192
5603C0
7FFC40
ENDCHAR
STARTCHAR uni0250
ENCODING 592
SWIDTH 600 0
DWIDTH 6 0
BBX 6 5 0 0
BITMAP
0A8ED2
0E73B3
3FEB50
581440
2DEA10
ENDCHAR
STARTCHAR uni0251
ENCODING 593
SWIDTH 600 0
DWIDTH 6 0
BBX 6 5 0 0
BITMAP
03DE97
1C41B4
6600A1
6816C0
1CE8A0
ENDCHAR
STARTCHAR uni0252
ENCODING 594
SWIDTH 600 0
DWIDTH 6 0
BBX 6 5 0 0
BITMAP
0A8EB1
0E61A5
290084
5A14C1
89EC30
ENDCHAR
STARTCHAR uni0253
ENCODING 595
SWIDTH 600 0
DWIDTH 6 0
BBX 6 7 0 0
BITMAP
01BE40
077100
0A9EB1
0D51A5
290084
5A14C1
89EC30
ENDCHAR
STARTCHAR uni0254
ENCODING 596
SWIDTH 600 0
DWIDTH 6 0
BBX 6 5 0 0
BITMAP
05EE60
0612D0
0000B1
5216B0
3DEA10
ENDCHAR
STARTCHAR uni0255
ENCODING 597
SWIDTH 600 0
DWIDTH 6 0
BBX 6 6 0 -1
BITMAP
03BEA0
1C4152
476EA0
2DA3A0
1CDE50
630000
ENDCHAR
STARTCHAR uni0256
ENCODING 598
SWIDTH 600 0
DWIDTH 6 0
BBX 6 9 0 -2
BITMAP
00000C
00001A
03DEA7
1C41B4
6600A1
6816C0
1CE9A0
000470
0003E2
ENDCHAR
STARTCHAR uni0257
ENCODING 599
SWIDTH 600 0
DWIDTH 6 0
BBX 7 7 0 0
BITMAP
000009C0
00001C10
03DEA800
1C41B500
6600B200
6816D000
1CE8A000
ENDCHAR
STARTCHAR uni0258
ENCODING 600
SWIDTH 600 0
DWIDTH 6 0
BBX 6 5 0 0
BITMAP
03CE90
1A21B3
3FFFF3
2403B0
1BEB30
ENDCHAR
STARTCHAR uni0259
ENCODING 601
SWIDTH 600 0
DWIDTH 6 0
BBX 6 5 0 0
BITMAP
03CE90
0421A3
6FFFF3
6713B0
1BEB30
ENDCHAR
STARTCHAR uni025A
ENCODING 602
SWIDTH 600 0
DWIDTH 6 0
BBX 7 5 0 0
BITMAP
1AEA0000
132DA600
488C2D20
C14B0000
8EB20000
ENDCHAR
STARTCHAR uni025B
ENCODING 603
SWIDTH 600 0
DWIDTH 6 0
BBX 6 5 0 0
BITMAP
04DE90
0B4162
08FD00
691240
2CFD40
ENDCHAR
STARTCHAR uni025C
ENCODING 604
SWIDTH 600 0
DWIDTH 6 0
BBX 6 5 0 0
BITMAP
04CEA0
0322C1
00EF60
3513C0
1AFD50
ENDCHAR
STARTCHAR uni025E
ENCODING 606
SWIDTH 600 0
DWIDTH 6 0
BBX 6 5 0 0
BITMAP
04CEB1
2C31C2
755F80
6912D0
0AED60
ENDCHAR
STARTCHAR uni025F
ENCODING 607
SWIDTH 600 0
DWIDTH 6 0
BBX 7 7 -1 -2
BITMAP
009FF500
00009200
00AEFF80
0000B000
00049000
021B4000
1BE90000
ENDCHAR
STARTCHAR uni0260
ENCODING 608
SWIDTH 600 0
DWIDTH 6 0
BBX 7 8 0 -2
BITMAP
00000BA0
03CEAA00
1C31B500
5700A200
6816D000
1CE9A000
41196000
5EE90000
ENDCHAR
STARTCHAR uni0261
ENCODING 609
SWIDTH 600 0
DWIDTH 6 0
BBX 6 7 0 -2
BITMAP
04CE96
1C31B3
5600B1
6A38C0
1AC790
412950
5EE900
ENDCHAR
STARTCHAR uni0262
ENCODING 610
SWIDTH 600 0
DWIDTH 6 0
BBX 6 5 0 0
BITMAP
03BEA0
1C4152
470DF1
4B11A0
08ED60
ENDCHAR
STARTCHAR uni0263
ENCODING 611
SWIDTH 600 0
DWIDTH 6 0
BBX 5 7 1 -2
BITMAP
B00470
B01A00
748300
3A8000
3E2000
974000
AD1000
ENDCHAR
STARTCHAR uni0264
ENCODING 612
SWIDTH 600 0
DWIDTH 6 0
BBX 5 5 1 0
BITMAP
DB6D70
1BD110
837400
C19500
AEA000
ENDCHAR
STARTCHAR uni0265
ENCODING 613
SWIDTH 600 0
DWIDTH 6 0
BBX 6 7 0 -2
BITMAP
0B0066
1A0093
4700C0
6719C0
3ED790
000560
000830
ENDCHAR
STARTCHAR uni0266
ENCODING 614
SWIDTH 600 0
DWIDTH 6 0
BBX 6 7 0 0
BITMAP
01BE40
077100
0A7DD1
0D8194
2A0091
5700B0
8301B0
ENDCHAR
STARTCHAR uni0267
ENCODING 615
SWIDTH 600 0
DWIDTH 6 0
BBX 6 9 0 -2
BITMAP
01BE40
077100
0A7DD1
0D8194
2A00A2
5700B0
8301B0
000680
008D20
ENDCHAR
STARTCHAR uni0268
ENCODING 616
SWIDTH 600 0
DWIDTH 6 0
BBX 5 7 0 0
BITMAP
001D00
000000
0DF900
005600
2EFFC0
00B110
009E80
ENDCHAR
STARTCHAR uni026A
ENCODING 618
SWIDTH 600 0
DWIDTH 6 0
BBX 6 5 0 0
BITMAP
0BFFF4
005800
008400
00B100
8FFF70
ENDCHAR
STARTCHAR uni026B
ENCODING 619
SWIDTH 600 0
DWIDTH 6 0
BBX 4 7 1 0
BITMAP
8FC0
1382
AF89
8BF4
0A00
0C11
0BE6
ENDCHAR
STARTCHAR uni026C
ENCODING 620
SWIDTH 600 0
DWIDTH 6 0
BBX 5 7 0 0
BITMAP
08FC00
0DB800
28B500
0CFF80
00B000
00C110
00BE60
ENDCHAR
STARTCHAR uni026D
ENCODING 621
SWIDTH 600 0
DWIDTH 6 0
BBX 4 9 1 -2
BITMAP
8FC0
0190
0550
0820
0A00
0A00
3800
5710
3ED2
ENDCHAR
STARTCHAR uni026E
ENCODING 622
SWIDTH 600 0
DWIDTH 6 0
BBX 6 9 0 -2
BITMAP
074000
0A1000
0DFFFB
1B0441
489FA0
7511C1
A100B0
0615A0
08EB10
ENDCHAR
STARTCHAR uni026F
ENCODING 623
SWIDTH 600 0
DWIDTH 6 0
BBX 6 5 0 0
BITMAP
38291A
655648
929285
B2D2D2
BCACB0
ENDCHAR
STARTCHAR uni0270
ENCODING 624
SWIDTH 600 0
DWIDTH 6 0
BBX 6 7 0 -2
BITMAP
38291A
656557
919284
B2D2D1
BBACC0
0000A0
000370
ENDCHAR
STARTCHAR uni0271
ENCODING 625
SWIDTH 600 0
DWIDTH 6 0
BBX 6 7 0 -2
BITMAP
2BD9D8
5B4C49
845656
B19283
C0B0B0
0002C0
001E60
ENDCHAR
STARTCHAR uni0272
ENCODING 626
SWIDTH 600 0
DWIDTH 6 0
BBX 7 7 -1 -2
BITMAP
00A6DD20
00E81940
03A00920
06700B00
09401A00
1C100000
C9000000
ENDCHAR
STARTCHAR uni0273
ENCODING 627
SWIDTH 600 0
DWIDTH 6 0
BBX 6 7 0 -2
BITMAP
096DD2
0E8194
2A0091
5700A0
8300A0
000380
0003E3
ENDCHAR
STARTCHAR uni0274
ENCODING 628
SWIDTH 600 0
DWIDTH 6 0
BBX 6 5 0 0
BITMAP
0A6092
0BB0B0
0B84B0
382B80
650A60
ENDCHAR
STARTCHAR uni0275
ENCODING 629
SWIDTH 600 0
DWIDTH 6 0
BBX 6 5 0 0
BITMAP
04DE80
2B21A3
7FFFF3
7603A0
1BEB20
ENDCHAR
STARTCHAR uni0276
ENCODING 630
SWIDTH 600 0
DWIDTH 6 0
BBX 7 5 0 0
BITMAP
19EF9920
881A0000
B01FF600
C2480000
6EFFF600
ENDCHAR
STARTCHAR uni0278
ENCODING 632
SWIDTH 600 0
DWIDTH 6 0
BBX 6 9 0 -2
BITMAP
000920
000C00
07DFA1
6A5986
A18547
A5B3C3
2CFD50
02A000
057000
ENDCHAR
STARTCHAR uni0279
ENCODING 633
SWIDTH 600 0
DWIDTH 6 0
BBX 5 5 0 0
BITMAP
0000B0
000290
000770
116D40
7E8910
ENDCHAR
STARTCHAR uni027A
ENCODING 634
SWIDTH 600 0
DWIDTH 6 0
BBX 6 7 0 0
BITMAP
000065
0000A2
0000C0
0002B0
000670
106D40
7E8910
ENDCHAR
STARTCHAR uni027B
ENCODING 635
SWIDTH 600 0
DWIDTH 6 0
BBX 5 7 0 -2
BITMAP
000A20
000C00
001B00
119800
7DA500
008300
006E20
ENDCHAR
STARTCHAR uni027D
ENCODING 637
SWIDTH 600 0
DWIDTH 6 0
BBX 6 7 0 -2
BITMAP
0289E5
05D511
085000
0B1000
0B0000
1D1200
0BE800
ENDCHAR
STARTCHAR uni027E
ENCODING 638
SWIDTH 600 0
DWIDTH 6 0
BBX 5 5 1 0
BITMAP
07EE50
4C2110
840000
B10000
C00000
ENDCHAR
STARTCHAR uni0280
ENCODING 640
SWIDTH 600 0
DWIDTH 6 0
BBX 6 5 0 0
BITMAP
06FFB0
0921C1
0CFE60
0B0B10
390660
ENDCHAR
STARTCHAR uni0281
ENCODING 641
SWIDTH 600 0
DWIDTH 6 0
BBX 5 5 0 0
BITMAP
0930B0
0390B0
08FF90
4A1560
2DFF30
ENDCHAR
STARTCHAR uni0282
ENCODING 642
SWIDTH 600 0
DWIDTH 6 0
BBX 5 7 0 -2
BITMAP
05DE60
0A3270
029A20
4613A0
9CED50
B10000
7C0000
ENDCHAR
STARTCHAR uni0283
ENCODING 643
SWIDTH 600 0
DWIDTH 6 0
BBX 8 9 -1 -2
BITMAP
00004EC1
0000C420
0001D000
0004A000
00076000
000A3000
000D0000
023B0000
1CE40000
ENDCHAR
STARTCHAR uni0284
ENCODING 644
SWIDTH 600 0
DWIDTH 6 0
BBX 8 9 -1 -2
BITMAP
00004EC1
0000C320
0001C000
00048000
02EFFF20
00093000
000C0000
023B0000
1CE40000
ENDCHAR
STARTCHAR uni0287
ENCODING 647
SWIDTH 600 0
DWIDTH 6 0
BBX 5 7 0 -2
BITMAP
09EC10
031B20
000A00
000B00
9FFFE0
005600
007300
ENDCHAR
STARTCHAR uni0288
ENCODING 648
SWIDTH 600 0
DWIDTH 6 0
BBX 6 9 0 -2
BITMAP
006400
009200
3EFFF6
00B000
029000
055000
092000
0B3110
06EC30
ENDCHAR
STARTCHAR uni0289
ENCODING 649
SWIDTH 600 0
DWIDTH 6 0
BBX 6 5 0 0
BITMAP
0A20B1
BFFFFA
1B02A0
2B1A70
1DD950
ENDCHAR
STARTCHAR uni028A
ENCODING 650
SWIDTH 600 0
DWIDTH 6 0
BBX 6 5 0 0
BITMAP
0FC3F9
072090
3700B0
5916B0
1CEB20
ENDCHAR
STARTCHAR uni028B
ENCODING 651
SWIDTH 600 0
DWIDTH 6 0
BBX 6 5 0 0
BITMAP
0B08D1
1A0094
4700A2
5916A0
1CFA10
ENDCHAR
STARTCHAR uni028C
ENCODING 652
SWIDTH 600 0
DWIDTH 6 0
BBX 5 5 0 0
BITMAP
005D00
01A820
083560
290290
A200B0
ENDCHAR
STARTCHAR uni028D
ENCODING 653
SWIDTH 600 0
DWIDTH 6 0
BBX 7 5 -1 0
BITMAP
00991E30
01996A40
0659A740
0B0B6750
380A1650
ENDCHAR
STARTCHAR uni028E
ENCODING 654
SWIDTH 600 0
DWIDTH 6 0
BBX 7 7 0 0
BITMAP
0000AE30
00075000
003C0000
00AA1000
07565000
2A039000
A200B000
ENDCHAR
STARTCHAR uni028F
ENCODING 655
SWIDTH 600 0
DWIDTH 6 0
BBX 5 5 1 0
BITMAP
B20940
675900
1DC100
0B3000
0C0000
ENDCHAR
STARTCHAR uni0290
ENCODING 656
SWIDTH 600 0
DWIDTH 6 0
BBX 6 7 0 -2
BITMAP
0CFFF4
000670
008500
193000
9FFFA0
000390
0002E4
ENDCHAR
STARTCHAR uni0291
ENCODING 657
SWIDTH 600 0
DWIDTH 6 0
BBX 6 6 0 -1
BITMAP
0CFFF3
000660
0086D7
192948
9FFFC2
007100
ENDCHAR
STARTCHAR uni0292
ENCODING 658
SWIDTH 600 0
DWIDTH 6 0
BBX 6 7 0 -2
BITMAP
09FFC2
002100
08FD20
010780
000380
712B30
6ED500
ENDCHAR
STARTCHAR uni0294
ENCODING 660
SWIDTH 600 0
DWIDTH 6 0
BBX 5 7 1 0
BITMAP
1BEC10
541860
000730
006500
0A2000
0B0000
290000
ENDCHAR
STARTCHAR uni0295
ENCODING 661
SWIDTH 600 0
DWIDTH 6 0
BBX 5 7 1 0
BITMAP
09EC20
691370
740000
291000
048000
075000
0A1000
ENDCHAR
STARTCHAR uni0298
ENCODING 664
SWIDTH 600 0
DWIDTH 6 0
BBX 6 7 0 0
BITMAP
009EB1
089186
0C0047
385856
5600A2
3A16A0
0AEB10
ENDCHAR
STARTCHAR uni0299
ENCODING 665
SWIDTH 600 0
DWIDTH 6 0
BBX 6 5 0 0
BITMAP
07FFC0
0A21C1
0DFF70
1B02C0
4FFD50
ENDCHAR
STARTCHAR uni029C
ENCODING 668
SWIDTH 600 0
DWIDTH 6 0
BBX 6 5 0 0
BITMAP
0B0075
0B00A2
3FFFE0
6700B0
830380
ENDCHAR
STARTCHAR uni029D
ENCODING 669
SWIDTH 600 0
DWIDTH 6 0
BBX 5 10 0 -3
BITMAP
0004A0
000000
09FF50
000920
000B00
002A00
8EC600
B2D500
AE7A00
000800
ENDCHAR
STARTCHAR uni029E
ENCODING 670
SWIDTH 600 0
DWIDTH 6 0
BBX 6 7 0 -2
BITMAP
1B0083
0842D0
01CAC0
059390
770560
000830
000B10
ENDCHAR
STARTCHAR uni029F
ENCODING 671
SWIDTH 600 0
DWIDTH 6 0
BBX 4 5 1 0
BITMAP
1A00
4700
7400
A100
DFFD
ENDCHAR
STARTCHAR uni02A1
ENCODING 673
SWIDTH 600 0
DWIDTH 6 0
BBX 6 7 0 0
BITMAP
01BEC1
054186
000083
001750
2EFFE0
00C000
029000
ENDCHAR
STARTCHAR uni02A2
ENCODING 674
SWIDTH 600 0
DWIDTH 6 0
BBX 6 7 0 0
BITMAP
009EC2
069137
074000
01A200
1EFFF1
006600
00A200
ENDCHAR
STARTCHAR uni02A4
ENCODING 676
SWIDTH 600 0
DWIDTH 6 0
BBX 8 9 -1 -2
BITMAP
0000A100
0000B000
02DBFFF7
0B468191
1A075910
2B2D7F80
0CCB01B0
00041580
0006EB10
ENDCHAR
STARTCHAR uni02A6
ENCODING 678
SWIDTH 600 0
DWIDTH 6 0
BBX 6 7 0 0
BITMAP
023000
073000
6FFFE6
0B0C22
2904C1
590194
1CFE90
ENDCHAR
STARTCHAR uni02A7
ENCODING 679
SWIDTH 600 0
DWIDTH 6 0
BBX 7 9 0 -2
BITMAP
00A01CA0
02807800
1FFFF300
0830C000
0B01B000
0C158000
0CC85000
001C2000
00E90000
ENDCHAR
STARTCHAR h.sups
ENCODING 688
SWIDTH 600 0
DWIDTH 6 0
BBX 4 6 2 3
BITMAP
1200
5400
89D0
A382
9090
6070
ENDCHAR
STARTCHAR j.sups
ENCODING 690
SWIDTH 600 0
DWIDTH 6 0
BBX 4 7 1 2
BITMAP
0019
0000
0AF5
0062
0090
11A0
7E50
ENDCHAR
STARTCHAR r.sups
ENCODING 691
SWIDTH 600 0
DWIDTH 6 0
BBX 4 4 2 3
BITMAP
1BE5
3B10
6300
6100
ENDCHAR
STARTCHAR w.sups
ENCODING 695
SWIDTH 600 0
DWIDTH 6 0
BBX 5 3 1 4
BITMAP
72B190
6A7A30
4A4B00
ENDCHAR
STARTCHAR y.sups
ENCODING 696
SWIDTH 600 0
DWIDTH 6 0
BBX 5 5 1 2
BITMAP
090720
073800
04C100
068000
8C0000
ENDCHAR
STARTCHAR uni02B9
ENCODING 697
SWIDTH 600 0
DWIDTH 6 0
BBX 2 3 3 4
BITMAP
73
A0
80
ENDCHAR
STARTCHAR uni02BB
ENCODING 699
SWIDTH 600 0
DWIDTH 6 0
BBX 3 3 2 4
BITMAP
06A0
4B20
4D10
ENDCHAR
STARTCHAR uni02BC
ENCODING 700
SWIDTH 600 0
DWIDTH 6 0
BBX 3 4 2 3
BITMAP
0D40
1E60
2B20
9400
ENDCHAR
STARTCHAR uni02BE
ENCODING 702
SWIDTH 600 0
DWIDTH 6 0
BBX 3 4 2 5
BITMAP
0D20
0380
0650
3300
ENDCHAR
STARTCHAR uni02BF
ENCODING 703
SWIDTH 600 0
DWIDTH 6 0
BBX 3 4 2 5
BITMAP
0150
0A20
1A00
0970
ENDCHAR
STARTCHAR uni02C1
ENCODING 705
SWIDTH 600 0
DWIDTH 6 0
BBX 4 5 2 4
BITMAP
1BC1
6422
6400
0A00
0400
ENDCHAR
STARTCHAR circumflex
ENCODING 710
SWIDTH 600 0
DWIDTH 6 0
BBX 3 2 2 6
BITMAP
2C70
8180
ENDCHAR
STARTCHAR caron
ENCODING 711
SWIDTH 600 0
DWIDTH 6 0
BBX 4 2 2 6
BITMAP
7172
2D60
ENDCHAR
STARTCHAR uni02C8
ENCODING 712
SWIDTH 600 0
DWIDTH 6 0
BBX 2 4 3 3
BITMAP
B3
B0
90
10
ENDCHAR
STARTCHAR uni02C9
ENCODING 713
SWIDTH 600 0
DWIDTH 6 0
BBX 3 1 2 6
BITMAP
AFE0
ENDCHAR
STARTCHAR uni02CA
ENCODING 714
SWIDTH 600 0
DWIDTH 6 0
BBX 2 2 3 6
BITMAP
2A
92
ENDCHAR
STARTCHAR uni02CB
ENCODING 715
SWIDTH 600 0
DWIDTH 6 0
BBX 3 2 2 6
BITMAP
3800
0820
ENDCHAR
STARTCHAR uni02CC
ENCODING 716
SWIDTH 600 0
DWIDTH 6 0
BBX 2 3 1 -2
BITMAP
09
29
77
ENDCHAR
STARTCHAR uni02D0
ENCODING 720
SWIDTH 600 0
DWIDTH 6 0
BBX 3 5 1 0
BITMAP
0490
0000
0000
0000
1B10
ENDCHAR
STARTCHAR uni02D1
ENCODING 721
SWIDTH 600 0
DWIDTH 6 0
BBX 2 1 2 4
BITMAP
49
ENDCHAR
STARTCHAR breve
ENCODING 728
SWIDTH 600 0
DWIDTH 6 0
BBX 4 2 2 5
BITMAP
9173
6E90
ENDCHAR
STARTCHAR dotaccent
ENCODING 729
SWIDTH 600 0
DWIDTH 6 0
BBX 2 1 3 6
BITMAP
B2
ENDCHAR
STARTCHAR ring
ENCODING 730
SWIDTH 600 0
DWIDTH 6 0
BBX 3 3 2 5
BITMAP
1D80
5590
3E50
ENDCHAR
STARTCHAR ogonek
ENCODING 731
SWIDTH 600 0
DWIDTH 6 0
BBX 2 2 1 -2
BITMAP
43
AC
ENDCHAR
STARTCHAR tilde
ENCODING 732
SWIDTH 600 0
DWIDTH 6 0
BBX 4 2 2 6
BITMAP
7935
84D2
ENDCHAR
STARTCHAR hungarumlaut
ENCODING 733
SWIDTH 600 0
DWIDTH 6 0
BBX 4 2 2 6
BITMAP
0838
2681
ENDCHAR
STARTCHAR uni02DE
ENCODING 734
SWIDTH 600 0
DWIDTH 6 0
BBX 3 3 2 2
BITMAP
0100
8900
0A50
ENDCHAR
STARTCHAR uni02E0
ENCODING 736
SWIDTH 600 0
DWIDTH 6 0
BBX 4 5 2 2
BITMAP
8063
7280
3C10
4700
9900
ENDCHAR
STARTCHAR l.sups
ENCODING 737
SWIDTH 600 0
DWIDTH 6 0
BBX 2 5 3 4
BITMAP
F4
61
70
80
D8
ENDCHAR
STARTCHAR s.sups
ENCODING 738
SWIDTH 600 0
DWIDTH 6 0
BBX 3 3 2 4
BITMAP
6E80
5240
8E70
ENDCHAR
STARTCHAR x.sups
ENCODING 739
SWIDTH 600 0
DWIDTH 6 0
BBX 4 4 1 3
BITMAP
0559
01E1
0964
1102
ENDCHAR
STARTCHAR uni02E4
ENCODING 740
SWIDTH 600 0
DWIDTH 6 0
BBX 4 6 2 3
BITMAP
1BC1
6422
6400
0A00
0900
0200
ENDCHAR
STARTCHAR uni0300
ENCODING 768
SWIDTH 600 0
DWIDTH 6 0
BBX 3 2 2 6
BITMAP
3800
0820
ENDCHAR
STARTCHAR uni0301
ENCODING 769
SWIDTH 600 0
DWIDTH 6 0
BBX 2 2 3 6
BITMAP
2A
92
ENDCHAR
STARTCHAR uni0302
ENCODING 770
SWIDTH 600 0
DWIDTH 6 0
BBX 3 2 2 6
BITMAP
2C70
8180
ENDCHAR
STARTCHAR uni0303
ENCODING 771
SWIDTH 600 0
DWIDTH 6 0
BBX 4 2 2 6
BITMAP
7935
84D2
ENDCHAR
STARTCHAR uni0304
ENCODING 772
SWIDTH 600 0
DWIDTH 6 0
BBX 3 1 2 6
BITMAP
AFE0
ENDCHAR
STARTCHAR uni0305
ENCODING 773
SWIDTH 600 0
DWIDTH 6 0
BBX 3 1 2 6
BITMAP
AFE0
ENDCHAR
STARTCHAR uni0306
ENCODING 774
SWIDTH 600 0
DWIDTH 6 0
BBX 4 2 2 5
BITMAP
9173
6E90
ENDCHAR
STARTCHAR uni0307
ENCODING 775
SWIDTH 600 0
DWIDTH 6 0
BBX 2 1 3 6
BITMAP
B2
ENDCHAR
STARTCHAR uni0308
ENCODING 776
SWIDTH 600 0
DWIDTH 6 0
BBX 3 1 2 6
BITMAP
92A0
ENDCHAR
STARTCHAR uni0309
ENCODING 777
SWIDTH 600 0
DWIDTH 6 0
BBX 2 3 3 5
BITMAP
C4
57
A2
ENDCHAR
STARTCHAR uni030A
ENCODING 778
SWIDTH 600 0
DWIDTH 6 0
BBX 3 3 2 5
BITMAP
1D80
5590
3E50
ENDCHAR
STARTCHAR uni030B
ENCODING 779
SWIDTH 600 0
DWIDTH 6 0
BBX 4 2 2 6
BITMAP
0838
2681
ENDCHAR
STARTCHAR uni030C
ENCODING 780
SWIDTH 600 0
DWIDTH 6 0
BBX 4 2 2 6
BITMAP
7172
2D60
ENDCHAR
STARTCHAR uni030F
ENCODING 783
SWIDTH 600 0
DWIDTH 6 0
BBX 4 2 1 6
BITMAP
2781
0844
ENDCHAR
STARTCHAR uni0310
ENCODING 784
SWIDTH 600 0
DWIDTH 6 0
BBX 4 3 2 5
BITMAP
0640
9264
6E90
ENDCHAR
STARTCHAR uni0311
ENCODING 785
SWIDTH 600 0
DWIDTH 6 0
BBX 4 2 2 5
BITMAP
4EA0
A191
ENDCHAR
STARTCHAR uni0312
ENCODING 786
SWIDTH 600 0
DWIDTH 6 0
BBX 2 2 3 5
BITMAP
71
C0
ENDCHAR
STARTCHAR uni0313
ENCODING 787
SWIDTH 600 0
DWIDTH 6 0
BBX 2 2 3 5
BITMAP
93
71
ENDCHAR
STARTCHAR uni0318
ENCODING 792
SWIDTH 600 0
DWIDTH 6 0
BBX 2 3 1 -3
BITMAP
05
AE
05
ENDCHAR
STARTCHAR uni0319
ENCODING 793
SWIDTH 600 0
DWIDTH 6 0
BBX 2 3 1 -3
BITMAP
50
BC
50
ENDCHAR
STARTCHAR uni031A
ENCODING 794
SWIDTH 600 0
DWIDTH 6 0
BBX 2 2 3 5
BITMAP
9F
06
ENDCHAR
STARTCHAR uni031B
ENCODING 795
SWIDTH 600 0
DWIDTH 6 0
BBX 2 3 3 4
BITMAP
08
1B
A5
ENDCHAR
STARTCHAR uni031C
ENCODING 796
SWIDTH 600 0
DWIDTH 6 0
BBX 2 3 1 -3
BITMAP
4A
91
66
ENDCHAR
STARTCHAR uni031D
ENCODING 797
SWIDTH 600 0
DWIDTH 6 0
BBX 2 2 1 -2
BITMAP
16
EE
ENDCHAR
STARTCHAR uni031E
ENCODING 798
SWIDTH 600 0
DWIDTH 6 0
BBX 3 2 1 -3
BITMAP
CF10
4400
ENDCHAR
STARTCHAR uni031F
ENCODING 799
SWIDTH 600 0
DWIDTH 6 0
BBX 2 3 1 -3
BITMAP
15
DF
32
ENDCHAR
STARTCHAR uni0320
ENCODING 800
SWIDTH 600 0
DWIDTH 6 0
BBX 2 1 1 -2
BITMAP
DF
ENDCHAR
STARTCHAR uni0323
ENCODING 803
SWIDTH 600 0
DWIDTH 6 0
BBX 2 1 1 -2
BITMAP
68
ENDCHAR
STARTCHAR uni0324
ENCODING 804
SWIDTH 600 0
DWIDTH 6 0
BBX 4 1 0 -2
BITMAP
3856
ENDCHAR
STARTCHAR uni0325
ENCODING 805
SWIDTH 600 0
DWIDTH 6 0
BBX 3 3 1 -3
BITMAP
9D00
A810
BA00
ENDCHAR
STARTCHAR uni0326
ENCODING 806
SWIDTH 600 0
DWIDTH 6 0
BBX 2 3 1 -3
BITMAP
49
1B
D5
ENDCHAR
STARTCHAR uni0327
ENCODING 807
SWIDTH 600 0
DWIDTH 6 0
BBX 2 4 1 -4
BITMAP
07
5A
1B
D4
ENDCHAR
STARTCHAR uni0328
ENCODING 808
SWIDTH 600 0
DWIDTH 6 0
BBX 2 2 1 -2
BITMAP
43
AC
ENDCHAR
STARTCHAR uni0329
ENCODING 809
SWIDTH 600 0
DWIDTH 6 0
BBX 2 2 1 -3
BITMAP
26
54
ENDCHAR
STARTCHAR uni032A
ENCODING 810
SWIDTH 600 0
DWIDTH 6 0
BBX 4 2 0 -3
BITMAP
1FF5
3433
ENDCHAR
STARTCHAR uni032C
ENCODING 812
SWIDTH 600 0
DWIDTH 6 0
BBX 4 2 0 -2
BITMAP
2727
0AB1
ENDCHAR
STARTCHAR uni032E
ENCODING 814
SWIDTH 600 0
DWIDTH 6 0
BBX 4 2 0 -3
BITMAP
4629
1CD2
ENDCHAR
STARTCHAR uni032F
ENCODING 815
SWIDTH 600 0
DWIDTH 6 0
BBX 4 2 0 -3
BITMAP
1BE3
6537
ENDCHAR
STARTCHAR uni0330
ENCODING 816
SWIDTH 600 0
DWIDTH 6 0
BBX 4 2 0 -2
BITMAP
2A48
71C8
ENDCHAR
STARTCHAR uni0331
ENCODING 817
SWIDTH 600 0
DWIDTH 6 0
BBX 4 1 0 -2
BITMAP
3FF5
ENDCHAR
STARTCHAR uni0334
ENCODING 820
SWIDTH 600 0
DWIDTH 6 0
BBX 4 3 1 2
BITMAP
1202
AD39
82D4
ENDCHAR
STARTCHAR uni0339
ENCODING 825
SWIDTH 600 0
DWIDTH 6 0
BBX 2 3 1 -3
BITMAP
48
19
85
ENDCHAR
STARTCHAR uni033A
ENCODING 826
SWIDTH 600 0
DWIDTH 6 0
BBX 4 2 0 -3
BITMAP
0625
2FF3
ENDCHAR
STARTCHAR uni033B
ENCODING 827
SWIDTH 600 0
DWIDTH 6 0
BBX 4 3 0 -3
BITMAP
0FF6
2534
3FF2
ENDCHAR
STARTCHAR uni033C
ENCODING 828
SWIDTH 600 0
DWIDTH 6 0
BBX 4 2 0 -2
BITMAP
4DA8
7558
ENDCHAR
STARTCHAR uni033D
ENCODING 829
SWIDTH 600 0
DWIDTH 6 0
BBX 3 2 2 5
BITMAP
0A40
1620
ENDCHAR
STARTCHAR uni0342
ENCODING 834
SWIDTH 600 0
DWIDTH 6 0
BBX 4 2 2 6
BITMAP
7935
84D2
ENDCHAR
STARTCHAR uni0345
ENCODING 837
SWIDTH 600 0
DWIDTH 6 0
BBX 2 1 1 -2
BITMAP
1D
ENDCHAR
STARTCHAR uni035F
ENCODING 863
SWIDTH 600 0
DWIDTH 6 0
BBX 10 1 -3 -2
BITMAP
CFFFFFFFFF
ENDCHAR
STARTCHAR uni0361
ENCODING 865
SWIDTH 600 0
DWIDTH 6 0
BBX 9 2 -1 6
BITMAP
039DFEC710
78421136A0
ENDCHAR
STARTCHAR pi
ENCODING 960
SWIDTH 600 0
DWIDTH 6 0
BBX 6 5 0 0
BITMAP
4FFFFD
0730A0
0A0280
0B0640
4705D0
ENDCHAR
STARTCHAR a.sups
ENCODING 7491
SWIDTH 600 0
DWIDTH 6 0
BBX 4 3 1 4
BITMAP
08EA
2918
1E94
ENDCHAR
STARTCHAR b.sups
ENCODING 7495
SWIDTH 600 0
DWIDTH 6 0
BBX 5 4 1 4
BITMAP
053000
0ABD10
0A1A10
18E700
ENDCHAR
STARTCHAR d.sups
ENCODING 7496
SWIDTH 600 0
DWIDTH 6 0
BBX 5 4 1 4
BITMAP
000440
09EA00
391900
1E9400
ENDCHAR
STARTCHAR e.sups
ENCODING 7497
SWIDTH 600 0
DWIDTH 6 0
BBX 3 3 2 4
BITMAP
6EA0
FFF0
BE40
ENDCHAR
STARTCHAR g.sups
ENCODING 7501
SWIDTH 600 0
DWIDTH 6 0
BBX 5 5 1 2
BITMAP
08EB10
2A2A00
1DBA00
216700
3EC200
ENDCHAR
STARTCHAR k.sups
ENCODING 7503
SWIDTH 600 0
DWIDTH 6 0
BBX 4 6 2 3
BITMAP
1300
4500
7372
AA40
A1A0
2020
ENDCHAR
STARTCHAR m.sups
ENCODING 7504
SWIDTH 600 0
DWIDTH 6 0
BBX 5 4 1 3
BITMAP
89CC80
92A290
909080
616240
ENDCHAR
STARTCHAR o.sups
ENCODING 7506
SWIDTH 600 0
DWIDTH 6 0
BBX 4 3 1 4
BITMAP
08EB
1A1B
1CE6
ENDCHAR
STARTCHAR p.sups
ENCODING 7510
SWIDTH 600 0
DWIDTH 6 0
BBX 5 4 1 3
BITMAP
09AE10
0A1920
1BE800
440000
ENDCHAR
STARTCHAR t.sups
ENCODING 7511
SWIDTH 600 0
DWIDTH 6 0
BBX 4 5 2 4
BITMAP
0100
0800
BFF2
1710
3E80
ENDCHAR
STARTCHAR u.sups
ENCODING 7512
SWIDTH 600 0
DWIDTH 6 0
BBX 5 3 1 4
BITMAP
080910
092B00
1EC800
ENDCHAR
STARTCHAR v.sups
ENCODING 7515
SWIDTH 600 0
DWIDTH 6 0
BBX 4 3 2 4
BITMAP
90A1
8850
5B00
ENDCHAR
STARTCHAR c.sups
ENCODING 7580
SWIDTH 600 0
DWIDTH 6 0
BBX 3 3 2 4
BITMAP
5DB0
B240
AE40
ENDCHAR
STARTCHAR f.sups
ENCODING 7584
SWIDTH 600 0
DWIDTH 6 0
BBX 4 6 2 3
BITMAP
02D8
0831
7FF3
0900
0800
2400
ENDCHAR
STARTCHAR z.sups
ENCODING 7611
SWIDTH 600 0
DWIDTH 6 0
BBX 4 3 1 4
BITMAP
0AFA
0020
1BFA
ENDCHAR
STARTCHAR uni1E06
ENCODING 7686
SWIDTH 600 0
DWIDTH 6 0
BBX 6 9 0 -2
BITMAP
05FFC2
084086
0B56A2
0DAB80
2900A2
5602C1
8FFD50
000000
1FF800
ENDCHAR
STARTCHAR uni1E07
ENCODING 7687
SWIDTH 600 0
DWIDTH 6 0
BBX 6 9 0 -2
BITMAP
057000
083000
0B9EB1
0D51A5
290084
5A14C1
89EC30
000000
0FF800
ENDCHAR
STARTCHAR uni1E0C
ENCODING 7692
SWIDTH 600 0
DWIDTH 6 0
BBX 6 9 0 -2
BITMAP
08FD80
0B12B5
0C0048
2A0057
570094
8317B0
AFE910
000000
076000
ENDCHAR
STARTCHAR uni1E0D
ENCODING 7693
SWIDTH 600 0
DWIDTH 6 0
BBX 6 9 0 -2
BITMAP
00000C
00001A
03DEA7
1C41B4
6600B1
6816D0
1CE8A0
000000
04A000
ENDCHAR
STARTCHAR uni1E0E
ENCODING 7694
SWIDTH 600 0
DWIDTH 6 0
BBX 6 9 0 -2
BITMAP
08FD80
0B12B5
0C0048
2A0057
570094
8317B0
AFE910
000000
4FF400
ENDCHAR
STARTCHAR uni1E0F
ENCODING 7695
SWIDTH 600 0
DWIDTH 6 0
BBX 6 9 0 -2
BITMAP
00000C
00001A
03DEA7
1C41B4
6600B1
6816D0
1CE8A0
000000
1FF800
ENDCHAR
STARTCHAR uni1E10
ENCODING 7696
SWIDTH 600 0
DWIDTH 6 0
BBX 6 11 0 -4
BITMAP
08FD80
0B12B5
0C0048
2A0057
570094
8317B0
AFE910
025000
078000
039000
2D3000
ENDCHAR
STARTCHAR uni1E11
ENCODING 7697
SWIDTH 600 0
DWIDTH 6 0
BBX 6 11 0 -4
BITMAP
00000C
00001A
03DEA7
1C41B4
6600B1
6816D0
1CE8A0
016000
059000
02A000
0D4000
ENDCHAR
STARTCHAR uni1E16
ENCODING 7702
SWIDTH 600 0
DWIDTH 6 0
BBX 6 10 0 0
BITMAP
000054
000000
001FF8
03FFFD
057000
083000
0BFFC0
0C0000
290000
5FFFC0
ENDCHAR
STARTCHAR uni1E17
ENCODING 7703
SWIDTH 600 0
DWIDTH 6 0
BBX 6 9 0 0
BITMAP
000260
000000
008FF0
000000
03CE90
1C31A2
4FFFF3
491250
0AEC30
ENDCHAR
STARTCHAR uni1E20
ENCODING 7712
SWIDTH 600 0
DWIDTH 6 0
BBX 6 8 0 0
BITMAP
002FF6
007ED2
08A135
1C0000
480AF5
570083
2C21B0
07EE70
ENDCHAR
STARTCHAR uni1E21
ENCODING 7713
SWIDTH 600 0
DWIDTH 6 0
BBX 6 9 0 -2
BITMAP
007FF1
000000
04CE96
1C31B3
5600B1
6A38C0
1AC790
412950
5EE900
ENDCHAR
STARTCHAR uni1E24
ENCODING 7716
SWIDTH 600 0
DWIDTH 6 0
BBX 6 9 0 -2
BITMAP
09300B
0B0039
0B0056
2FFFF3
5700A1
8400B0
B101A0
000000
068000
ENDCHAR
STARTCHAR uni1E25
ENCODING 7717
SWIDTH 600 0
DWIDTH 6 0
BBX 6 9 0 -2
BITMAP
057000
083000
0B6DD2
0E8194
2A0092
5700B0
8301A0
000000
03B000
ENDCHAR
STARTCHAR uni1E26
ENCODING 7718
SWIDTH 600 0
DWIDTH 6 0
BBX 6 8 0 0
BITMAP
005573
09300B
0B0039
0B0056
2FFFF3
5700A1
8400B0
B101A0
ENDCHAR
STARTCHAR uni1E27
ENCODING 7719
SWIDTH 600 0
DWIDTH 6 0
BBX 6 9 0 0
BITMAP
0A1900
000000
057000
083000
0B6DD2
0E8194
2A0092
5700B0
8301A0
ENDCHAR
STARTCHAR uni1E28
ENCODING 7720
SWIDTH 600 0
DWIDTH 6 0
BBX 7 11 -1 -4
BITMAP
009300B0
00B00390
00B00560
02FFFF30
05700A10
08400B00
0B101A00
07000000
2D000000
1B000000
A7000000
ENDCHAR
STARTCHAR uni1E29
ENCODING 7721
SWIDTH 600 0
DWIDTH 6 0
BBX 7 11 -1 -4
BITMAP
00570000
00830000
00B6DD20
00E81940
02A00920
05700B00
08301A00
07000000
0D100000
09200000
89000000
ENDCHAR
STARTCHAR uni1E2A
ENCODING 7722
SWIDTH 600 0
DWIDTH 6 0
BBX 6 10 0 -3
BITMAP
09300B
0B0039
0B0056
2FFFF3
5700A1
8400B0
B101A0
000000
462900
1CD200
ENDCHAR
STARTCHAR uni1E2B
ENCODING 7723
SWIDTH 600 0
DWIDTH 6 0
BBX 6 10 0 -3
BITMAP
057000
083000
0B6DD2
0E8194
2A0092
5700B0
8301A0
000000
191A00
0AE400
ENDCHAR
STARTCHAR uni1E32
ENCODING 7730
SWIDTH 600 0
DWIDTH 6 0
BBX 6 9 0 -2
BITMAP
05603A
0833A0
0B3A00
0DBB00
2C1A20
470480
7400C1
000000
00C200
ENDCHAR
STARTCHAR uni1E33
ENCODING 7731
SWIDTH 600 0
DWIDTH 6 0
BBX 6 9 0 -2
BITMAP
039000
066000
093095
0B1A40
0DBB00
3C1740
6501B0
000000
00C100
ENDCHAR
STARTCHAR uni1E34
ENCODING 7732
SWIDTH 600 0
DWIDTH 6 0
BBX 6 9 0 -2
BITMAP
05603A
0833A0
0B3A00
0DBB00
2C1A20
470480
7400C1
000000
0AFD00
ENDCHAR
STARTCHAR uni1E35
ENCODING 7733
SWIDTH 600 0
DWIDTH 6 0
BBX 6 9 0 -2
BITMAP
039000
066000
093095
0B1A40
0DBB00
3C1740
6501B0
000000
0BFC00
ENDCHAR
STARTCHAR uni1E36
ENCODING 7734
SWIDTH 600 0
DWIDTH 6 0
BBX 5 9 1 -2
BITMAP
0B0000
0B0000
390000
560000
830000
B00000
EFFF10
000000
0A4000
ENDCHAR
STARTCHAR uni1E37
ENCODING 7735
SWIDTH 600 0
DWIDTH 6 0
BBX 4 9 1 -2
BITMAP
8FC0
0180
0550
0810
0A00
0C11
0BE6
0000
0760
ENDCHAR
STARTCHAR uni1E38
ENCODING 7736
SWIDTH 600 0
DWIDTH 6 0
BBX 5 10 1 -2
BITMAP
5FF300
0B0000
0B0000
390000
560000
830000
B00000
EFFF10
000000
0A4000
ENDCHAR
STARTCHAR uni1E39
ENCODING 7737
SWIDTH 600 0
DWIDTH 6 0
BBX 4 11 1 -2
BITMAP
09FE
0000
8FC0
0180
0550
0810
0A00
0C11
0BE6
0000
0760
ENDCHAR
STARTCHAR uni1E3A
ENCODING 7738
SWIDTH 600 0
DWIDTH 6 0
BBX 5 9 1 -2
BITMAP
0B0000
0B0000
390000
560000
830000
B00000
EFFF10
000000
7FF100
ENDCHAR
STARTCHAR uni1E3B
ENCODING 7739
SWIDTH 600 0
DWIDTH 6 0
BBX 4 9 1 -2
BITMAP
8FC0
0180
0550
0810
0A00
0C11
0BE6
0000
5FF4
ENDCHAR
STARTCHAR uni1E3E
ENCODING 7742
SWIDTH 600 0
DWIDTH 6 0
BBX 6 9 0 0
BITMAP
000092
000750
0A705C
0A90A9
0A9596
389A74
65A5A1
9210B0
B001A0
ENDCHAR
STARTCHAR uni1E3F
ENCODING 7743
SWIDTH 600 0
DWIDTH 6 0
BBX 6 8 0 0
BITMAP
0001A1
000930
000000
2BD9D8
5B4C49
845656
B19283
C0B0B0
ENDCHAR
STARTCHAR uni1E40
ENCODING 7744
SWIDTH 600 0
DWIDTH 6 0
BBX 6 8 0 0
BITMAP
000740
0A705C
0A90A9
0A9596
389A74
65A5A1
9210B0
B001A0
ENDCHAR
STARTCHAR uni1E41
ENCODING 7745
SWIDTH 600 0
DWIDTH 6 0
BBX 6 7 0 0
BITMAP
000A40
000000
2BD9D8
5B4C49
845656
B19283
C0B0B0
ENDCHAR
STARTCHAR uni1E42
ENCODING 7746
SWIDTH 600 0
DWIDTH 6 0
BBX 6 9 0 -2
BITMAP
0A705C
0A90A9
0A9596
389A74
65A5A1
9210B0
B001A0
000000
068000
ENDCHAR
STARTCHAR uni1E43
ENCODING 7747
SWIDTH 600 0
DWIDTH 6 0
BBX 6 7 0 -2
BITMAP
2BD9D8
5B4C49
845656
B19283
C0B0B0
000000
049000
ENDCHAR
STARTCHAR uni1E44
ENCODING 7748
SWIDTH 600 0
DWIDTH 6 0
BBX 6 8 0 0
BITMAP
000740
08700B
0AA038
0B9156
1A4683
471AA0
740AA0
A10690
ENDCHAR
STARTCHAR uni1E45
ENCODING 7749
SWIDTH 600 0
DWIDTH 6 0
BBX 6 7 0 0
BITMAP
000A40
000000
0A6DD2
0E8194
2A0092
5700B0
8301A0
ENDCHAR
STARTCHAR uni1E46
ENCODING 7750
SWIDTH 600 0
DWIDTH 6 0
BBX 6 9 0 -2
BITMAP
08700B
0AA038
0B9156
1A4683
471AA0
740AA0
A10690
000000
04A000
ENDCHAR
STARTCHAR uni1E47
ENCODING 7751
SWIDTH 600 0
DWIDTH 6 0
BBX 6 7 0 -2
BITMAP
0A6DD2
0E8194
2A0092
5700B0
8301A0
000000
03B000
ENDCHAR
STARTCHAR uni1E48
ENCODING 7752
SWIDTH 600 0
DWIDTH 6 0
BBX 6 9 0 -2
BITMAP
08700B
0AA038
0B9156
1A4683
471AA0
740AA0
A10690
000000
1FF800
ENDCHAR
STARTCHAR uni1E49
ENCODING 7753
SWIDTH 600 0
DWIDTH 6 0
BBX 6 7 0 -2
BITMAP
0A6DD2
0E8194
2A0092
5700B0
8301A0
000000
0FF800
ENDCHAR
STARTCHAR uni1E52
ENCODING 7762
SWIDTH 600 0
DWIDTH 6 0
BBX 6 10 0 0
BITMAP
000171
000000
006FF3
01BEB1
0B6187
490029
750038
840085
6915C0
0AEC20
ENDCHAR
STARTCHAR uni1E53
ENCODING 7763
SWIDTH 600 0
DWIDTH 6 0
BBX 6 9 0 0
BITMAP
000260
000000
00AFE0
000000
04DE80
2C31B3
750093
7814C0
1BEB20
ENDCHAR
STARTCHAR uni1E58
ENCODING 7768
SWIDTH 600 0
DWIDTH 6 0
BBX 6 8 0 0
BITMAP
000740
07FFC2
093077
0B01A4
0FFE70
391B00
660A30
830580
ENDCHAR
STARTCHAR uni1E59
ENCODING 7769
SWIDTH 600 0
DWIDTH 6 0
BBX 5 7 1 0
BITMAP
006800
000000
289E60
5D5110
850000
B10000
C00000
ENDCHAR
STARTCHAR uni1E5A
ENCODING 7770
SWIDTH 600 0
DWIDTH 6 0
BBX 6 9 0 -2
BITMAP
07FFC2
093077
0B01A4
0FFE70
391B00
660A30
830580
000000
02B000
ENDCHAR
STARTCHAR uni1E5B
ENCODING 7771
SWIDTH 600 0
DWIDTH 6 0
BBX 6 7 0 -2
BITMAP
0289E6
05D511
085000
0B1000
0C0000
000000
580000
ENDCHAR
STARTCHAR uni1E5C
ENCODING 7772
SWIDTH 600 0
DWIDTH 6 0
BBX 6 10 0 -2
BITMAP
006FF2
07FFC2
093077
0B01A4
0FFE70
391B00
660A30
830580
000000
02B000
ENDCHAR
STARTCHAR uni1E5D
ENCODING 7773
SWIDTH 600 0
DWIDTH 6 0
BBX 6 9 0 -2
BITMAP
004FF4
000000
0289E6
05D511
085000
0B1000
0C0000
000000
580000
ENDCHAR
STARTCHAR uni1E5E
ENCODING 7774
SWIDTH 600 0
DWIDTH 6 0
BBX 6 9 0 -2
BITMAP
07FFC2
093077
0B01A4
0FFE70
391B00
660A30
830580
000000
0EF900
ENDCHAR
STARTCHAR uni1E5F
ENCODING 7775
SWIDTH 600 0
DWIDTH 6 0
BBX 7 7 -1 -2
BITMAP
00289E60
005D5110
00850000
00B10000
00C00000
00000000
3FF60000
ENDCHAR
STARTCHAR uni1E60
ENCODING 7776
SWIDTH 600 0
DWIDTH 6 0
BBX 6 8 0 0
BITMAP
000930
01BE90
087172
069000
007C20
0003B0
5614B0
0AEC30
ENDCHAR
STARTCHAR uni1E61
ENCODING 7777
SWIDTH 600 0
DWIDTH 6 0
BBX 5 7 0 0
BITMAP
000B20
000000
05DE60
0A3270
029A20
3613A0
08ED50
ENDCHAR
STARTCHAR uni1E62
ENCODING 7778
SWIDTH 600 0
DWIDTH 6 0
BBX 6 9 0 -2
BITMAP
01BE90
087172
069000
007C20
0003B0
5614B0
0AEC30
000000
02B000
ENDCHAR
STARTCHAR uni1E63
ENCODING 7779
SWIDTH 600 0
DWIDTH 6 0
BBX 5 7 0 -2
BITMAP
05DE60
0A3270
029A20
3613A0
08ED50
000000
02B000
ENDCHAR
STARTCHAR uni1E6C
ENCODING 7788
SWIDTH 600 0
DWIDTH 6 0
BBX 6 9 1 -2
BITMAP
EFFFF3
00C000
02A000
057000
084000
0B1000
0C0000
000000
680000
ENDCHAR
STARTCHAR uni1E6D
ENCODING 7789
SWIDTH 600 0
DWIDTH 6 0
BBX 6 9 0 -2
BITMAP
006400
009200
3EFFF6
00B000
038000
068120
02DE60
000000
00A400
ENDCHAR
STARTCHAR uni1E6E
ENCODING 7790
SWIDTH 600 0
DWIDTH 6 0
BBX 7 9 0 -2
BITMAP
0EFFFF30
000C0000
002A0000
00570000
00840000
00B10000
00C00000
00000000
3FF50000
ENDCHAR
STARTCHAR uni1E6F
ENCODING 7791
SWIDTH 600 0
DWIDTH 6 0
BBX 6 9 0 -2
BITMAP
006400
009200
3EFFF6
00B000
038000
068120
02DE60
000000
07FF10
ENDCHAR
STARTCHAR uni1E7E
ENCODING 7806
SWIDTH 600 0
DWIDTH 6 0
BBX 6 9 1 -2
BITMAP
B100B1
A20480
830A10
743800
56A100
498000
3E1000
000000
680000
ENDCHAR
STARTCHAR uni1E7F
ENCODING 7807
SWIDTH 600 0
DWIDTH 6 0
BBX 6 7 0 -2
BITMAP
1B0048
0B00B1
092650
056A00
02E300
000000
059000
ENDCHAR
STARTCHAR Wgrave
ENCODING 7808
SWIDTH 600 0
DWIDTH 6 0
BBX 7 9 0 0
BITMAP
00280000
00073000
1A000740
29000A00
384A1A00
47884600
57899200
6B29A000
6B098000
ENDCHAR
STARTCHAR wgrave
ENCODING 7809
SWIDTH 600 0
DWIDTH 6 0
BBX 7 8 0 0
BITMAP
00470000
00091000
00000000
83380A10
83892900
75898300
7A39A000
7B0B6000
ENDCHAR
STARTCHAR Wacute
ENCODING 7810
SWIDTH 600 0
DWIDTH 6 0
BBX 7 9 0 0
BITMAP
0000A100
00075000
1A000740
29000A00
384A1A00
47884600
57899200
6B29A000
6B098000
ENDCHAR
STARTCHAR wacute
ENCODING 7811
SWIDTH 600 0
DWIDTH 6 0
BBX 7 8 0 0
BITMAP
00029000
000A1000
00000000
83380A10
83892900
75898300
7A39A000
7B0B6000
ENDCHAR
STARTCHAR Wdieresis
ENCODING 7812
SWIDTH 600 0
DWIDTH 6 0
BBX 7 8 0 0
BITMAP
00647200
1A000740
29000A00
384A1A00
47884600
57899200
6B29A000
6B098000
ENDCHAR
STARTCHAR wdieresis
ENCODING 7813
SWIDTH 600 0
DWIDTH 6 0
BBX 7 7 0 0
BITMAP
00A1B000
00000000
83380A10
83892900
75898300
7A39A000
7B0B6000
ENDCHAR
STARTCHAR uni1E8E
ENCODING 7822
SWIDTH 600 0
DWIDTH 6 0
BBX 6 8 1 0
BITMAP
009300
B100B1
750850
393B00
0CB200
0A7000
0A1000
0C0000
ENDCHAR
STARTCHAR uni1E8F
ENCODING 7823
SWIDTH 600 0
DWIDTH 6 0
BBX 7 9 -1 -2
BITMAP
0000C200
00000000
00B00480
00B00B10
00837400
00579000
001E2000
00570000
4E900000
ENDCHAR
STARTCHAR uni1E90
ENCODING 7824
SWIDTH 600 0
DWIDTH 6 0
BBX 6 8 0 0
BITMAP
004780
0AFFFC
0000A3
000950
007700
059000
3A0000
BFFFE0
ENDCHAR
STARTCHAR uni1E91
ENCODING 7825
SWIDTH 600 0
DWIDTH 6 0
BBX 6 8 0 0
BITMAP
002C70
008180
000000
0CFFF4
000670
008500
193000
9FFFA0
ENDCHAR
STARTCHAR uni1E92
ENCODING 7826
SWIDTH 600 0
DWIDTH 6 0
BBX 6 9 0 -2
BITMAP
0AFFFC
0000A3
000950
007700
059000
3A0000
BFFFE0
000000
02C000
ENDCHAR
STARTCHAR uni1E93
ENCODING 7827
SWIDTH 600 0
DWIDTH 6 0
BBX 6 7 0 -2
BITMAP
0CFFF4
000670
008500
193000
9FFFA0
000000
02B000
ENDCHAR
STARTCHAR uni1E94
ENCODING 7828
SWIDTH 600 0
DWIDTH 6 0
BBX 6 9 0 -2
BITMAP
0AFFFC
0000A3
000950
007700
059000
3A0000
BFFFE0
000000
0DFA00
ENDCHAR
STARTCHAR uni1E95
ENCODING 7829
SWIDTH 600 0
DWIDTH 6 0
BBX 6 7 0 -2
BITMAP
0CFFF4
000670
008500
193000
9FFFA0
000000
0EF900
ENDCHAR
STARTCHAR uni1E96
ENCODING 7830
SWIDTH 600 0
DWIDTH 6 0
BBX 6 9 0 -2
BITMAP
057000
083000
0B6DD2
0E8194
2A0092
5700B0
8301A0
000000
0FF800
ENDCHAR
STARTCHAR uni1E97
ENCODING 7831
SWIDTH 600 0
DWIDTH 6 0
BBX 6 8 0 0
BITMAP
01A380
006400
009200
3EFFF6
00B000
038000
068120
02DE60
ENDCHAR
STARTCHAR uni1E9E
ENCODING 7838
SWIDTH 600 0
DWIDTH 6 0
BBX 6 7 0 0
BITMAP
01AEC2
098176
0D0480
2A0D70
5702A5
854195
B1AEA0
ENDCHAR
STARTCHAR uni1EA0
ENCODING 7840
SWIDTH 600 0
DWIDTH 6 0
BBX 6 9 -1 -2
BITMAP
0000D4
000776
001938
007419
01EFFB
07600C
1C000C
000000
004A00
ENDCHAR
STARTCHAR uni1EA1
ENCODING 7841
SWIDTH 600 0
DWIDTH 6 0
BBX 6 7 0 -2
BITMAP
03DE97
1C41B4
6600A1
6816C0
1CE8A0
000000
04A000
ENDCHAR
STARTCHAR uni1EA2
ENCODING 7842
SWIDTH 600 0
DWIDTH 6 0
BBX 6 10 -1 0
BITMAP
0000A5
000048
000092
0000D4
000776
001938
007419
01EFFB
07600C
1C000C
ENDCHAR
STARTCHAR uni1EA3
ENCODING 7843
SWIDTH 600 0
DWIDTH 6 0
BBX 6 8 0 0
BITMAP
000A60
000390
000830
03DE97
1C41B4
6600A1
6816C0
1CE8A0
ENDCHAR
STARTCHAR uni1EA4
ENCODING 7844
SWIDTH 600 0
DWIDTH 6 0
BBX 8 9 -1 0
BITMAP
00000071
00027800
0000D400
00077600
00193800
00741900
01EFFB00
07600C00
1C000C00
ENDCHAR
STARTCHAR uni1EA5
ENCODING 7845
SWIDTH 600 0
DWIDTH 6 0
BBX 7 8 0 0
BITMAP
00000710
00378000
00000000
03DE9700
1C41B400
6600A100
6816C000
1CE8A000
ENDCHAR
STARTCHAR uni1EA6
ENCODING 7846
SWIDTH 600 0
DWIDTH 6 0
BBX 6 9 -1 0
BITMAP
000700
000278
0000D4
000776
001938
007419
01EFFB
07600C
1C000C
ENDCHAR
STARTCHAR uni1EA7
ENCODING 7847
SWIDTH 600 0
DWIDTH 6 0
BBX 6 8 0 0
BITMAP
036000
003780
000000
03DE97
1C41B4
6600A1
6816C0
1CE8A0
ENDCHAR
STARTCHAR uni1EA8
ENCODING 7848
SWIDTH 600 0
DWIDTH 6 0
BBX 8 10 -1 0
BITMAP
000001C0
000000A1
000278A0
0000D400
00077600
00193800
00741900
01EFFB00
07600C00
1C000C00
ENDCHAR
STARTCHAR uni1EA9
ENCODING 7849
SWIDTH 600 0
DWIDTH 6 0
BBX 6 9 0 0
BITMAP
00002B
00000B
003799
000000
03DE97
1C41B4
6600A1
6816C0
1CE8A0
ENDCHAR
STARTCHAR uni1EAA
ENCODING 7850
SWIDTH 600 0
DWIDTH 6 0
BBX 7 10 -1 0
BITMAP
0001D470
00044D40
00028800
0000D400
00077600
00193800
00741900
01EFFB00
07600C00
1C000C00
ENDCHAR
STARTCHAR uni1EAB
ENCODING 7851
SWIDTH 600 0
DWIDTH 6 0
BBX 6 9 0 0
BITMAP
001C35
0055D2
003780
000000
03DE97
1C41B4
6600A1
6816C0
1CE8A0
ENDCHAR
STARTCHAR uni1EAC
ENCODING 7852
SWIDTH 600 0
DWIDTH 6 0
BBX 7 10 -1 -2
BITMAP
00037810
0000D400
00077600
00193800
00741900
01EFFB00
07600C00
1C000C00
00000000
004A0000
ENDCHAR
STARTCHAR uni1EAD
ENCODING 7853
SWIDTH 600 0
DWIDTH 6 0
BBX 6 10 0 -2
BITMAP
001B90
007271
000000
03DE97
1C41B4
6600A1
6816C0
1CE8A0
000000
04A000
ENDCHAR
STARTCHAR uni1EAE
ENCODING 7854
SWIDTH 600 0
DWIDTH 6 0
BBX 7 10 -1 0
BITMAP
00002710
00063550
0002EB00
0000D400
00077600
00193800
00741900
01EFFB00
07600C00
1C000C00
ENDCHAR
STARTCHAR uni1EAF
ENCODING 7855
SWIDTH 600 0
DWIDTH 6 0
BBX 6 8 0 0
BITMAP
000270
008256
004EA0
03DE97
1C41B4
6600A1
6816C0
1CE8A0
ENDCHAR
STARTCHAR uni1EB0
ENCODING 7856
SWIDTH 600 0
DWIDTH 6 0
BBX 7 10 -1 0
BITMAP
00006200
00063550
0002EB00
0000D400
00077600
00193800
00741900
01EFFB00
07600C00
1C000C00
ENDCHAR
STARTCHAR uni1EB1
ENCODING 7857
SWIDTH 600 0
DWIDTH 6 0
BBX 6 8 0 0
BITMAP
000720
008256
004EA0
03DE97
1C41B4
6600A1
6816C0
1CE8A0
ENDCHAR
STARTCHAR uni1EB2
ENCODING 7858
SWIDTH 600 0
DWIDTH 6 0
BBX 7 12 -1 0
BITMAP
00005800
00001A00
00004500
00063550
0002EB00
0000D400
00077600
00193800
00741900
01EFFB00
07600C00
1C000C00
ENDCHAR
STARTCHAR uni1EB3
ENCODING 7859
SWIDTH 600 0
DWIDTH 6 0
BBX 6 10 0 0
BITMAP
000680
0001A0
000550
008256
004EA0
03DE97
1C41B4
6600A1
6816C0
1CE8A0
ENDCHAR
STARTCHAR uni1EB4
ENCODING 7860
SWIDTH 600 0
DWIDTH 6 0
BBX 7 10 -1 0
BITMAP
0001D470
000B8F80
0002DA00
0000D400
00077600
00193800
00741900
01EFFB00
07600C00
1C000C00
ENDCHAR
STARTCHAR uni1EB5
ENCODING 7861
SWIDTH 600 0
DWIDTH 6 0
BBX 6 9 0 0
BITMAP
001C46
0065D2
008273
003E90
03DE97
1C41B4
6600A1
6816C0
1CE8A0
ENDCHAR
STARTCHAR uni1EB6
ENCODING 7862
SWIDTH 600 0
DWIDTH 6 0
BBX 7 11 -1 -2
BITMAP
00063550
0002EB00
0000D400
00077600
00193800
00741900
01EFFB00
07600C00
1C000C00
00000000
004A0000
ENDCHAR
STARTCHAR uni1EB7
ENCODING 7863
SWIDTH 600 0
DWIDTH 6 0
BBX 6 9 0 -2
BITMAP
008256
004EA0
03DE97
1C41B4
6600A1
6816C0
1CE8A0
000000
04A000
ENDCHAR
STARTCHAR uni1EB8
ENCODING 7864
SWIDTH 600 0
DWIDTH 6 0
BBX 6 9 0 -2
BITMAP
03FFFD
057000
083000
0BFFC0
0C0000
290000
5FFFC0
000000
00C100
ENDCHAR
STARTCHAR uni1EB9
ENCODING 7865
SWIDTH 600 0
DWIDTH 6 0
BBX 6 7 0 -2
BITMAP
03CE90
1C31A2
4FFFF3
491250
0AEC30
000000
02B000
ENDCHAR
STARTCHAR uni1EBA
ENCODING 7866
SWIDTH 600 0
DWIDTH 6 0
BBX 6 10 0 0
BITMAP
0006A0
0001B0
000560
03FFFD
057000
083000
0BFFC0
0C0000
290000
5FFFC0
ENDCHAR
STARTCHAR uni1EBB
ENCODING 7867
SWIDTH 600 0
DWIDTH 6 0
BBX 6 8 0 0
BITMAP
000B50
000480
000920
03CE90
1C31A2
4FFFF3
491250
0AEC30
ENDCHAR
STARTCHAR uni1EBC
ENCODING 7868
SWIDTH 600 0
DWIDTH 6 0
BBX 6 10 0 0
BITMAP
000100
002E79
0072B9
03FFFD
057000
083000
0BFFC0
0C0000
290000
5FFFC0
ENDCHAR
STARTCHAR uni1EBD
ENCODING 7869
SWIDTH 600 0
DWIDTH 6 0
BBX 6 8 0 0
BITMAP
006926
0083E3
000000
03CE90
1C31A2
4FFFF3
491250
0AEC30
ENDCHAR
STARTCHAR uni1EBE
ENCODING 7870
SWIDTH 600 0
DWIDTH 6 0
BBX 7 9 0 0
BITMAP
00000530
00078300
03FFFD00
05700000
08300000
0BFFC000
0C000000
29000000
5FFFC000
ENDCHAR
STARTCHAR uni1EBF
ENCODING 7871
SWIDTH 600 0
DWIDTH 6 0
BBX 6 8 0 0
BITMAP
000017
004770
000000
03CE90
1C31A2
4FFFF3
491250
0AEC30
ENDCHAR
STARTCHAR uni1EC0
ENCODING 7872
SWIDTH 600 0
DWIDTH 6 0
BBX 6 9 0 0
BITMAP
005200
000783
03FFFD
057000
083000
0BFFC0
0C0000
290000
5FFFC0
ENDCHAR
STARTCHAR uni1EC1
ENCODING 7873
SWIDTH 600 0
DWIDTH 6 0
BBX 6 8 0 0
BITMAP
035000
004770
000000
03CE90
1C31A2
4FFFF3
491250
0AEC30
ENDCHAR
STARTCHAR uni1EC2
ENCODING 7874
SWIDTH 600 0
DWIDTH 6 0
BBX 7 10 0 0
BITMAP
00000A30
00000560
00078B20
03FFFD00
05700000
08300000
0BFFC000
0C000000
29000000
5FFFC000
ENDCHAR
STARTCHAR uni1EC3
ENCODING 7875
SWIDTH 600 0
DWIDTH 6 0
BBX 6 9 0 0
BITMAP
00003A
00000B
004797
000000
03CE90
1C31A2
4FFFF3
491250
0AEC30
ENDCHAR
STARTCHAR uni1EC4
ENCODING 7876
SWIDTH 600 0
DWIDTH 6 0
BBX 6 10 0 0
BITMAP
000A87
000799
000792
03FFFD
057000
083000
0BFFC0
0C0000
290000
5FFFC0
ENDCHAR
STARTCHAR uni1EC5
ENCODING 7877
SWIDTH 600 0
DWIDTH 6 0
BBX 6 9 0 0
BITMAP
002C44
0065D1
004880
000000
03CE90
1C31A2
4FFFF3
491250
0AEC30
ENDCHAR
STARTCHAR uni1EC6
ENCODING 7878
SWIDTH 600 0
DWIDTH 6 0
BBX 6 10 0 -2
BITMAP
001774
03FFFD
057000
083000
0BFFC0
0C0000
290000
5FFFC0
000000
00C100
ENDCHAR
STARTCHAR uni1EC7
ENCODING 7879
SWIDTH 600 0
DWIDTH 6 0
BBX 6 10 0 -2
BITMAP
001B80
008181
000000
03CE90
1C31A2
4FFFF3
491250
0AEC30
000000
02B000
ENDCHAR
STARTCHAR uni1EC8
ENCODING 7880
SWIDTH 600 0
DWIDTH 6 0
BBX 6 10 0 0
BITMAP
000A50
000480
000920
06FFFA
000C00
002900
006600
009300
00B000
9FFF70
ENDCHAR
STARTCHAR uni1EC9
ENCODING 7881
SWIDTH 600 0
DWIDTH 6 0
BBX 4 8 1 0
BITMAP
00D2
0084
00B0
DF90
0550
0820
0B11
08E8
ENDCHAR
STARTCHAR uni1ECA
ENCODING 7882
SWIDTH 600 0
DWIDTH 6 0
BBX 6 9 0 -2
BITMAP
06FFFA
000C00
002900
006600
009300
00B000
9FFF70
000000
068000
ENDCHAR
STARTCHAR uni1ECB
ENCODING 7883
SWIDTH 600 0
DWIDTH 6 0
BBX 4 9 1 -2
BITMAP
01D0
0000
DF90
0550
0820
0B11
08E8
0000
0680
ENDCHAR
STARTCHAR uni1ECC
ENCODING 7884
SWIDTH 600 0
DWIDTH 6 0
BBX 6 9 0 -2
BITMAP
01BEB1
0B6187
490029
750038
840085
6915C0
0AEC20
000000
068000
ENDCHAR
STARTCHAR uni1ECD
ENCODING 7885
SWIDTH 600 0
DWIDTH 6 0
BBX 6 7 0 -2
BITMAP
04DE80
2C31B3
750093
7814C0
1BEB20
000000
068000
ENDCHAR
STARTCHAR uni1ECE
ENCODING 7886
SWIDTH 600 0
DWIDTH 6 0
BBX 6 10 0 0
BITMAP
000A50
000480
000920
01BEB1
0B6187
490029
750038
840085
6915C0
0AEC20
ENDCHAR
STARTCHAR uni1ECF
ENCODING 7887
SWIDTH 600 0
DWIDTH 6 0
BBX 6 8 0 0
BITMAP
000C40
000570
000A20
04DE80
2C31B3
750093
7814C0
1BEB20
ENDCHAR
STARTCHAR uni1ED0
ENCODING 7888
SWIDTH 600 0
DWIDTH 6 0
BBX 7 9 0 0
BITMAP
00000710
00278000
01BEB100
0B618700
49002900
75003800
84008500
6915C000
0AEC2000
ENDCHAR
STARTCHAR uni1ED1
ENCODING 7889
SWIDTH 600 0
DWIDTH 6 0
BBX 6 8 0 0
BITMAP
000017
004770
000000
04DE80
2C31B3
750093
7814C0
1BEB20
ENDCHAR
STARTCHAR uni1ED2
ENCODING 7890
SWIDTH 600 0
DWIDTH 6 0
BBX 6 9 0 0
BITMAP
007000
002780
01BEB1
0B6187
490029
750038
840085
6915C0
0AEC20
ENDCHAR
STARTCHAR uni1ED3
ENCODING 7891
SWIDTH 600 0
DWIDTH 6 0
BBX 6 8 0 0
BITMAP
044000
004770
000000
04DE80
2C31B3
750093
7814C0
1BEB20
ENDCHAR
STARTCHAR uni1ED4
ENCODING 7892
SWIDTH 600 0
DWIDTH 6 0
BBX 7 10 0 0
BITMAP
00001C00
00000A10
00278A00
01BEB100
0B618700
49002900
75003800
84008500
6915C000
0AEC2000
ENDCHAR
STARTCHAR uni1ED5
ENCODING 7893
SWIDTH 600 0
DWIDTH 6 0
BBX 6 9 0 0
BITMAP
000049
00000A
0047A6
000000
04DE80
2C31B3
750093
7814C0
1BEB20
ENDCHAR
STARTCHAR uni1ED6
ENCODING 7894
SWIDTH 600 0
DWIDTH 6 0
BBX 6 10 0 0
BITMAP
001D47
0044D4
002880
01BEB1
0B6187
490029
750038
840085
6915C0
0AEC20
ENDCHAR
STARTCHAR uni1ED7
ENCODING 7895
SWIDTH 600 0
DWIDTH 6 0
BBX 6 9 0 0
BITMAP
003B43
0065D0
004870
000000
04DE80
2C31B3
750093
7814C0
1BEB20
ENDCHAR
STARTCHAR uni1ED8
ENCODING 7896
SWIDTH 600 0
DWIDTH 6 0
BBX 6 10 0 -2
BITMAP
003781
01BEB1
0B6187
490029
750038
840085
6915C0
0AEC20
000000
068000
ENDCHAR
STARTCHAR uni1ED9
ENCODING 7897
SWIDTH 600 0
DWIDTH 6 0
BBX 6 10 0 -2
BITMAP
002C70
008180
000000
04DE80
2C31B3
750093
7814C0
1BEB20
000000
068000
ENDCHAR
STARTCHAR uni1EDA
ENCODING 7898
SWIDTH 600 0
DWIDTH 6 0
BBX 7 9 0 0
BITMAP
00009200
00075540
01BFCA10
0B618500
49002900
75003900
84008600
6915D000
0AEC2000
ENDCHAR
STARTCHAR uni1EDB
ENCODING 7899
SWIDTH 600 0
DWIDTH 6 0
BBX 6 8 0 0
BITMAP
0002A0
000928
00000A
04DEC4
2C31B2
750093
7814D1
1BEB30
ENDCHAR
STARTCHAR uni1EDC
ENCODING 7900
SWIDTH 600 0
DWIDTH 6 0
BBX 7 9 0 0
BITMAP
00290000
00073540
01BFCA10
0B618500
49002900
75003900
84008600
6915D000
0AEC2000
ENDCHAR
STARTCHAR uni1EDD
ENCODING 7901
SWIDTH 600 0
DWIDTH 6 0
BBX 6 8 0 0
BITMAP
003800
000828
00000A
04DEC4
2C31B2
750093
7814D1
1BEB30
ENDCHAR
STARTCHAR uni1EDE
ENCODING 7902
SWIDTH 600 0
DWIDTH 6 0
BBX 7 10 0 0
BITMAP
000A5000
00048000
00092540
01BFCA10
0B618500
49002900
75003900
84008600
6915D000
0AEC2000
ENDCHAR
STARTCHAR uni1EDF
ENCODING 7903
SWIDTH 600 0
DWIDTH 6 0
BBX 6 8 0 0
BITMAP
000C40
000578
000A2A
04DEC4
2C31B2
750093
7814D1
1BEB30
ENDCHAR
STARTCHAR uni1EE0
ENCODING 7904
SWIDTH 600 0
DWIDTH 6 0
BBX 7 9 0 0
BITMAP
00CB5500
0267D640
01BFCA10
0B618500
49002900
75003900
84008600
6915D000
0AEC2000
ENDCHAR
STARTCHAR uni1EE1
ENCODING 7905
SWIDTH 600 0
DWIDTH 6 0
BBX 6 8 0 0
BITMAP
019671
0539B8
00000A
04DEC4
2C31B2
750093
7814D1
1BEB30
ENDCHAR
STARTCHAR uni1EE2
ENCODING 7906
SWIDTH 600 0
DWIDTH 6 0
BBX 7 10 0 -2
BITMAP
00000540
01BFCA10
0B618500
49002900
75003900
84008600
6915D000
0AEC2000
00000000
06800000
ENDCHAR
STARTCHAR uni1EE3
ENCODING 7907
SWIDTH 600 0
DWIDTH 6 0
BBX 6 9 0 -2
BITMAP
000008
00000A
04DEC4
2C31B2
750093
7814D1
1BEB30
000000
068000
ENDCHAR
STARTCHAR uni1EE4
ENCODING 7908
SWIDTH 600 0
DWIDTH 6 0
BBX 6 9 0 -2
BITMAP
09200B
0B0039
0B0066
390093
5600C1
4A16A0
0AEC20
000000
068000
ENDCHAR
STARTCHAR uni1EE5
ENCODING 7909
SWIDTH 600 0
DWIDTH 6 0
BBX 6 7 0 -2
BITMAP
0B0066
1A0093
4700C0
6719C0
3ED590
000000
04A000
ENDCHAR
STARTCHAR uni1EE6
ENCODING 7910
SWIDTH 600 0
DWIDTH 6 0
BBX 6 10 0 0
BITMAP
000A50
000480
000920
09200B
0B0039
0B0066
390093
5600C1
4A16A0
0AEC20
ENDCHAR
STARTCHAR uni1EE7
ENCODING 7911
SWIDTH 600 0
DWIDTH 6 0
BBX 6 8 0 0
BITMAP
000C40
000670
000A20
0B0066
1A0093
4700C0
6719C0
3ED590
ENDCHAR
STARTCHAR uni1EE8
ENCODING 7912
SWIDTH 600 0
DWIDTH 6 0
BBX 8 9 0 0
BITMAP
00009271
00075170
09200B00
0B003800
0B006500
39009200
5600C000
4A169000
0AEB1000
ENDCHAR
STARTCHAR uni1EE9
ENCODING 7913
SWIDTH 600 0
DWIDTH 6 0
BBX 7 8 0 0
BITMAP
0002A000
00092170
00000570
0B006D10
1A009500
4700C100
6719D000
3ED59000
ENDCHAR
STARTCHAR uni1EEA
ENCODING 7914
SWIDTH 600 0
DWIDTH 6 0
BBX 8 9 0 0
BITMAP
00290071
00073170
09200B00
0B003800
0B006500
39009200
5600C000
4A169000
0AEB1000
ENDCHAR
STARTCHAR uni1EEB
ENCODING 7915
SWIDTH 600 0
DWIDTH 6 0
BBX 7 8 0 0
BITMAP
00380000
00082170
00000570
0B006D10
1A009500
4700C100
6719D000
3ED59000
ENDCHAR
STARTCHAR uni1EEC
ENCODING 7916
SWIDTH 600 0
DWIDTH 6 0
BBX 8 10 0 0
BITMAP
000A5000
00048071
00092170
09200B00
0B003800
0B006500
39009200
5600C000
4A169000
0AEB1000
ENDCHAR
STARTCHAR uni1EED
ENCODING 7917
SWIDTH 600 0
DWIDTH 6 0
BBX 7 8 0 0
BITMAP
000C4000
00067170
000A2570
0B006D10
1A009500
4700C100
6719D000
3ED59000
ENDCHAR
STARTCHAR uni1EEE
ENCODING 7918
SWIDTH 600 0
DWIDTH 6 0
BBX 8 10 0 0
BITMAP
00010000
007E3971
0083E470
09200B00
0B003800
0B006500
39009200
5600C000
4A169000
0AEB1000
ENDCHAR
STARTCHAR uni1EEF
ENCODING 7919
SWIDTH 600 0
DWIDTH 6 0
BBX 7 8 0 0
BITMAP
00784400
0175D270
00000570
0B006D10
1A009500
4700C100
6719D000
3ED59000
ENDCHAR
STARTCHAR uni1EF0
ENCODING 7920
SWIDTH 600 0
DWIDTH 6 0
BBX 8 11 0 -2
BITMAP
00000071
00000170
09200B00
0B003800
0B006500
39009200
5600C000
4A169000
0AEB1000
00000000
06800000
ENDCHAR
STARTCHAR uni1EF1
ENCODING 7921
SWIDTH 600 0
DWIDTH 6 0
BBX 7 9 0 -2
BITMAP
00000170
00000570
0B006D10
1A009500
4700C100
6719D000
3ED59000
00000000
04A00000
ENDCHAR
STARTCHAR Ygrave
ENCODING 7922
SWIDTH 600 0
DWIDTH 6 0
BBX 6 9 1 0
BITMAP
037000
008200
B100B1
750850
393B00
0CB200
0A7000
0A1000
0C0000
ENDCHAR
STARTCHAR ygrave
ENCODING 7923
SWIDTH 600 0
DWIDTH 6 0
BBX 7 10 -1 -2
BITMAP
00047000
00009100
00000000
00B00480
00B00B10
00837400
00579000
001E2000
00570000
4E900000
ENDCHAR
STARTCHAR uni1EF4
ENCODING 7924
SWIDTH 600 0
DWIDTH 6 0
BBX 6 9 1 -2
BITMAP
B100B1
750850
393B00
0CB200
0A7000
0A1000
0C0000
000000
680000
ENDCHAR
STARTCHAR uni1EF5
ENCODING 7925
SWIDTH 600 0
DWIDTH 6 0
BBX 7 7 -1 -2
BITMAP
00B00480
00B00B10
00837400
00579000
001E2000
00570000
4E90A400
ENDCHAR
STARTCHAR uni1EF6
ENCODING 7926
SWIDTH 600 0
DWIDTH 6 0
BBX 6 10 1 0
BITMAP
00C300
006600
00A100
B100B1
750850
393B00
0CB200
0A7000
0A1000
0C0000
ENDCHAR
STARTCHAR uni1EF7
ENCODING 7927
SWIDTH 600 0
DWIDTH 6 0
BBX 7 10 -1 -2
BITMAP
0000C300
00007600
0000A100
00B00480
00B00B10
00837400
00579000
001E2000
00570000
4E900000
ENDCHAR
STARTCHAR uni1EF8
ENCODING 7928
SWIDTH 600 0
DWIDTH 6 0
BBX 6 10 1 0
BITMAP
001000
09D380
084E20
B100B1
750850
393B00
0CB200
0A7000
0A1000
0C0000
ENDCHAR
STARTCHAR uni1EF9
ENCODING 7929
SWIDTH 600 0
DWIDTH 6 0
BBX 7 10 -1 -2
BITMAP
00078450
00175D10
00000000
00B00480
00B00B10
00837400
00579000
001E2000
00570000
4E900000
ENDCHAR
STARTCHAR uni2007
ENCODING 8199
SWIDTH 600 0
DWIDTH 6 0
BBX 1 1 0 0
BITMAP
00
ENDCHAR
STARTCHAR uni2010
ENCODING 8208
SWIDTH 600 0
DWIDTH 6 0
BBX 6 1 0 3
BITMAP
2FFFF2
ENDCHAR
STARTCHAR figuredash
ENCODING 8210
SWIDTH 600 0
DWIDTH 6 0
BBX 6 1 0 2
BITMAP
5FFFF1
ENDCHAR
STARTCHAR endash
ENCODING 8211
SWIDTH 600 0
DWIDTH 6 0
BBX 6 1 0 2
BITMAP
5FFFF1
ENDCHAR
STARTCHAR emdash
ENCODING 8212
SWIDTH 600 0
DWIDTH 6 0
BBX 7 1 -1 2
BITMAP
2FFFFFD0
ENDCHAR
STARTCHAR uni2015
ENCODING 8213
SWIDTH 600 0
DWIDTH 6 0
BBX 7 1 -1 2
BITMAP
2FFFFFD0
ENDCHAR
STARTCHAR uni2016
ENCODING 8214
SWIDTH 600 0
DWIDTH 6 0
BBX 4 10 1 -3
BITMAP
6446
6446
6446
6446
6446
6446
6446
6446
6446
6446
ENDCHAR
STARTCHAR underscoredbl
ENCODING 8215
SWIDTH 600 0
DWIDTH 6 0
BBX 6 3 -1 -3
BITMAP
3FFFF9
000000
7FFFF5
ENDCHAR
STARTCHAR quoteleft
ENCODING 8216
SWIDTH 600 0
DWIDTH 6 0
BBX 3 3 2 4
BITMAP
06A0
4B20
4D10
ENDCHAR
STARTCHAR quoteright
ENCODING 8217
SWIDTH 600 0
DWIDTH 6 0
BBX 3 4 2 3
BITMAP
0D40
1E60
2B20
9400
ENDCHAR
STARTCHAR quotesinglbase
ENCODING 8218
SWIDTH 600 0
DWIDTH 6 0
BBX 3 4 1 -3
BITMAP
0890
0AA0
1860
6800
ENDCHAR
STARTCHAR quotereversed
ENCODING 8219
SWIDTH 600 0
DWIDTH 6 0
BBX 2 4 2 3
BITMAP
5D
AC
84
1A
ENDCHAR
STARTCHAR quotedblleft
ENCODING 8220
SWIDTH 600 0
DWIDTH 6 0
BBX 5 3 1 4
BITMAP
0885C0
6A3C30
6C2E20
ENDCHAR
STARTCHAR quotedblright
ENCODING 8221
SWIDTH 600 0
DWIDTH 6 0
BBX 5 4 1 3
BITMAP
1E3B70
2F4D80
3B2A30
B38600
ENDCHAR
STARTCHAR quotedblbase
ENCODING 8222
SWIDTH 600 0
DWIDTH 6 0
BBX 5 4 1 -3
BITMAP
1E3B70
2F4D80
3B2A30
B38600
ENDCHAR
STARTCHAR dagger
ENCODING 8224
SWIDTH 600 0
DWIDTH 6 0
BBX 5 9 1 -1
BITMAP
009100
009000
3FFF10
018000
035000
073000
090000
0A0000
170000
ENDCHAR
STARTCHAR daggerdbl
ENCODING 8225
SWIDTH 600 0
DWIDTH 6 0
BBX 6 9 0 -1
BITMAP
000910
000900
03FFF1
001810
004500
018200
1FFF40
019000
009000
ENDCHAR
STARTCHAR bullet
ENCODING 8226
SWIDTH 600 0
DWIDTH 6 0
BBX 4 3 1 1
BITMAP
2CE2
8FF5
4EB1
ENDCHAR
STARTCHAR ellipsis
ENCODING 8230
SWIDTH 600 0
DWIDTH 6 0
BBX 7 1 -1 0
BITMAP
1D2D2D10
ENDCHAR
STARTCHAR uni202F
ENCODING 8239
SWIDTH 600 0
DWIDTH 6 0
BBX 1 1 0 0
BITMAP
00
ENDCHAR
STARTCHAR perthousand
ENCODING 8240
SWIDTH 600 0
DWIDTH 6 0
BBX 6 6 0 0
BITMAP
0BE200
1DC268
046620
6F3AD0
949781
BC2E90
ENDCHAR
STARTCHAR uni2032
ENCODING 8242
SWIDTH 600 0
DWIDTH 6 0
BBX 2 3 3 4
BITMAP
73
A0
80
ENDCHAR
STARTCHAR uni2033
ENCODING 8243
SWIDTH 600 0
DWIDTH 6 0
BBX 4 3 2 4
BITMAP
6592
91A0
8170
ENDCHAR
STARTCHAR uni2035
ENCODING 8245
SWIDTH 600 0
DWIDTH 6 0
BBX 3 3 2 4
BITMAP
1A00
0A00
0530
ENDCHAR
STARTCHAR guilsinglleft
ENCODING 8249
SWIDTH 600 0
DWIDTH 6 0
BBX 3 4 1 1
BITMAP
0180
0B20
1B00
0540
ENDCHAR
STARTCHAR guilsinglright
ENCODING 8250
SWIDTH 600 0
DWIDTH 6 0
BBX 3 4 1 1
BITMAP
0810
0390
0770
3600
ENDCHAR
STARTCHAR exclamdbl
ENCODING 8252
SWIDTH 600 0
DWIDTH 6 0
BBX 6 7 0 0
BITMAP
00B075
0390A2
0560A0
073090
080170
000000
4B0A50
ENDCHAR
STARTCHAR uni203D
ENCODING 8253
SWIDTH 600 0
DWIDTH 6 0
BBX 5 7 1 0
BITMAP
09EA00
251B20
038B00
05D200
073000
000000
2D0000
ENDCHAR
STARTCHAR uni203E
ENCODING 8254
SWIDTH 600 0
DWIDTH 6 0
BBX 5 1 1 6
BITMAP
BFFFE0
ENDCHAR
STARTCHAR uni203F
ENCODING 8255
SWIDTH 600 0
DWIDTH 6 0
BBX 10 2 -3 -3
BITMAP
1862002683
005BEEB500
ENDCHAR
STARTCHAR fraction
ENCODING 8260
SWIDTH 600 0
DWIDTH 6 0
BBX 7 6 -1 0
BITMAP
00000080
00001810
00001000
00100000
02700000
18000000
ENDCHAR
STARTCHAR uni2047
ENCODING 8263
SWIDTH 600 0
DWIDTH 6 0
BBX 7 7 0 0
BITMAP
1CD4DC00
13872B20
00910900
07309200
19036000
00000000
870B4000
ENDCHAR
STARTCHAR uni2048
ENCODING 8264
SWIDTH 600 0
DWIDTH 6 0
BBX 6 7 0 0
BITMAP
1CD257
138584
0091A1
073090
190080
000000
870870
ENDCHAR
STARTCHAR uni2049
ENCODING 8265
SWIDTH 600 0
DWIDTH 6 0
BBX 7 7 0 0
BITMAP
02A2DC00
04722B20
07400900
09109200
08036000
00000000
690B4000
ENDCHAR
STARTCHAR zero.sups
ENCODING 8304
SWIDTH 600 0
DWIDTH 6 0
BBX 4 5 1 4
BITMAP
04E7
0A2A
1809
1939
0BD2
ENDCHAR
STARTCHAR i.sups
ENCODING 8305
SWIDTH 600 0
DWIDTH 6 0
BBX 3 5 2 4
BITMAP
0820
0000
DC00
0610
1E80
ENDCHAR
STARTCHAR four.sups
ENCODING 8308
SWIDTH 600 0
DWIDTH 6 0
BBX 4 4 1 4
BITMAP
0071
0746
2FFC
0071
ENDCHAR
STARTCHAR five.sups
ENCODING 8309
SWIDTH 600 0
DWIDTH 6 0
BBX 4 4 1 4
BITMAP
03FE
07F6
1629
09E3
ENDCHAR
STARTCHAR six.sups
ENCODING 8310
SWIDTH 600 0
DWIDTH 6 0
BBX 3 5 2 4
BITMAP
2CB0
9310
CE60
B290
8E40
ENDCHAR
STARTCHAR seven.sups
ENCODING 8311
SWIDTH 600 0
DWIDTH 6 0
BBX 4 4 2 4
BITMAP
7FF2
0260
0800
4500
ENDCHAR
STARTCHAR eight.sups
ENCODING 8312
SWIDTH 600 0
DWIDTH 6 0
BBX 3 5 2 4
BITMAP
3E80
64A0
7F60
A370
BE40
ENDCHAR
STARTCHAR nine.sups
ENCODING 8313
SWIDTH 600 0
DWIDTH 6 0
BBX 3 5 2 4
BITMAP
4E60
92A0
A290
8E80
CC10
ENDCHAR
STARTCHAR parenleft.sups
ENCODING 8317
SWIDTH 600 0
DWIDTH 6 0
BBX 3 5 2 4
BITMAP
0250
0900
1700
2600
0700
ENDCHAR
STARTCHAR parenright.sups
ENCODING 8318
SWIDTH 600 0
DWIDTH 6 0
BBX 3 5 2 4
BITMAP
0700
0810
0900
0800
6100
ENDCHAR
STARTCHAR n.sups
ENCODING 8319
SWIDTH 600 0
DWIDTH 6 0
BBX 5 4 1 3
BITMAP
09CD00
0A3910
0A0900
160700
ENDCHAR
STARTCHAR zero.subs
ENCODING 8320
SWIDTH 600 0
DWIDTH 6 0
BBX 4 5 1 -2
BITMAP
2DA0
9391
9081
A1A0
8E40
ENDCHAR
STARTCHAR one.subs
ENCODING 8321
SWIDTH 600 0
DWIDTH 6 0
BBX 3 4 1 -2
BITMAP
2B60
0530
0800
FFF0
ENDCHAR
STARTCHAR two.subs
ENCODING 8322
SWIDTH 600 0
DWIDTH 6 0
BBX 3 4 1 -2
BITMAP
1DB0
2280
2510
EFA0
ENDCHAR
STARTCHAR three.subs
ENCODING 8323
SWIDTH 600 0
DWIDTH 6 0
BBX 3 5 1 -2
BITMAP
1DB0
12A0
0D60
52A0
6E60
ENDCHAR
STARTCHAR four.subs
ENCODING 8324
SWIDTH 600 0
DWIDTH 6 0
BBX 3 4 1 -2
BITMAP
0630
5480
EFF0
0440
ENDCHAR
STARTCHAR five.subs
ENCODING 8325
SWIDTH 600 0
DWIDTH 6 0
BBX 4 4 1 -2
BITMAP
0FF2
4F90
62A0
6E60
ENDCHAR
STARTCHAR six.subs
ENCODING 8326
SWIDTH 600 0
DWIDTH 6 0
BBX 4 5 1 -2
BITMAP
1BD1
7510
AD90
A2A0
5E60
ENDCHAR
STARTCHAR seven.subs
ENCODING 8327
SWIDTH 600 0
DWIDTH 6 0
BBX 4 4 1 -2
BITMAP
4FF5
0170
0810
1700
ENDCHAR
STARTCHAR eight.subs
ENCODING 8328
SWIDTH 600 0
DWIDTH 6 0
BBX 3 5 1 -2
BITMAP
1DB0
37A0
4F90
A290
8E60
ENDCHAR
STARTCHAR nine.subs
ENCODING 8329
SWIDTH 600 0
DWIDTH 6 0
BBX 3 5 1 -2
BITMAP
2D90
73B0
82A0
6EA0
AD30
ENDCHAR
STARTCHAR parenleft.subs
ENCODING 8333
SWIDTH 600 0
DWIDTH 6 0
BBX 2 5 2 -2
BITMAP
17
81
90
80
70
ENDCHAR
STARTCHAR parenright.subs
ENCODING 8334
SWIDTH 600 0
DWIDTH 6 0
BBX 3 5 1 -2
BITMAP
0610
0540
0630
0900
4300
ENDCHAR
STARTCHAR uni0259.sups
ENCODING 8340
SWIDTH 600 0
DWIDTH 6 0
BBX 4 3 1 4
BITMAP
05E9
1FFE
0CE5
ENDCHAR
STARTCHAR colonmonetary
ENCODING 8353
SWIDTH 600 0
DWIDTH 6 0
BBX 6 8 0 -1
BITMAP
000164
007DF5
07B766
0D1640
1A4600
0B4780
07ED30
055000
ENDCHAR
STARTCHAR franc
ENCODING 8355
SWIDTH 600 0
DWIDTH 6 0
BBX 6 6 0 0
BITMAP
01FFFD
048000
07FFC0
0A1000
9FF800
1B0000
ENDCHAR
STARTCHAR lira
ENCODING 8356
SWIDTH 600 0
DWIDTH 6 0
BBX 6 6 0 0
BITMAP
01BFC1
0EFFC4
01A000
3FFF60
055000
9FFFA0
ENDCHAR
STARTCHAR uni20A6
ENCODING 8358
SWIDTH 600 0
DWIDTH 6 0
BBX 6 6 0 0
BITMAP
05C072
5FFFFA
094490
8FFFF6
090870
360B40
ENDCHAR
STARTCHAR peseta
ENCODING 8359
SWIDTH 600 0
DWIDTH 6 0
BBX 6 6 0 0
BITMAP
02FFD2
2FFFFE
0832B1
0BFD50
0C0000
390000
ENDCHAR
STARTCHAR uni20A9
ENCODING 8361
SWIDTH 600 0
DWIDTH 6 0
BBX 6 6 0 0
BITMAP
0A180A
0A4955
7FFFFA
096780
0B4870
0D0C20
ENDCHAR
STARTCHAR dong
ENCODING 8363
SWIDTH 600 0
DWIDTH 6 0
BBX 6 8 0 0
BITMAP
000064
001FFD
000090
05DDA0
0C2480
0BEC50
000000
6FFF50
ENDCHAR
STARTCHAR Euro
ENCODING 8364
SWIDTH 600 0
DWIDTH 6 0
BBX 6 6 0 0
BITMAP
03BEF6
5FFFE7
0C0000
9FFF30
0C3181
05DE60
ENDCHAR
STARTCHAR uni20AE
ENCODING 8366
SWIDTH 600 0
DWIDTH 6 0
BBX 5 6 1 0
BITMAP
9FFFC0
00B400
18B400
49A400
6B2000
0C0000
ENDCHAR
STARTCHAR uni20B1
ENCODING 8369
SWIDTH 600 0
DWIDTH 6 0
BBX 6 7 0 -1
BITMAP
02FF90
0381B3
1EFFFF
1986A7
3DA9E7
1E6990
039600
ENDCHAR
STARTCHAR uni20B2
ENCODING 8370
SWIDTH 600 0
DWIDTH 6 0
BBX 6 8 0 -1
BITMAP
000270
009ED2
099135
1C0000
480BF2
3C11B0
09FE70
008000
ENDCHAR
STARTCHAR uni20B4
ENCODING 8372
SWIDTH 600 0
DWIDTH 6 0
BBX 6 6 0 0
BITMAP
008ED1
1FFFF7
01B700
4FFFF3
0C1350
0AFC20
ENDCHAR
STARTCHAR uni20B5
ENCODING 8373
SWIDTH 600 0
DWIDTH 6 0
BBX 6 8 0 -1
BITMAP
000070
007DE4
06A746
0C1700
1B0800
0D3770
06ED40
007100
ENDCHAR
STARTCHAR uni20B8
ENCODING 8376
SWIDTH 600 0
DWIDTH 6 0
BBX 5 6 1 0
BITMAP
9FFFC0
000000
CFFF90
039000
084000
0B0000
ENDCHAR
STARTCHAR uni20B9
ENCODING 8377
SWIDTH 600 0
DWIDTH 6 0
BBX 5 6 1 0
BITMAP
6FFFC0
004800
9FFF80
FEC500
0B2000
02B000
ENDCHAR
STARTCHAR uni20BA
ENCODING 8378
SWIDTH 600 0
DWIDTH 6 0
BBX 6 6 0 0
BITMAP
00B130
02D720
28B741
3B5083
0A25B0
0CD810
ENDCHAR
STARTCHAR uni20BD
ENCODING 8381
SWIDTH 600 0
DWIDTH 6 0
BBX 6 6 0 0
BITMAP
00AFE9
00C02C
7FFFD5
047000
AFFFE0
092000
ENDCHAR
STARTCHAR uni2105
ENCODING 8453
SWIDTH 600 0
DWIDTH 6 0
BBX 7 7 -1 0
BITMAP
00000010
06E50290
0A221700
0BD10000
0041BE40
05556560
1503EB10
ENDCHAR
STARTCHAR uni2113
ENCODING 8467
SWIDTH 600 0
DWIDTH 6 0
BBX 5 7 1 0
BITMAP
00BE20
058730
093900
0C8400
1E4000
A91200
1DD200
ENDCHAR
STARTCHAR uni2116
ENCODING 8470
SWIDTH 600 0
DWIDTH 6 0
BBX 8 6 -1 0
BITMAP
02C0A9E3
06B1BA64
09847CB0
0B694000
2A5C2F90
853C0000
ENDCHAR
STARTCHAR uni2117
ENCODING 8471
SWIDTH 600 0
DWIDTH 6 0
BBX 6 7 0 0
BITMAP
02BEC2
0B4149
63AF67
709297
70FD57
8874B1
1BEB20
ENDCHAR
STARTCHAR uni2120
ENCODING 8480
SWIDTH 600 0
DWIDTH 6 0
BBX 7 4 0 3
BITMAP
0D874940
09389C20
2478B800
3E670800
ENDCHAR
STARTCHAR trademark
ENCODING 8482
SWIDTH 600 0
DWIDTH 6 0
BBX 7 3 0 4
BITMAP
4FF97760
07188C30
0808A900
ENDCHAR
STARTCHAR uni2126
ENCODING 8486
SWIDTH 600 0
DWIDTH 6 0
BBX 7 7 -1 0
BITMAP
001AEC20
00C61880
059002A0
08400390
07400830
02804700
3FC0EF20
ENDCHAR
STARTCHAR estimated
ENCODING 8494
SWIDTH 600 0
DWIDTH 6 0
BBX 6 7 0 0
BITMAP
05ED40
3A11A2
980088
AFFFFA
980000
3B1280
05EC20
ENDCHAR
STARTCHAR uni2150
ENCODING 8528
SWIDTH 600 0
DWIDTH 6 0
BBX 7 6 -1 0
BITMAP
04D00080
00801810
00801000
0010CF90
02700710
18006300
ENDCHAR
STARTCHAR uni2151
ENCODING 8529
SWIDTH 600 0
DWIDTH 6 0
BBX 7 6 -1 0
BITMAP
04D00080
00801810
00801000
0010BE20
0271EE50
1802EB00
ENDCHAR
STARTCHAR uni2152
ENCODING 8530
SWIDTH 600 0
DWIDTH 6 0
BBX 6 6 0 0
BITMAP
09C000
008168
05BFE0
6F2872
093590
091D80
ENDCHAR
STARTCHAR onethird
ENCODING 8531
SWIDTH 600 0
DWIDTH 6 0
BBX 7 6 -1 0
BITMAP
04D00080
00801810
00801000
00106E30
02718D10
1800CD10
ENDCHAR
STARTCHAR twothirds
ENCODING 8532
SWIDTH 600 0
DWIDTH 6 0
BBX 7 6 -1 0
BITMAP
05E40080
04311810
2FF51000
00106E30
02718D10
1800CD10
ENDCHAR
STARTCHAR uni2155
ENCODING 8533
SWIDTH 600 0
DWIDTH 6 0
BBX 7 6 -1 0
BITMAP
04D00080
00801810
00801000
00109F60
0271DE20
1801ED10
ENDCHAR
STARTCHAR uni2156
ENCODING 8534
SWIDTH 600 0
DWIDTH 6 0
BBX 7 6 -1 0
BITMAP
05E40080
04311810
2FF51000
00109F60
0271DE20
1801ED10
ENDCHAR
STARTCHAR uni2157
ENCODING 8535
SWIDTH 600 0
DWIDTH 6 0
BBX 7 6 -1 0
BITMAP
03E50080
06F21810
09E31000
00109F60
0271DE20
1801ED10
ENDCHAR
STARTCHAR uni2158
ENCODING 8536
SWIDTH 600 0
DWIDTH 6 0
BBX 7 6 -1 0
BITMAP
00700080
07521810
2FF81000
00109F60
0271DE20
1801ED10
ENDCHAR
STARTCHAR uni2159
ENCODING 8537
SWIDTH 600 0
DWIDTH 6 0
BBX 7 6 -1 0
BITMAP
04D00080
00801810
00801000
00108E50
0271EE30
1801DD20
ENDCHAR
STARTCHAR uni215A
ENCODING 8538
SWIDTH 600 0
DWIDTH 6 0
BBX 7 6 -1 0
BITMAP
06F90080
0CE41810
0CE31000
00108E50
0271EE30
1801DD20
ENDCHAR
STARTCHAR oneeighth
ENCODING 8539
SWIDTH 600 0
DWIDTH 6 0
BBX 7 6 -1 0
BITMAP
04D00080
00801810
00801000
00109E40
0270BE10
1801ED10
ENDCHAR
STARTCHAR threeeighths
ENCODING 8540
SWIDTH 600 0
DWIDTH 6 0
BBX 7 6 -1 0
BITMAP
03E50080
06F21810
09E31000
00109E40
0270BE10
1801ED10
ENDCHAR
STARTCHAR fiveeighths
ENCODING 8541
SWIDTH 600 0
DWIDTH 6 0
BBX 7 6 -1 0
BITMAP
06F90080
0CE41810
0CE31000
00109E40
0270BE10
1801ED10
ENDCHAR
STARTCHAR seveneighths
ENCODING 8542
SWIDTH 600 0
DWIDTH 6 0
BBX 7 6 -1 0
BITMAP
09FC0080
00621810
03601000
00109E40
0270BE10
1801ED10
ENDCHAR
STARTCHAR uni2189
ENCODING 8585
SWIDTH 600 0
DWIDTH 6 0
BBX 7 6 -1 0
BITMAP
07E80080
0A2A1810
0CD41000
00106E30
02718D10
1800CD10
ENDCHAR
STARTCHAR uni2190
ENCODING 8592
SWIDTH 600 0
DWIDTH 6 0
BBX 6 7 0 -1
BITMAP
001000
019100
181000
9FFFFA
181000
019100
001000
ENDCHAR
STARTCHAR arrowup
ENCODING 8593
SWIDTH 600 0
DWIDTH 6 0
BBX 6 6 0 0
BITMAP
007700
06AA60
485565
205501
005500
005500
ENDCHAR
STARTCHAR uni2192
ENCODING 8594
SWIDTH 600 0
DWIDTH 6 0
BBX 6 7 0 -1
BITMAP
000100
001910
000181
BFFFF9
000181
001910
000100
ENDCHAR
STARTCHAR arrowdown
ENCODING 8595
SWIDTH 600 0
DWIDTH 6 0
BBX 6 6 0 0
BITMAP
005500
005500
205501
485565
06AA60
007700
ENDCHAR
STARTCHAR arrowboth
ENCODING 8596
SWIDTH 600 0
DWIDTH 6 0
BBX 6 5 0 0
BITMAP
060060
540045
EFFFFE
540045
070070
ENDCHAR
STARTCHAR arrowupdn
ENCODING 8597
SWIDTH 600 0
DWIDTH 6 0
BBX 4 6 1 0
BITMAP
0990
9779
1551
0550
9779
0990
ENDCHAR
STARTCHAR uni2196
ENCODING 8598
SWIDTH 600 0
DWIDTH 6 0
BBX 4 5 1 0
BITMAP
7775
D722
8760
9076
3006
ENDCHAR
STARTCHAR uni2197
ENCODING 8599
SWIDTH 600 0
DWIDTH 6 0
BBX 4 5 1 0
BITMAP
6777
228D
0778
7709
5003
ENDCHAR
STARTCHAR uni2198
ENCODING 8600
SWIDTH 600 0
DWIDTH 6 0
BBX 4 5 1 0
BITMAP
6003
6809
0688
227E
5677
ENDCHAR
STARTCHAR uni2199
ENCODING 8601
SWIDTH 600 0
DWIDTH 6 0
BBX 4 5 1 0
BITMAP
3006
9077
8760
D822
7765
ENDCHAR
STARTCHAR arrowupdnbse
ENCODING 8616
SWIDTH 600 0
DWIDTH 6 0
BBX 6 8 0 -2
BITMAP
003300
05BB50
055550
005500
055550
05BB50
003300
6FFFF6
ENDCHAR
STARTCHAR uni21D0
ENCODING 8656
SWIDTH 600 0
DWIDTH 6 0
BBX 6 7 0 -1
BITMAP
002100
028000
1DFFFA
940000
1DFFFA
028000
002100
ENDCHAR
STARTCHAR uni21D1
ENCODING 8657
SWIDTH 600 0
DWIDTH 6 0
BBX 6 6 0 0
BITMAP
007700
06BB60
5A55A5
135531
035530
035530
ENDCHAR
STARTCHAR uni21D2
ENCODING 8658
SWIDTH 600 0
DWIDTH 6 0
BBX 6 7 0 -1
BITMAP
001200
000820
BFFFD1
000049
BFFFD1
000820
001200
ENDCHAR
STARTCHAR uni21D3
ENCODING 8659
SWIDTH 600 0
DWIDTH 6 0
BBX 6 6 0 0
BITMAP
035530
035530
135531
5A55A5
06BB60
007700
ENDCHAR
STARTCHAR uni2200
ENCODING 8704
SWIDTH 600 0
DWIDTH 6 0
BBX 6 7 1 0
BITMAP
C000C1
C33870
BDDE10
915700
83A100
687000
4D0000
ENDCHAR
STARTCHAR partialdiff
ENCODING 8706
SWIDTH 600 0
DWIDTH 6 0
BBX 6 7 0 0
BITMAP
005EC1
003195
000056
07EDA5
4A12C1
761670
2DE700
ENDCHAR
STARTCHAR uni2203
ENCODING 8707
SWIDTH 600 0
DWIDTH 6 0
BBX 6 7 0 0
BITMAP
0AFFF5
000092
0000B0
0BFFB0
000380
000650
FFFF30
ENDCHAR
STARTCHAR uni2206
ENCODING 8710
SWIDTH 600 0
DWIDTH 6 0
BBX 7 7 -1 0
BITMAP
0001D300
00087600
00293800
00921A00
03800B00
0A100B00
2FFFFF10
ENDCHAR
STARTCHAR product
ENCODING 8719
SWIDTH 600 0
DWIDTH 6 0
BBX 6 7 0 -1
BITMAP
7FFFF6
740056
740056
740056
740056
740056
740056
ENDCHAR
STARTCHAR summation
ENCODING 8721
SWIDTH 600 0
DWIDTH 6 0
BBX 6 7 0 -1
BITMAP
4FFFF2
092000
01A100
003900
01A100
0A2000
5FFFF6
ENDCHAR
STARTCHAR minus
ENCODING 8722
SWIDTH 600 0
DWIDTH 6 0
BBX 6 1 0 3
BITMAP
2FFFF2
ENDCHAR
STARTCHAR uni2215
ENCODING 8725
SWIDTH 600 0
DWIDTH 6 0
BBX 7 6 -1 0
BITMAP
00000080
00001810
00001000
00100000
02700000
18000000
ENDCHAR
STARTCHAR uni2219
ENCODING 8729
SWIDTH 600 0
DWIDTH 6 0
BBX 3 2 1 3
BITMAP
1D20
2D10
ENDCHAR
STARTCHAR radical
ENCODING 8730
SWIDTH 600 0
DWIDTH 6 0
BBX 6 10 0 -1
BITMAP
000003
000008
000036
000062
000090
2A2090
027270
009530
007A00
002B00
ENDCHAR
STARTCHAR infinity
ENCODING 8734
SWIDTH 600 0
DWIDTH 6 0
BBX 6 4 0 1
BITMAP
9E69E7
B2C71B
9FB91B
0008E7
ENDCHAR
STARTCHAR orthogonal
ENCODING 8735
SWIDTH 600 0
DWIDTH 6 0
BBX 6 5 0 1
BITMAP
270000
270000
270000
270000
2FFFF2
ENDCHAR
STARTCHAR intersection
ENCODING 8745
SWIDTH 600 0
DWIDTH 6 0
BBX 4 5 1 1
BITMAP
4DD4
B22B
9009
9009
9009
ENDCHAR
STARTCHAR integral
ENCODING 8747
SWIDTH 600 0
DWIDTH 6 0
BBX 4 10 1 -2
BITMAP
01D5
0570
0640
0550
0460
0280
0190
00A0
0290
1E40
ENDCHAR
STARTCHAR uni2237
ENCODING 8759
SWIDTH 600 0
DWIDTH 6 0
BBX 6 5 0 1
BITMAP
0890B6
0980C5
000000
4D06A0
5C0890
ENDCHAR
STARTCHAR approxequal
ENCODING 8776
SWIDTH 600 0
DWIDTH 6 0
BBX 6 4 0 1
BITMAP
0AD381
183DA0
0AD381
183DA0
ENDCHAR
STARTCHAR notequal
ENCODING 8800
SWIDTH 600 0
DWIDTH 6 0
BBX 6 6 0 0
BITMAP
000260
2FFFF2
001700
008100
2FFFF2
062000
ENDCHAR
STARTCHAR equivalence
ENCODING 8801
SWIDTH 600 0
DWIDTH 6 0
BBX 6 5 0 1
BITMAP
2FFFF2
000000
2FFFF2
000000
2FFFF2
ENDCHAR
STARTCHAR lessequal
ENCODING 8804
SWIDTH 600 0
DWIDTH 6 0
BBX 6 6 0 0
BITMAP
000031
038DC1
2E8100
038DB1
000031
2FFFF2
ENDCHAR
STARTCHAR greaterequal
ENCODING 8805
SWIDTH 600 0
DWIDTH 6 0
BBX 6 6 0 0
BITMAP
130000
1CD830
0018E2
1BD830
130000
2FFFF2
ENDCHAR
STARTCHAR house
ENCODING 8962
SWIDTH 600 0
DWIDTH 6 0
BBX 6 7 0 0
BITMAP
00AA00
059950
1B11B1
740047
830038
830038
8FFFF8
ENDCHAR
STARTCHAR revlogicalnot
ENCODING 8976
SWIDTH 600 0
DWIDTH 6 0
BBX 6 3 0 1
BITMAP
2FFFF2
270000
270000
ENDCHAR
STARTCHAR uni231C
ENCODING 8988
SWIDTH 600 0
DWIDTH 6 0
BBX 5 8 1 -1
BITMAP
01FFA0
046000
073000
0A0000
0A0000
190000
360000
420000
ENDCHAR
STARTCHAR uni231D
ENCODING 8989
SWIDTH 600 0
DWIDTH 6 0
BBX 4 8 1 -1
BITMAP
3FF8
0035
0062
0080
0080
0080
0360
0420
ENDCHAR
STARTCHAR uni231E
ENCODING 8990
SWIDTH 600 0
DWIDTH 6 0
BBX 4 8 1 -1
BITMAP
0130
0540
0810
0800
0800
1700
4400
7FF4
ENDCHAR
STARTCHAR uni231F
ENCODING 8991
SWIDTH 600 0
DWIDTH 6 0
BBX 5 8 0 -1
BITMAP
000130
000540
000810
000A00
000A00
002800
005500
9FF200
ENDCHAR
STARTCHAR integraltp
ENCODING 8992
SWIDTH 600 0
DWIDTH 6 0
BBX 3 13 2 -5
BITMAP
0B60
3800
5600
5600
5600
5600
5600
5600
5600
5600
5600
5600
1200
ENDCHAR
STARTCHAR integralbt
ENCODING 8993
SWIDTH 600 0
DWIDTH 6 0
BBX 3 12 1 -2
BITMAP
0550
0560
0560
0560
0560
0560
0560
0560
0560
0550
0740
6C00
ENDCHAR
STARTCHAR uni2500
ENCODING 9472
SWIDTH 600 0
DWIDTH 6 0
BBX 8 1 -1 3
BITMAP
6FFFFFF6
ENDCHAR
STARTCHAR uni2501
ENCODING 9473
SWIDTH 600 0
DWIDTH 6 0
BBX 8 2 -1 2
BITMAP
6FFFFFF6
6FFFFFF6
ENDCHAR
STARTCHAR uni2502
ENCODING 9474
SWIDTH 600 0
DWIDTH 6 0
BBX 2 14 2 -4
BITMAP
66
66
66
66
66
66
66
66
66
66
66
66
66
66
ENDCHAR
STARTCHAR uni2503
ENCODING 9475
SWIDTH 600 0
DWIDTH 6 0
BBX 2 14 2 -4
BITMAP
CC
CC
CC
CC
CC
CC
CC
CC
CC
CC
CC
CC
CC
CC
ENDCHAR
STARTCHAR uni2504
ENCODING 9476
SWIDTH 600 0
DWIDTH 6 0
BBX 6 1 0 3
BITMAP
AAAAAA
ENDCHAR
STARTCHAR uni2505
ENCODING 9477
SWIDTH 600 0
DWIDTH 6 0
BBX 6 2 0 2
BITMAP
AAAAAA
AAAAAA
ENDCHAR
STARTCHAR uni2506
ENCODING 9478
SWIDTH 600 0
DWIDTH 6 0
BBX 2 12 2 -3
BITMAP
66
66
66
00
22
66
66
22
22
66
66
22
ENDCHAR
STARTCHAR uni2507
ENCODING 9479
SWIDTH 600 0
DWIDTH 6 0
BBX 2 11 2 -2
BITMAP
CC
CC
CC
00
CC
CC
CC
00
CC
CC
CC
ENDCHAR
STARTCHAR uni2508
ENCODING 9480
SWIDTH 600 0
DWIDTH 6 0
BBX 6 1 0 3
BITMAP
C9CC9C
ENDCHAR
STARTCHAR uni2509
ENCODING 9481
SWIDTH 600 0
DWIDTH 6 0
BBX 6 2 0 2
BITMAP
C9CC9C
C9CC9C
ENDCHAR
STARTCHAR uni250A
ENCODING 9482
SWIDTH 600 0
DWIDTH 6 0
BBX 2 11 2 -3
BITMAP
66
66
00
66
66
00
66
66
00
66
66
ENDCHAR
STARTCHAR uni250B
ENCODING 9483
SWIDTH 600 0
DWIDTH 6 0
BBX 2 11 2 -3
BITMAP
CC
CC
00
CC
CC
00
CC
CC
00
CC
CC
ENDCHAR
STARTCHAR uni250C
ENCODING 9484
SWIDTH 600 0
DWIDTH 6 0
BBX 5 8 2 -4
BITMAP
6FFF60
660000
660000
660000
660000
660000
660000
440000
ENDCHAR
STARTCHAR uni250D
ENCODING 9485
SWIDTH 600 0
DWIDTH 6 0
BBX 5 9 2 -5
BITMAP
6FFF60
6FFF60
660000
660000
660000
660000
660000
660000
110000
ENDCHAR
STARTCHAR uni250E
ENCODING 9486
SWIDTH 600 0
DWIDTH 6 0
BBX 5 8 2 -4
BITMAP
CFFF60
CC0000
CC0000
CC0000
CC0000
CC0000
CC0000
770000
ENDCHAR
STARTCHAR uni250F
ENCODING 9487
SWIDTH 600 0
DWIDTH 6 0
BBX 5 9 2 -5
BITMAP
CFFF60
CFFF60
CC0000
CC0000
CC0000
CC0000
CC0000
CC0000
330000
ENDCHAR
STARTCHAR uni2510
ENCODING 9488
SWIDTH 600 0
DWIDTH 6 0
BBX 5 8 -1 -4
BITMAP
6FFF60
000660
000660
000660
000660
000660
000660
000440
ENDCHAR
STARTCHAR uni2511
ENCODING 9489
SWIDTH 600 0
DWIDTH 6 0
BBX 5 9 -1 -5
BITMAP
6FFF60
6FFF60
000660
000660
000660
000660
000660
000660
000110
ENDCHAR
STARTCHAR uni2512
ENCODING 9490
SWIDTH 600 0
DWIDTH 6 0
BBX 5 8 -1 -4
BITMAP
6FFFC0
000CC0
000CC0
000CC0
000CC0
000CC0
000CC0
000770
ENDCHAR
STARTCHAR uni2513
ENCODING 9491
SWIDTH 600 0
DWIDTH 6 0
BBX 5 9 -1 -5
BITMAP
6FFFC0
6FFFC0
000CC0
000CC0
000CC0
000CC0
000CC0
000CC0
000330
ENDCHAR
STARTCHAR uni2514
ENCODING 9492
SWIDTH 600 0
DWIDTH 6 0
BBX 5 8 2 3
BITMAP
440000
660000
660000
660000
660000
660000
660000
6FFF60
ENDCHAR
STARTCHAR uni2515
ENCODING 9493
SWIDTH 600 0
DWIDTH 6 0
BBX 5 9 2 2
BITMAP
110000
660000
660000
660000
660000
660000
660000
6FFF60
6FFF60
ENDCHAR
STARTCHAR uni2516
ENCODING 9494
SWIDTH 600 0
DWIDTH 6 0
BBX 5 8 2 3
BITMAP
770000
CC0000
CC0000
CC0000
CC0000
CC0000
CC0000
CFFF60
ENDCHAR
STARTCHAR uni2517
ENCODING 9495
SWIDTH 600 0
DWIDTH 6 0
BBX 5 9 2 2
BITMAP
330000
CC0000
CC0000
CC0000
CC0000
CC0000
CC0000
CFFF60
CFFF60
ENDCHAR
STARTCHAR uni2518
ENCODING 9496
SWIDTH 600 0
DWIDTH 6 0
BBX 5 8 -1 3
BITMAP
000440
000660
000660
000660
000660
000660
000660
6FFF60
ENDCHAR
STARTCHAR uni2519
ENCODING 9497
SWIDTH 600 0
DWIDTH 6 0
BBX 5 9 -1 2
BITMAP
000110
000660
000660
000660
000660
000660
000660
6FFF60
6FFF60
ENDCHAR
STARTCHAR uni251A
ENCODING 9498
SWIDTH 600 0
DWIDTH 6 0
BBX 5 8 -1 3
BITMAP
000770
000CC0
000CC0
000CC0
000CC0
000CC0
000CC0
6FFFC0
ENDCHAR
STARTCHAR uni251B
ENCODING 9499
SWIDTH 600 0
DWIDTH 6 0
BBX 5 9 -1 2
BITMAP
000330
000CC0
000CC0
000CC0
000CC0
000CC0
000CC0
6FFFC0
6FFFC0
ENDCHAR
STARTCHAR uni251C
ENCODING 9500
SWIDTH 600 0
DWIDTH 6 0
BBX 5 15 2 -4
BITMAP
440000
660000
660000
660000
660000
660000
660000
6FFF60
660000
660000
660000
660000
660000
660000
440000
ENDCHAR
STARTCHAR uni251D
ENCODING 9501
SWIDTH 600 0
DWIDTH 6 0
BBX 5 16 2 -5
BITMAP
110000
660000
660000
660000
660000
660000
660000
6FFF60
6FFF60
660000
660000
660000
660000
660000
660000
110000
ENDCHAR
STARTCHAR uni251E
ENCODING 9502
SWIDTH 600 0
DWIDTH 6 0
BBX 5 15 2 -4
BITMAP
770000
CC0000
CC0000
CC0000
CC0000
CC0000
CC0000
CFFF60
660000
660000
660000
660000
660000
660000
440000
ENDCHAR
STARTCHAR uni251F
ENCODING 9503
SWIDTH 600 0
DWIDTH 6 0
BBX 5 15 2 -4
BITMAP
440000
660000
660000
660000
660000
660000
660000
CFFF60
CC0000
CC0000
CC0000
CC0000
CC0000
CC0000
770000
ENDCHAR
STARTCHAR uni2520
ENCODING 9504
SWIDTH 600 0
DWIDTH 6 0
BBX 5 15 2 -4
BITMAP
770000
CC0000
CC0000
CC0000
CC0000
CC0000
CC0000
CFFF60
CC0000
CC0000
CC0000
CC0000
CC0000
CC0000
770000
ENDCHAR
STARTCHAR uni2521
ENCODING 9505
SWIDTH 600 0
DWIDTH 6 0
BBX 5 16 2 -5
BITMAP
330000
CC0000
CC0000
CC0000
CC0000
CC0000
CC0000
CFFF60
CFFF60
660000
660000
660000
660000
660000
660000
110000
ENDCHAR
STARTCHAR uni2522
ENCODING 9506
SWIDTH 600 0
DWIDTH 6 0
BBX 5 16 2 -5
BITMAP
110000
660000
660000
660000
660000
660000
660000
CFFF60
CFFF60
CC0000
CC0000
CC0000
CC0000
CC0000
CC0000
330000
ENDCHAR
STARTCHAR uni2523
ENCODING 9507
SWIDTH 600 0
DWIDTH 6 0
BBX 5 16 2 -5
BITMAP
330000
CC0000
CC0000
CC0000
CC0000
CC0000
CC0000
CFFF60
CFFF60
CC0000
CC0000
CC0000
CC0000
CC0000
CC0000
330000
ENDCHAR
STARTCHAR uni2524
ENCODING 9508
SWIDTH 600 0
DWIDTH 6 0
BBX 5 15 -1 -4
BITMAP
000440
000660
000660
000660
000660
000660
000660
6FFF60
000660
000660
000660
000660
000660
000660
000440
ENDCHAR
STARTCHAR uni2525
ENCODING 9509
SWIDTH 600 0
DWIDTH 6 0
BBX 5 16 -1 -5
BITMAP
000110
000660
000660
000660
000660
000660
000660
6FFF60
6FFF60
000660
000660
000660
000660
000660
000660
000110
ENDCHAR
STARTCHAR uni2526
ENCODING 9510
SWIDTH 600 0
DWIDTH 6 0
BBX 5 15 -1 -4
BITMAP
000770
000CC0
000CC0
000CC0
000CC0
000CC0
000CC0
6FFFC0
000660
000660
000660
000660
000660
000660
000440
ENDCHAR
STARTCHAR uni2527
ENCODING 9511
SWIDTH 600 0
DWIDTH 6 0
BBX 5 15 -1 -4
BITMAP
000440
000660
000660
000660
000660
000660
000660
6FFFC0
000CC0
000CC0
000CC0
000CC0
000CC0
000CC0
000770
ENDCHAR
STARTCHAR uni2528
ENCODING 9512
SWIDTH 600 0
DWIDTH 6 0
BBX 5 15 -1 -4
BITMAP
000770
000CC0
000CC0
000CC0
000CC0
000CC0
000CC0
6FFFC0
000CC0
000CC0
000CC0
000CC0
000CC0
000CC0
000770
ENDCHAR
STARTCHAR uni2529
ENCODING 9513
SWIDTH 600 0
DWIDTH 6 0
BBX 5 16 -1 -5
BITMAP
000330
000CC0
000CC0
000CC0
000CC0
000CC0
000CC0
6FFFC0
6FFFC0
000660
000660
000660
000660
000660
000660
000110
ENDCHAR
STARTCHAR uni252A
ENCODING 9514
SWIDTH 600 0
DWIDTH 6 0
BBX 5 16 -1 -5
BITMAP
000110
000660
000660
000660
000660
000660
000660
6FFFC0
6FFFC0
000CC0
000CC0
000CC0
000CC0
000CC0
000CC0
000330
ENDCHAR
STARTCHAR uni252B
ENCODING 9515
SWIDTH 600 0
DWIDTH 6 0
BBX 5 16 -1 -5
BITMAP
000330
000CC0
000CC0
000CC0
000CC0
000CC0
000CC0
6FFFC0
6FFFC0
000CC0
000CC0
000CC0
000CC0
000CC0
000CC0
000330
ENDCHAR
STARTCHAR uni252C
ENCODING 9516
SWIDTH 600 0
DWIDTH 6 0
BBX 8 8 -1 -4
BITMAP
6FFFFFF6
00066000
00066000
00066000
00066000
00066000
00066000
00044000
ENDCHAR
STARTCHAR uni252D
ENCODING 9517
SWIDTH 600 0
DWIDTH 6 0
BBX 8 9 -1 -5
BITMAP
6FFFFFF6
6FFF6000
00066000
00066000
00066000
00066000
00066000
00066000
00011000
ENDCHAR
STARTCHAR uni252E
ENCODING 9518
SWIDTH 600 0
DWIDTH 6 0
BBX 8 9 -1 -5
BITMAP
6FFFFFF6
0006FFF6
00066000
00066000
00066000
00066000
00066000
00066000
00011000
ENDCHAR
STARTCHAR uni252F
ENCODING 9519
SWIDTH 600 0
DWIDTH 6 0
BBX 8 9 -1 -5
BITMAP
6FFFFFF6
6FFFFFF6
00066000
00066000
00066000
00066000
00066000
00066000
00011000
ENDCHAR
STARTCHAR uni2530
ENCODING 9520
SWIDTH 600 0
DWIDTH 6 0
BBX 8 8 -1 -4
BITMAP
6FFFFFF6
000CC000
000CC000
000CC000
000CC000
000CC000
000CC000
00077000
ENDCHAR
STARTCHAR uni2531
ENCODING 9521
SWIDTH 600 0
DWIDTH 6 0
BBX 8 9 -1 -5
BITMAP
6FFFFFF6
6FFFC000
000CC000
000CC000
000CC000
000CC000
000CC000
000CC000
00033000
ENDCHAR
STARTCHAR uni2532
ENCODING 9522
SWIDTH 600 0
DWIDTH 6 0
BBX 8 9 -1 -5
BITMAP
6FFFFFF6
000CFFF6
000CC000
000CC000
000CC000
000CC000
000CC000
000CC000
00033000
ENDCHAR
STARTCHAR uni2533
ENCODING 9523
SWIDTH 600 0
DWIDTH 6 0
BBX 8 9 -1 -5
BITMAP
6FFFFFF6
6FFFFFF6
000CC000
000CC000
000CC000
000CC000
000CC000
000CC000
00033000
ENDCHAR
STARTCHAR uni2534
ENCODING 9524
SWIDTH 600 0
DWIDTH 6 0
BBX 8 8 -1 3
BITMAP
00044000
00066000
00066000
00066000
00066000
00066000
00066000
6FFFFFF6
ENDCHAR
STARTCHAR uni2535
ENCODING 9525
SWIDTH 600 0
DWIDTH 6 0
BBX 8 9 -1 2
BITMAP
00011000
00066000
00066000
00066000
00066000
00066000
00066000
6FFFFFF6
6FFF6000
ENDCHAR
STARTCHAR uni2536
ENCODING 9526
SWIDTH 600 0
DWIDTH 6 0
BBX 8 9 -1 2
BITMAP
00011000
00066000
00066000
00066000
00066000
00066000
00066000
6FFFFFF6
0006FFF6
ENDCHAR
STARTCHAR uni2537
ENCODING 9527
SWIDTH 600 0
DWIDTH 6 0
BBX 8 9 -1 2
BITMAP
00011000
00066000
00066000
00066000
00066000
00066000
00066000
6FFFFFF6
6FFFFFF6
ENDCHAR
STARTCHAR uni2538
ENCODING 9528
SWIDTH 600 0
DWIDTH 6 0
BBX 8 8 -1 3
BITMAP
00077000
000CC000
000CC000
000CC000
000CC000
000CC000
000CC000
6FFFFFF6
ENDCHAR
STARTCHAR uni2539
ENCODING 9529
SWIDTH 600 0
DWIDTH 6 0
BBX 8 9 -1 2
BITMAP
00033000
000CC000
000CC000
000CC000
000CC000
000CC000
000CC000
6FFFFFF6
6FFFC000
ENDCHAR
STARTCHAR uni253A
ENCODING 9530
SWIDTH 600 0
DWIDTH 6 0
BBX 8 9 -1 2
BITMAP
00033000
000CC000
000CC000
000CC000
000CC000
000CC000
000CC000
6FFFFFF6
000CFFF6
ENDCHAR
STARTCHAR uni253B
ENCODING 9531
SWIDTH 600 0
DWIDTH 6 0
BBX 8 9 -1 2
BITMAP
00033000
000CC000
000CC000
000CC000
000CC000
000CC000
000CC000
6FFFFFF6
6FFFFFF6
ENDCHAR
STARTCHAR uni253C
ENCODING 9532
SWIDTH 600 0
DWIDTH 6 0
BBX 8 15 -1 -4
BITMAP
00044000
00066000
00066000
00066000
00066000
00066000
00066000
6FFFFFF6
00066000
00066000
00066000
00066000
00066000
00066000
00044000
ENDCHAR
STARTCHAR uni253D
ENCODING 9533
SWIDTH 600 0
DWIDTH 6 0
BBX 8 16 -1 -5
BITMAP
00011000
00066000
00066000
00066000
00066000
00066000
00066000
6FFFFFF6
6FFF6000
00066000
00066000
00066000
00066000
00066000
00066000
00011000
ENDCHAR
STARTCHAR uni253E
ENCODING 9534
SWIDTH 600 0
DWIDTH 6 0
BBX 8 16 -1 -5
BITMAP
00011000
00066000
00066000
00066000
00066000
00066000
00066000
6FFFFFF6
0006FFF6
00066000
00066000
00066000
00066000
00066000
00066000
00011000
ENDCHAR
STARTCHAR uni253F
ENCODING 9535
SWIDTH 600 0
DWIDTH 6 0
BBX 8 16 -1 -5
BITMAP
00011000
00066000
00066000
00066000
00066000
00066000
00066000
6FFFFFF6
6FFFFFF6
00066000
00066000
00066000
00066000
00066000
00066000
00011000
ENDCHAR
STARTCHAR uni2540
ENCODING 9536
SWIDTH 600 0
DWIDTH 6 0
BBX 8 15 -1 -4
BITMAP
00077000
000CC000
000CC000
000CC000
000CC000
000CC000
000CC000
6FFFFFF6
00066000
00066000
00066000
00066000
00066000
00066000
00044000
ENDCHAR
STARTCHAR uni2541
ENCODING 9537
SWIDTH 600 0
DWIDTH 6 0
BBX 8 15 -1 -4
BITMAP
00044000
00066000
00066000
00066000
00066000
00066000
00066000
6FFFFFF6
000CC000
000CC000
000CC000
000CC000
000CC000
000CC000
00077000
ENDCHAR
STARTCHAR uni2542
ENCODING 9538
SWIDTH 600 0
DWIDTH 6 0
BBX 8 15 -1 -4
BITMAP
00077000
000CC000
000CC000
000CC000
000CC000
000CC000
000CC000
6FFFFFF6
000CC000
000CC000
000CC000
000CC000
000CC000
000CC000
00077000
ENDCHAR
STARTCHAR uni2543
ENCODING 9539
SWIDTH 600 0
DWIDTH 6 0
BBX 8 16 -1 -5
BITMAP
00033000
000CC000
000CC000
000CC000
000CC000
000CC000
000CC000
6FFFFFF6
6FFFC000
00066000
00066000
00066000
00066000
00066000
00066000
00011000
ENDCHAR
STARTCHAR uni2544
ENCODING 9540
SWIDTH 600 0
DWIDTH 6 0
BBX 8 16 -1 -5
BITMAP
00033000
000CC000
000CC000
000CC000
000CC000
000CC000
000CC000
6FFFFFF6
000CFFF6
00066000
00066000
00066000
00066000
00066000
00066000
00011000
ENDCHAR
STARTCHAR uni2545
ENCODING 9541
SWIDTH 600 0
DWIDTH 6 0
BBX 8 16 -1 -5
BITMAP
00011000
00066000
00066000
00066000
00066000
00066000
00066000
6FFFFFF6
6FFFC000
000CC000
000CC000
000CC000
000CC000
000CC000
000CC000
00033000
ENDCHAR
STARTCHAR uni2546
ENCODING 9542
SWIDTH 600 0
DWIDTH 6 0
BBX 8 16 -1 -5
BITMAP
00011000
00066000
00066000
00066000
00066000
00066000
00066000
6FFFFFF6
000CFFF6
000CC000
000CC000
000CC000
000CC000
000CC000
000CC000
00033000
ENDCHAR
STARTCHAR uni2547
ENCODING 9543
SWIDTH 600 0
DWIDTH 6 0
BBX 8 16 -1 -5
BITMAP
00033000
000CC000
000CC000
000CC000
000CC000
000CC000
000CC000
6FFFFFF6
6FFFFFF6
00066000
00066000
00066000
00066000
00066000
00066000
00011000
ENDCHAR
STARTCHAR uni2548
ENCODING 9544
SWIDTH 600 0
DWIDTH 6 0
BBX 8 16 -1 -5
BITMAP
00011000
00066000
00066000
00066000
00066000
00066000
00066000
6FFFFFF6
6FFFFFF6
000CC000
000CC000
000CC000
000CC000
000CC000
000CC000
00033000
ENDCHAR
STARTCHAR uni2549
ENCODING 9545
SWIDTH 600 0
DWIDTH 6 0
BBX 8 16 -1 -5
BITMAP
00033000
000CC000
000CC000
000CC000
000CC000
000CC000
000CC000
6FFFFFF6
6FFFC000
000CC000
000CC000
000CC000
000CC000
000CC000
000CC000
00033000
ENDCHAR
STARTCHAR uni254A
ENCODING 9546
SWIDTH 600 0
DWIDTH 6 0
BBX 8 16 -1 -5
BITMAP
00033000
000CC000
000CC000
000CC000
000CC000
000CC000
000CC000
6FFFFFF6
000CFFF6
000CC000
000CC000
000CC000
000CC000
000CC000
000CC000
00033000
ENDCHAR
STARTCHAR uni254B
ENCODING 9547
SWIDTH 600 0
DWIDTH 6 0
BBX 8 16 -1 -5
BITMAP
00033000
000CC000
000CC000
000CC000
000CC000
000CC000
000CC000
6FFFFFF6
6FFFFFF6
000CC000
000CC000
000CC000
000CC000
000CC000
000CC000
00033000
ENDCHAR
STARTCHAR uni254C
ENCODING 9548
SWIDTH 600 0
DWIDTH 6 0
BBX 6 1 0 3
BITMAP
4F44F4
ENDCHAR
STARTCHAR uni254D
ENCODING 9549
SWIDTH 600 0
DWIDTH 6 0
BBX 6 2 0 2
BITMAP
4F44F4
4F44F4
ENDCHAR
STARTCHAR uni254E
ENCODING 9550
SWIDTH 600 0
DWIDTH 6 0
BBX 2 9 2 -2
BITMAP
66
66
66
00
00
00
66
66
66
ENDCHAR
STARTCHAR uni254F
ENCODING 9551
SWIDTH 600 0
DWIDTH 6 0
BBX 2 10 2 -2
BITMAP
CC
CC
CC
00
00
00
66
CC
CC
66
ENDCHAR
STARTCHAR uni2550
ENCODING 9552
SWIDTH 600 0
DWIDTH 6 0
BBX 8 2 -1 2
BITMAP
6FFFFFF6
6FFFFFF6
ENDCHAR
STARTCHAR uni2551
ENCODING 9553
SWIDTH 600 0
DWIDTH 6 0
BBX 4 14 1 -4
BITMAP
3993
3993
3993
3993
3993
3993
3993
3993
3993
3993
3993
3993
3993
3993
ENDCHAR
STARTCHAR uni2552
ENCODING 9554
SWIDTH 600 0
DWIDTH 6 0
BBX 5 8 2 -4
BITMAP
6FFF60
6FFF60
660000
660000
660000
660000
660000
550000
ENDCHAR
STARTCHAR uni2553
ENCODING 9555
SWIDTH 600 0
DWIDTH 6 0
BBX 6 8 1 -4
BITMAP
3FFFF6
399300
399300
399300
399300
399300
399300
266200
ENDCHAR
STARTCHAR uni2554
ENCODING 9556
SWIDTH 600 0
DWIDTH 6 0
BBX 6 9 1 -5
BITMAP
3FFFF6
399FF6
399300
399300
399300
399300
399300
398200
140000
ENDCHAR
STARTCHAR uni2555
ENCODING 9557
SWIDTH 600 0
DWIDTH 6 0
BBX 5 8 -1 -4
BITMAP
6FFF60
6FFF60
000660
000660
000660
000660
000660
000550
ENDCHAR
STARTCHAR uni2556
ENCODING 9558
SWIDTH 600 0
DWIDTH 6 0
BBX 6 8 -1 -4
BITMAP
6FFFF3
003993
003993
003993
003993
003993
003993
002662
ENDCHAR
STARTCHAR uni2557
ENCODING 9559
SWIDTH 600 0
DWIDTH 6 0
BBX 6 9 -1 -5
BITMAP
6FFFF3
6FF993
003993
003993
003993
003993
003993
002893
000041
ENDCHAR
STARTCHAR uni2558
ENCODING 9560
SWIDTH 600 0
DWIDTH 6 0
BBX 5 8 2 2
BITMAP
550000
660000
660000
660000
660000
660000
6FFF60
6FFF60
ENDCHAR
STARTCHAR uni2559
ENCODING 9561
SWIDTH 600 0
DWIDTH 6 0
BBX 6 8 1 3
BITMAP
266200
399300
399300
399300
399300
399300
399300
3FFFF6
ENDCHAR
STARTCHAR uni255A
ENCODING 9562
SWIDTH 600 0
DWIDTH 6 0
BBX 6 9 1 2
BITMAP
140000
398200
399300
399300
399300
399300
399300
399FF6
3FFFF6
ENDCHAR
STARTCHAR uni255B
ENCODING 9563
SWIDTH 600 0
DWIDTH 6 0
BBX 5 8 -1 2
BITMAP
000550
000660
000660
000660
000660
000660
6FFF60
6FFF60
ENDCHAR
STARTCHAR uni255C
ENCODING 9564
SWIDTH 600 0
DWIDTH 6 0
BBX 6 8 -1 3
BITMAP
002662
003993
003993
003993
003993
003993
003993
6FFFF3
ENDCHAR
STARTCHAR uni255D
ENCODING 9565
SWIDTH 600 0
DWIDTH 6 0
BBX 6 9 -1 2
BITMAP
000041
002893
003993
003993
003993
003993
003993
6FF993
6FFFF3
ENDCHAR
STARTCHAR uni255E
ENCODING 9566
SWIDTH 600 0
DWIDTH 6 0
BBX 5 14 2 -4
BITMAP
550000
660000
660000
660000
660000
660000
6FFF60
6FFF60
660000
660000
660000
660000
660000
550000
ENDCHAR
STARTCHAR uni255F
ENCODING 9567
SWIDTH 600 0
DWIDTH 6 0
BBX 6 15 1 -4
BITMAP
006200
399300
399300
399300
399300
399300
399300
399FF6
399300
399300
399300
399300
399300
399300
396200
ENDCHAR
STARTCHAR uni2560
ENCODING 9568
SWIDTH 600 0
DWIDTH 6 0
BBX 6 14 1 -4
BITMAP
398200
399300
399300
399300
399300
399300
399FF6
399FF6
399300
399300
399300
399300
399300
398200
ENDCHAR
STARTCHAR uni2561
ENCODING 9569
SWIDTH 600 0
DWIDTH 6 0
BBX 5 14 -1 -4
BITMAP
000550
000660
000660
000660
000660
000660
6FFF60
6FFF60
000660
000660
000660
000660
000660
000550
ENDCHAR
STARTCHAR uni2562
ENCODING 9570
SWIDTH 600 0
DWIDTH 6 0
BBX 6 15 -1 -4
BITMAP
002600
003993
003993
003993
003993
003993
003993
6FF993
003993
003993
003993
003993
003993
003993
002693
ENDCHAR
STARTCHAR uni2563
ENCODING 9571
SWIDTH 600 0
DWIDTH 6 0
BBX 6 14 -1 -4
BITMAP
002893
003993
003993
003993
003993
003993
6FF993
6FF993
003993
003993
003993
003993
003993
002893
ENDCHAR
STARTCHAR uni2564
ENCODING 9572
SWIDTH 600 0
DWIDTH 6 0
BBX 8 8 -1 -4
BITMAP
6FFFFFF6
6FFFFFF6
00066000
00066000
00066000
00066000
00066000
00055000
ENDCHAR
STARTCHAR uni2565
ENCODING 9573
SWIDTH 600 0
DWIDTH 6 0
BBX 8 8 -1 -4
BITMAP
6FFFFFF6
00399300
00399300
00399300
00399300
00399300
00399300
00266200
ENDCHAR
STARTCHAR uni2566
ENCODING 9574
SWIDTH 600 0
DWIDTH 6 0
BBX 8 8 -1 -4
BITMAP
6FFFFFF6
6FF99FF6
00399300
00399300
00399300
00399300
00399300
00288200
ENDCHAR
STARTCHAR uni2567
ENCODING 9575
SWIDTH 600 0
DWIDTH 6 0
BBX 8 8 -1 2
BITMAP
00055000
00066000
00066000
00066000
00066000
00066000
6FFFFFF6
6FFFFFF6
ENDCHAR
STARTCHAR uni2568
ENCODING 9576
SWIDTH 600 0
DWIDTH 6 0
BBX 8 8 -1 3
BITMAP
00266200
00399300
00399300
00399300
00399300
00399300
00399300
6FFFFFF6
ENDCHAR
STARTCHAR uni2569
ENCODING 9577
SWIDTH 600 0
DWIDTH 6 0
BBX 8 8 -1 2
BITMAP
00288200
00399300
00399300
00399300
00399300
00399300
6FF99FF6
6FFFFFF6
ENDCHAR
STARTCHAR uni256A
ENCODING 9578
SWIDTH 600 0
DWIDTH 6 0
BBX 8 14 -1 -4
BITMAP
00055000
00066000
00066000
00066000
00066000
00066000
6FFFFFF6
6FFFFFF6
00066000
00066000
00066000
00066000
00066000
00055000
ENDCHAR
STARTCHAR uni256B
ENCODING 9579
SWIDTH 600 0
DWIDTH 6 0
BBX 8 15 -1 -4
BITMAP
00266200
00399300
00399300
00399300
00399300
00399300
00399300
6FFFFFF6
00399300
00399300
00399300
00399300
00399300
00399300
00266200
ENDCHAR
STARTCHAR uni256C
ENCODING 9580
SWIDTH 600 0
DWIDTH 6 0
BBX 8 14 -1 -4
BITMAP
00288200
00399300
00399300
00399300
00399300
00399300
6FF99FF6
6FF99FF6
00399300
00399300
00399300
00399300
00399300
00288200
ENDCHAR
STARTCHAR uni256D
ENCODING 9581
SWIDTH 600 0
DWIDTH 6 0
BBX 5 8 2 -4
BITMAP
008E60
098200
3A0000
660000
660000
660000
660000
440000
ENDCHAR
STARTCHAR uni256E
ENCODING 9582
SWIDTH 600 0
DWIDTH 6 0
BBX 5 8 -1 -4
BITMAP
6E7000
028900
000A30
000660
000660
000660
000660
000440
ENDCHAR
STARTCHAR uni256F
ENCODING 9583
SWIDTH 600 0
DWIDTH 6 0
BBX 5 8 -1 3
BITMAP
000440
000660
000660
000660
000660
000A30
018900
6E8000
ENDCHAR
STARTCHAR uni2570
ENCODING 9584
SWIDTH 600 0
DWIDTH 6 0
BBX 5 8 2 3
BITMAP
440000
660000
660000
660000
660000
3A0000
098100
008E60
ENDCHAR
STARTCHAR uni2571
ENCODING 9585
SWIDTH 600 0
DWIDTH 6 0
BBX 6 12 0 -3
BITMAP
00000A
00003A
0000A3
0003A0
000A30
003A00
00A300
03A000
0A3000
3A0000
A30000
A00000
ENDCHAR
STARTCHAR uni2572
ENCODING 9586
SWIDTH 600 0
DWIDTH 6 0
BBX 6 12 0 -3
BITMAP
A00000
A30000
3A0000
0A3000
03A000
00A300
003A00
000A30
0003A0
0000A3
00003A
00000A
ENDCHAR
STARTCHAR uni2573
ENCODING 9587
SWIDTH 600 0
DWIDTH 6 0
BBX 6 12 0 -3
BITMAP
A0000A
A3003A
3A00A3
0A33A0
03AA30
00AA00
00AA00
03AA30
0A33A0
3A00A3
A3003A
A0000A
ENDCHAR
STARTCHAR uni2574
ENCODING 9588
SWIDTH 600 0
DWIDTH 6 0
BBX 5 1 -1 3
BITMAP
6FFF60
ENDCHAR
STARTCHAR uni2575
ENCODING 9589
SWIDTH 600 0
DWIDTH 6 0
BBX 2 7 2 3
BITMAP
66
66
66
66
66
66
66
ENDCHAR
STARTCHAR uni2576
ENCODING 9590
SWIDTH 600 0
DWIDTH 6 0
BBX 5 1 2 3
BITMAP
6FFF60
ENDCHAR
STARTCHAR uni2577
ENCODING 9591
SWIDTH 600 0
DWIDTH 6 0
BBX 2 7 2 -4
BITMAP
66
66
66
66
66
66
66
ENDCHAR
STARTCHAR uni2578
ENCODING 9592
SWIDTH 600 0
DWIDTH 6 0
BBX 5 2 -1 2
BITMAP
6FFF60
6FFF60
ENDCHAR
STARTCHAR uni2579
ENCODING 9593
SWIDTH 600 0
DWIDTH 6 0
BBX 2 7 2 3
BITMAP
CC
CC
CC
CC
CC
CC
CC
ENDCHAR
STARTCHAR uni257A
ENCODING 9594
SWIDTH 600 0
DWIDTH 6 0
BBX 5 2 2 2
BITMAP
6FFF60
6FFF60
ENDCHAR
STARTCHAR uni257B
ENCODING 9595
SWIDTH 600 0
DWIDTH 6 0
BBX 2 7 2 -4
BITMAP
CC
CC
CC
CC
CC
CC
CC
ENDCHAR
STARTCHAR uni257C
ENCODING 9596
SWIDTH 600 0
DWIDTH 6 0
BBX 8 3 -1 2
BITMAP
00026662
6FFFFFF6
00026662
ENDCHAR
STARTCHAR uni257D
ENCODING 9597
SWIDTH 600 0
DWIDTH 6 0
BBX 2 14 2 -4
BITMAP
66
66
66
66
66
66
88
CC
CC
CC
CC
CC
CC
CC
ENDCHAR
STARTCHAR uni257E
ENCODING 9598
SWIDTH 600 0
DWIDTH 6 0
BBX 8 3 -1 2
BITMAP
26662000
6FFFFFF6
26662000
ENDCHAR
STARTCHAR uni257F
ENCODING 9599
SWIDTH 600 0
DWIDTH 6 0
BBX 2 14 2 -4
BITMAP
CC
CC
CC
CC
CC
CC
CC
88
66
66
66
66
66
66
ENDCHAR
STARTCHAR uni2580
ENCODING 9600
SWIDTH 600 0
DWIDTH 6 0
BBX 6 7 0 3
BITMAP
FFFFFF
FFFFFF
FFFFFF
FFFFFF
FFFFFF
FFFFFF
FFFFFF
ENDCHAR
STARTCHAR uni2581
ENCODING 9601
SWIDTH 600 0
DWIDTH 6 0
BBX 6 2 0 -4
BITMAP
FFFFFF
FFFFFF
ENDCHAR
STARTCHAR uni2582
ENCODING 9602
SWIDTH 600 0
DWIDTH 6 0
BBX 6 3 0 -4
BITMAP
FFFFFF
FFFFFF
FFFFFF
ENDCHAR
STARTCHAR uni2583
ENCODING 9603
SWIDTH 600 0
DWIDTH 6 0
BBX 6 5 0 -4
BITMAP
FFFFFF
FFFFFF
FFFFFF
FFFFFF
FFFFFF
ENDCHAR
STARTCHAR uni2584
ENCODING 9604
SWIDTH 600 0
DWIDTH 6 0
BBX 6 7 0 -4
BITMAP
FFFFFF
FFFFFF
FFFFFF
FFFFFF
FFFFFF
FFFFFF
FFFFFF
ENDCHAR
STARTCHAR uni2585
ENCODING 9605
SWIDTH 600 0
DWIDTH 6 0
BBX 6 9 0 -4
BITMAP
FFFFFF
FFFFFF
FFFFFF
FFFFFF
FFFFFF
FFFFFF
FFFFFF
FFFFFF
FFFFFF
ENDCHAR
STARTCHAR uni2586
ENCODING 9606
SWIDTH 600 0
DWIDTH 6 0
BBX 6 11 0 -4
BITMAP
FFFFFF
FFFFFF
FFFFFF
FFFFFF
FFFFFF
FFFFFF
FFFFFF
FFFFFF
FFFFFF
FFFFFF
FFFFFF
ENDCHAR
STARTCHAR uni2587
ENCODING 9607
SWIDTH 600 0
DWIDTH 6 0
BBX 6 12 0 -4
BITMAP
FFFFFF
FFFFFF
FFFFFF
FFFFFF
FFFFFF
FFFFFF
FFFFFF
FFFFFF
FFFFFF
FFFFFF
FFFFFF
FFFFFF
ENDCHAR
STARTCHAR uni2588
ENCODING 9608
SWIDTH 600 0
DWIDTH 6 0
BBX 6 14 0 -4
BITMAP
FFFFFF
FFFFFF
FFFFFF
FFFFFF
FFFFFF
FFFFFF
FFFFFF
FFFFFF
FFFFFF
FFFFFF
FFFFFF
FFFFFF
FFFFFF
FFFFFF
ENDCHAR
STARTCHAR uni2589
ENCODING 9609
SWIDTH 600 0
DWIDTH 6 0
BBX 6 14 0 -4
BITMAP
FFFFF4
FFFFF4
FFFFF4
FFFFF4
FFFFF4
FFFFF4
FFFFF4
FFFFF4
FFFFF4
FFFFF4
FFFFF4
FFFFF4
FFFFF4
FFFFF4
ENDCHAR
STARTCHAR uni258A
ENCODING 9610
SWIDTH 600 0
DWIDTH 6 0
BBX 5 14 0 -4
BITMAP
FFFF80
FFFF80
FFFF80
FFFF80
FFFF80
FFFF80
FFFF80
FFFF80
FFFF80
FFFF80
FFFF80
FFFF80
FFFF80
FFFF80
ENDCHAR
STARTCHAR uni258B
ENCODING 9611
SWIDTH 600 0
DWIDTH 6 0
BBX 4 14 0 -4
BITMAP
FFFB
FFFB
FFFB
FFFB
FFFB
FFFB
FFFB
FFFB
FFFB
FFFB
FFFB
FFFB
FFFB
FFFB
ENDCHAR
STARTCHAR uni258C
ENCODING 9612
SWIDTH 600 0
DWIDTH 6 0
BBX 3 14 0 -4
BITMAP
FFF0
FFF0
FFF0
FFF0
FFF0
FFF0
FFF0
FFF0
FFF0
FFF0
FFF0
FFF0
FFF0
FFF0
ENDCHAR
STARTCHAR uni258D
ENCODING 9613
SWIDTH 600 0
DWIDTH 6 0
BBX 3 14 0 -4
BITMAP
FF40
FF40
FF40
FF40
FF40
FF40
FF40
FF40
FF40
FF40
FF40
FF40
FF40
FF40
ENDCHAR
STARTCHAR uni258E
ENCODING 9614
SWIDTH 600 0
DWIDTH 6 0
BBX 2 14 0 -4
BITMAP
F8
F8
F8
F8
F8
F8
F8
F8
F8
F8
F8
F8
F8
F8
ENDCHAR
STARTCHAR uni258F
ENCODING 9615
SWIDTH 600 0
DWIDTH 6 0
BBX 1 14 0 -4
BITMAP
B0
B0
B0
B0
B0
B0
B0
B0
B0
B0
B0
B0
B0
B0
ENDCHAR
STARTCHAR uni2590
ENCODING 9616
SWIDTH 600 0
DWIDTH 6 0
BBX 3 14 3 -4
BITMAP
FFF0
FFF0
FFF0
FFF0
FFF0
FFF0
FFF0
FFF0
FFF0
FFF0
FFF0
FFF0
FFF0
FFF0
ENDCHAR
STARTCHAR uni2591
ENCODING 9617
SWIDTH 600 0
DWIDTH 6 0
BBX 7 13 -1 -4
BITMAP
13333330
12222210
12222210
12222210
12222210
12222210
12222210
12222210
12222210
12222210
12222210
12222210
13333310
ENDCHAR
STARTCHAR uni2592
ENCODING 9618
SWIDTH 600 0
DWIDTH 6 0
BBX 7 14 -1 -4
BITMAP
06666660
11212100
15555530
15555530
15555530
15555530
15555530
15555530
15555530
15555530
15555530
15555530
15555530
36666630
ENDCHAR
STARTCHAR uni2593
ENCODING 9619
SWIDTH 600 0
DWIDTH 6 0
BBX 7 15 -1 -5
BITMAP
09999990
38888850
3AAAAA70
3AAAAA70
3AAAAA70
3AAAAA70
3AAAAA70
3AAAAA70
3AAAAA70
3AAAAA70
3AAAAA70
3AAAAA70
3AAAAA70
07777770
66666600
ENDCHAR
STARTCHAR uni2594
ENCODING 9620
SWIDTH 600 0
DWIDTH 6 0
BBX 6 2 0 8
BITMAP
FFFFFF
FFFFFF
ENDCHAR
STARTCHAR uni2595
ENCODING 9621
SWIDTH 600 0
DWIDTH 6 0
BBX 1 14 5 -4
BITMAP
B0
B0
B0
B0
B0
B0
B0
B0
B0
B0
B0
B0
B0
B0
ENDCHAR
STARTCHAR uni2596
ENCODING 9622
SWIDTH 600 0
DWIDTH 6 0
BBX 3 7 0 -4
BITMAP
FFF0
FFF0
FFF0
FFF0
FFF0
FFF0
FFF0
ENDCHAR
STARTCHAR uni2597
ENCODING 9623
SWIDTH 600 0
DWIDTH 6 0
BBX 3 7 3 -4
BITMAP
FFF0
FFF0
FFF0
FFF0
FFF0
FFF0
FFF0
ENDCHAR
STARTCHAR uni2598
ENCODING 9624
SWIDTH 600 0
DWIDTH 6 0
BBX 3 7 0 3
BITMAP
FFF0
FFF0
FFF0
FFF0
FFF0
FFF0
FFF0
ENDCHAR
STARTCHAR uni2599
ENCODING 9625
SWIDTH 600 0
DWIDTH 6 0
BBX 6 14 0 -4
BITMAP
FFF000
FFF000
FFF000
FFF000
FFF000
FFF000
FFF000
FFFFFF
FFFFFF
FFFFFF
FFFFFF
FFFFFF
FFFFFF
FFFFFF
ENDCHAR
STARTCHAR uni259A
ENCODING 9626
SWIDTH 600 0
DWIDTH 6 0
BBX 6 14 0 -4
BITMAP
FFF000
FFF000
FFF000
FFF000
FFF000
FFF000
FFF000
000FFF
000FFF
000FFF
000FFF
000FFF
000FFF
000FFF
ENDCHAR
STARTCHAR uni259B
ENCODING 9627
SWIDTH 600 0
DWIDTH 6 0
BBX 6 14 0 -4
BITMAP
FFFFFF
FFFFFF
FFFFFF
FFFFFF
FFFFFF
FFFFFF
FFFFFF
FFF000
FFF000
FFF000
FFF000
FFF000
FFF000
FFF000
ENDCHAR
STARTCHAR uni259C
ENCODING 9628
SWIDTH 600 0
DWIDTH 6 0
BBX 6 14 0 -4
BITMAP
FFFFFF
FFFFFF
FFFFFF
FFFFFF
FFFFFF
FFFFFF
FFFFFF
000FFF
000FFF
000FFF
000FFF
000FFF
000FFF
000FFF
ENDCHAR
STARTCHAR uni259D
ENCODING 9629
SWIDTH 600 0
DWIDTH 6 0
BBX 3 7 3 3
BITMAP
FFF0
FFF0
FFF0
FFF0
FFF0
FFF0
FFF0
ENDCHAR
STARTCHAR uni259E
ENCODING 9630
SWIDTH 600 0
DWIDTH 6 0
BBX 6 14 0 -4
BITMAP
000FFF
000FFF
000FFF
000FFF
000FFF
000FFF
000FFF
FFF000
FFF000
FFF000
FFF000
FFF000
FFF000
FFF000
ENDCHAR
STARTCHAR uni259F
ENCODING 9631
SWIDTH 600 0
DWIDTH 6 0
BBX 6 14 0 -4
BITMAP
000FFF
000FFF
000FFF
000FFF
000FFF
000FFF
000FFF
FFFFFF
FFFFFF
FFFFFF
FFFFFF
FFFFFF
FFFFFF
FFFFFF
ENDCHAR
STARTCHAR uni25A0
ENCODING 9632
SWIDTH 600 0
DWIDTH 6 0
BBX 6 4 0 1
BITMAP
2FFFF2
2FFFF2
2FFFF2
2FFFF2
ENDCHAR
STARTCHAR uni25A1
ENCODING 9633
SWIDTH 600 0
DWIDTH 6 0
BBX 6 5 0 1
BITMAP
4FFFF4
440044
440044
440044
4FFFF4
ENDCHAR
STARTCHAR uni25AA
ENCODING 9642
SWIDTH 600 0
DWIDTH 6 0
BBX 4 3 1 1
BITMAP
5FF5
5FF5
5FF5
ENDCHAR
STARTCHAR uni25AB
ENCODING 9643
SWIDTH 600 0
DWIDTH 6 0
BBX 4 3 1 1
BITMAP
7FF7
7007
7FF7
ENDCHAR
STARTCHAR filledrect
ENCODING 9644
SWIDTH 600 0
DWIDTH 6 0
BBX 6 1 0 2
BITMAP
FFFFFF
ENDCHAR
STARTCHAR triagup
ENCODING 9650
SWIDTH 600 0
DWIDTH 6 0
BBX 6 5 0 1
BITMAP
004400
00BB00
03FF30
0AFFA0
2FFFF2
ENDCHAR
STARTCHAR uni25B3
ENCODING 9651
SWIDTH 600 0
DWIDTH 6 0
BBX 6 5 0 1
BITMAP
002200
003300
021120
040040
2FFFF2
ENDCHAR
STARTCHAR uni25B4
ENCODING 9652
SWIDTH 600 0
DWIDTH 6 0
BBX 4 3 1 1
BITMAP
0440
0CC0
5FF5
ENDCHAR
STARTCHAR uni25B5
ENCODING 9653
SWIDTH 600 0
DWIDTH 6 0
BBX 4 3 1 1
BITMAP
0220
1221
8FF8
ENDCHAR
STARTCHAR uni25B6
ENCODING 9654
SWIDTH 600 0
DWIDTH 6 0
BBX 6 5 0 1
BITMAP
592000
6FFA20
6FFFD3
6FD600
450000
ENDCHAR
STARTCHAR uni25B7
ENCODING 9655
SWIDTH 600 0
DWIDTH 6 0
BBX 6 5 0 1
BITMAP
592000
638920
6102B3
625500
450000
ENDCHAR
STARTCHAR uni25B8
ENCODING 9656
SWIDTH 600 0
DWIDTH 6 0
BBX 4 3 1 1
BITMAP
4920
5FE3
4920
ENDCHAR
STARTCHAR uni25B9
ENCODING 9657
SWIDTH 600 0
DWIDTH 6 0
BBX 4 4 1 1
BITMAP
6600
6283
6283
6600
ENDCHAR
STARTCHAR triagrt
ENCODING 9658
SWIDTH 600 0
DWIDTH 6 0
BBX 6 5 0 1
BITMAP
A82000
CFFB50
CFFFF9
CFD710
740000
ENDCHAR
STARTCHAR triagdn
ENCODING 9660
SWIDTH 600 0
DWIDTH 6 0
BBX 6 5 0 1
BITMAP
2FFFF2
0AFFA0
03FF30
00BB00
003300
ENDCHAR
STARTCHAR uni25BD
ENCODING 9661
SWIDTH 600 0
DWIDTH 6 0
BBX 6 5 0 1
BITMAP
2FFFF2
030030
021120
003300
002200
ENDCHAR
STARTCHAR uni25BE
ENCODING 9662
SWIDTH 600 0
DWIDTH 6 0
BBX 4 3 1 1
BITMAP
5FF5
0CC0
0440
ENDCHAR
STARTCHAR uni25BF
ENCODING 9663
SWIDTH 600 0
DWIDTH 6 0
BBX 4 3 1 1
BITMAP
8FF8
1221
0220
ENDCHAR
STARTCHAR uni25C0
ENCODING 9664
SWIDTH 600 0
DWIDTH 6 0
BBX 6 5 0 1
BITMAP
000295
02AFF6
3DFFF6
006DF6
000054
ENDCHAR
STARTCHAR uni25C1
ENCODING 9665
SWIDTH 600 0
DWIDTH 6 0
BBX 6 5 0 1
BITMAP
000295
029836
3B2016
005526
000054
ENDCHAR
STARTCHAR uni25C2
ENCODING 9666
SWIDTH 600 0
DWIDTH 6 0
BBX 4 3 1 1
BITMAP
0294
3EF5
0294
ENDCHAR
STARTCHAR uni25C3
ENCODING 9667
SWIDTH 600 0
DWIDTH 6 0
BBX 4 4 1 1
BITMAP
0066
3826
3826
0066
ENDCHAR
STARTCHAR triaglf
ENCODING 9668
SWIDTH 600 0
DWIDTH 6 0
BBX 6 5 0 1
BITMAP
00028A
05BFFC
9FFFFC
017DFC
000047
ENDCHAR
STARTCHAR uni25C6
ENCODING 9670
SWIDTH 600 0
DWIDTH 6 0
BBX 6 5 0 1
BITMAP
008800
09FF90
6FFFF6
09FF90
008800
ENDCHAR
STARTCHAR uni25C9
ENCODING 9673
SWIDTH 600 0
DWIDTH 6 0
BBX 6 5 0 1
BITMAP
07EE70
4AEEA4
77FF77
4ADDA4
07EE70
ENDCHAR
STARTCHAR lozenge
ENCODING 9674
SWIDTH 600 0
DWIDTH 6 0
BBX 4 7 1 0
BITMAP
0990
1AA1
8338
B00B
8338
1AA1
0990
ENDCHAR
STARTCHAR uni25CB
ENCODING 9675
SWIDTH 600 0
DWIDTH 6 0
BBX 6 5 0 1
BITMAP
06EE60
2A11A2
540045
2A11A2
06EE60
ENDCHAR
STARTCHAR uni25CC
ENCODING 9676
SWIDTH 600 0
DWIDTH 6 0
BBX 6 5 0 0
BITMAP
077730
340070
710044
340070
077730
ENDCHAR
STARTCHAR uni25CF
ENCODING 9679
SWIDTH 600 0
DWIDTH 6 0
BBX 6 4 0 1
BITMAP
06EE60
2FFFF2
2FFFF2
07EE70
ENDCHAR
STARTCHAR invbullet
ENCODING 9688
SWIDTH 600 0
DWIDTH 6 0
BBX 4 4 1 1
BITMAP
7FF7
5225
5225
7FF7
ENDCHAR
STARTCHAR invcircle
ENCODING 9689
SWIDTH 600 0
DWIDTH 6 0
BBX 6 5 0 1
BITMAP
4A22A4
34EE43
1AFFA1
38FF83
4A77A4
ENDCHAR
STARTCHAR uni25E6
ENCODING 9702
SWIDTH 600 0
DWIDTH 6 0
BBX 4 3 1 1
BITMAP
2CE3
9247
6EB1
ENDCHAR
STARTCHAR uni2610
ENCODING 9744
SWIDTH 600 0
DWIDTH 6 0
BBX 8 7 -1 0
BITMAP
2EFFFFF4
43000074
43000074
43000074
43000074
43000074
4FFFFFE2
ENDCHAR
STARTCHAR uni2611
ENCODING 9745
SWIDTH 600 0
DWIDTH 6 0
BBX 8 8 -1 0
BITMAP
0000002A
2EFFFFF4
430007C4
43914974
4339C174
430B8074
43000074
4FFFFFE2
ENDCHAR
STARTCHAR uni2615
ENCODING 9749
SWIDTH 600 0
DWIDTH 6 0
BBX 8 7 -1 0
BITMAP
06DEC200
2A202700
47DF9520
48DFD823
17000166
0A414DC1
02BEC300
ENDCHAR
STARTCHAR smileface
ENCODING 9786
SWIDTH 600 0
DWIDTH 6 0
BBX 6 6 0 0
BITMAP
08EE80
79CCA7
800008
852258
78EE87
08EE80
ENDCHAR
STARTCHAR invsmileface
ENCODING 9787
SWIDTH 600 0
DWIDTH 6 0
BBX 6 5 0 1
BITMAP
08EE80
7DAAC6
AC77CA
7BDDB7
08EE80
ENDCHAR
STARTCHAR sun
ENCODING 9788
SWIDTH 600 0
DWIDTH 6 0
BBX 6 6 0 0
BITMAP
354653
0CFFB0
FC12CF
081190
2ABDB1
114422
ENDCHAR
STARTCHAR female
ENCODING 9792
SWIDTH 600 0
DWIDTH 6 0
BBX 6 8 0 -1
BITMAP
06EE60
2A11A2
540055
2A11A2
06EE60
0BFFB0
005500
001100
ENDCHAR
STARTCHAR male
ENCODING 9794
SWIDTH 600 0
DWIDTH 6 0
BBX 8 7 -1 0
BITMAP
000058B1
000008B2
03CEC671
0B317610
19000900
0C317600
03CE9000
ENDCHAR
STARTCHAR spade
ENCODING 9824
SWIDTH 600 0
DWIDTH 6 0
BBX 6 7 0 0
BITMAP
008800
09FF90
7FFFF7
DFFFFD
9EBBE9
02CC20
0EFFE0
ENDCHAR
STARTCHAR club
ENCODING 9827
SWIDTH 600 0
DWIDTH 6 0
BBX 6 7 0 0
BITMAP
03DD20
06FF60
27EE72
CFFFFC
8ECCF8
02CC20
0EFFE0
ENDCHAR
STARTCHAR heart
ENCODING 9829
SWIDTH 600 0
DWIDTH 6 0
BBX 6 7 0 0
BITMAP
6E88E6
DFFFFD
DFFFFD
9FFFF9
2EFFE2
05FF50
007700
ENDCHAR
STARTCHAR diamond
ENCODING 9830
SWIDTH 600 0
DWIDTH 6 0
BBX 6 7 0 0
BITMAP
007700
04FF40
3EFFE3
BFFFFB
3EFFE3
04FF40
007700
ENDCHAR
STARTCHAR musicalnote
ENCODING 9834
SWIDTH 600 0
DWIDTH 6 0
BBX 6 7 0 0
BITMAP
001C10
001990
001853
001842
001800
0BE700
2EC200
ENDCHAR
STARTCHAR musicalnotedbl
ENCODING 9835
SWIDTH 600 0
DWIDTH 6 0
BBX 6 8 0 0
BITMAP
002478
00DFFE
00CC9B
008008
008008
008008
8EA6EB
BE58E4
ENDCHAR
STARTCHAR uni2713
ENCODING 10003
SWIDTH 600 0
DWIDTH 6 0
BBX 6 9 0 -1
BITMAP
000002
00003A
0001A0
000820
502800
828100
199000
0B6000
010000
ENDCHAR
STARTCHAR uni2752
ENCODING 10066
SWIDTH 600 0
DWIDTH 6 0
BBX 6 5 0 1
BITMAP
2EFFF4
420064
420064
420064
4FFFE2
ENDCHAR
STARTCHAR uni2764
ENCODING 10084
SWIDTH 600 0
DWIDTH 6 0
BBX 8 7 -1 0
BITMAP
2CE77EC2
9FFEEFF9
AFFFFFFA
7FFFFFF6
0BFFFFB0
007FF700
00066000
ENDCHAR
STARTCHAR uni27E6
ENCODING 10214
SWIDTH 600 0
DWIDTH 6 0
BBX 6 9 0 -2
BITMAP
007BFA
007900
007800
019600
049300
068000
078000
077000
1EFF10
ENDCHAR
STARTCHAR uni27E7
ENCODING 10215
SWIDTH 600 0
DWIDTH 6 0
BBX 5 9 0 -2
BITMAP
03FEB0
000680
000780
001950
005920
007900
007900
008800
CFF500
ENDCHAR
STARTCHAR uni2E18
ENCODING 11800
SWIDTH 600 0
DWIDTH 6 0
BBX 5 7 0 -2
BITMAP
000D20
000000
003700
02D500
0B8300
2B1520
0AE900
ENDCHAR
STARTCHAR uni2E22
ENCODING 11810
SWIDTH 600 0
DWIDTH 6 0
BBX 4 5 2 2
BITMAP
1FFA
4600
7300
9000
8000
ENDCHAR
STARTCHAR uni2E23
ENCODING 11811
SWIDTH 600 0
DWIDTH 6 0
BBX 4 5 1 2
BITMAP
3FF8
0035
0062
0090
0080
ENDCHAR
STARTCHAR uni2E24
ENCODING 11812
SWIDTH 600 0
DWIDTH 6 0
BBX 4 5 1 -2
BITMAP
0800
2700
4400
7100
AFF1
ENDCHAR
STARTCHAR uni2E25
ENCODING 11813
SWIDTH 600 0
DWIDTH 6 0
BBX 4 5 0 -2
BITMAP
0008
0027
0055
0082
CFE0
ENDCHAR
STARTCHAR uniE0A0
ENCODING 57504
SWIDTH 600 0
DWIDTH 6 0
BBX 5 13 1 -3
BITMAP
C00000
C00500
C05F70
C04D40
C00C00
C00C00
901C00
03C400
5B2000
C10000
C00000
C00000
C00000
ENDCHAR
STARTCHAR uniE0A1
ENCODING 57505
SWIDTH 600 0
DWIDTH 6 0
BBX 6 11 0 -2
BITMAP
280000
280000
280000
280000
2FFC00
000000
00E182
00B682
009982
00A4B2
00A0D2
ENDCHAR
STARTCHAR uniE0A2
ENCODING 57506
SWIDTH 600 0
DWIDTH 6 0
BBX 6 10 0 -1
BITMAP
03DD30
094490
0A00A0
0A00A0
7FFFF7
8F65F8
8F56F8
8FA9F8
8F88F8
7FFFF7
ENDCHAR
STARTCHAR uniE0B0
ENCODING 57520
SWIDTH 600 0
DWIDTH 6 0
BBX 6 13 0 -3
BITMAP
700000
F60000
FF5000
FFF400
FFFE30
FFFFE2
FFFFFC
FFFFE2
FFFE30
FFF400
FF5000
F60000
700000
ENDCHAR
STARTCHAR uniE0B1
ENCODING 57521
SWIDTH 600 0
DWIDTH 6 0
BBX 6 12 0 -2
BITMAP
910000
2A1000
03A000
003A00
000390
000049
000049
000390
003A00
03A000
2A1000
910000
ENDCHAR
STARTCHAR uniE0B2
ENCODING 57522
SWIDTH 600 0
DWIDTH 6 0
BBX 7 13 0 -3
BITMAP
00000520
00005F20
0004FF20
003EFF20
03EFFF20
2EFFFF20
CFFFFF20
2EFFFF20
03EFFF20
003EFF20
0004FF20
00005F20
00000520
ENDCHAR
STARTCHAR uniE0B3
ENCODING 57523
SWIDTH 600 0
DWIDTH 6 0
BBX 6 12 0 -2
BITMAP
000019
0001A2
000A30
00A300
093000
940000
940000
093000
00A300
000A30
0001A2
000019
ENDCHAR
STARTCHAR f_i
ENCODING 64257
SWIDTH 600 0
DWIDTH 6 0
BBX 6 7 0 0
BITMAP
00AE6A
03A100
1FF792
0930B0
0B00B0
0B0390
380660
ENDCHAR
STARTCHAR f_l
ENCODING 64258
SWIDTH 600 0
DWIDTH 6 0
BBX 6 7 0 0
BITMAP
00AE68
03A174
1FF7A1
0930B0
0B01A0
0B0470
3805B0
ENDCHAR
STARTCHAR uniFE0E
ENCODING 65038
SWIDTH 600 0
DWIDTH 6 0
BBX 6 7 0 0
BITMAP
699996
900009
B9229B
044440
044440
044440
029920
ENDCHAR
STARTCHAR uniFE0F
ENCODING 65039
SWIDTH 600 0
DWIDTH 6 0
BBX 6 6 0 0
BITMAP
047740
084490
C9449C
F4664F
042240
047740
ENDCHAR
STARTCHAR uniFEFF
ENCODING 65279
SWIDTH 600 0
DWIDTH 6 0
BBX 1 1 0 0
BITMAP
00
ENDCHAR
STARTCHAR u1F3B5
ENCODING 127925
SWIDTH 600 0
DWIDTH 6 0
BBX 6 8 0 0
BITMAP
000200
001E40
001AC1
001853
001831
001800
0BE700
2EC200
ENDCHAR
STARTCHAR u1F3B6
ENCODING 127926
SWIDTH 600 0
DWIDTH 6 0
BBX 6 8 0 0
BITMAP
002478
00DFFE
00CC9B
008008
008008
008008
8EA6EB
BE58E4
ENDCHAR
STARTCHAR u1F4A9
ENCODING 128169
SWIDTH 600 0
DWIDTH 6 0
BBX 6 7 0 0
BITMAP
016910
08FF80
3EFFE3
7B99B7
7FFFF7
EC22CE
8DFFD8
ENDCHAR
STARTCHAR u1F512
ENCODING 128274
SWIDTH 600 0
DWIDTH 6 0
BBX 6 10 0 -1
BITMAP
03DD30
094490
0A00A0
0A00A0
7FFFF7
8F65F8
8F56F8
8FA9F8
8F88F8
7FFFF7
ENDCHAR
STARTCHAR u1F916
ENCODING 129302
SWIDTH 600 0
DWIDTH 6 0
BBX 8 6 -1 0
BITMAP
01AEEA10
09BFFB90
3A8999A3
3B9EE9B3
08655780
009EE800
ENDCHAR
STARTCHAR .notdef
ENCODING -1
SWIDTH 600 0
DWIDTH 6 0
BBX 6 7 0 0
BITMAP
5FFFF5
5A22A5
549955
549845
558855
5B11B5
5FFFF5
ENDCHAR
STARTCHAR uni00470303
ENCODING -1
SWIDTH 600 0
DWIDTH 6 0
BBX 6 10 0 0
BITMAP
000100
004E59
0081C7
007ED2
08A135
1C0000
480AF5
570083
2C21B0
07EE70
ENDCHAR
STARTCHAR uni004C00B7004C
ENCODING -1
SWIDTH 600 0
DWIDTH 6 0
BBX 6 7 0 0
BITMAP
0B00B0
0B00B0
39D590
66D760
920730
B00A10
EF6DF7
ENDCHAR
STARTCHAR uni01320301
ENCODING -1
SWIDTH 600 0
DWIDTH 6 0
BBX 7 11 0 -2
BITMAP
00480390
02911A10
05603800
08406600
0B109300
0C00C100
2A00C000
4702A000
74057000
000A4000
00BB0000
ENDCHAR
STARTCHAR uni00670303
ENCODING -1
SWIDTH 600 0
DWIDTH 6 0
BBX 6 10 0 -2
BITMAP
005927
0082E4
000000
04CE96
1C31B3
5600B1
6A38C0
1AC790
412950
5EE900
ENDCHAR
STARTCHAR uni006C00B7006C
ENCODING -1
SWIDTH 600 0
DWIDTH 6 0
BBX 6 7 0 0
BITMAP
FF1DF2
090090
19D490
46D560
820630
B21A31
7E56E6
ENDCHAR
STARTCHAR uni01330301
ENCODING -1
SWIDTH 600 0
DWIDTH 6 0
BBX 7 10 0 -2
BITMAP
00570A10
03808400
00000000
0750C000
0A21B000
0C048000
1B085000
480B1000
002C0000
02E60000
ENDCHAR
STARTCHAR uni014A.a
ENCODING -1
SWIDTH 600 0
DWIDTH 6 0
BBX 6 9 0 -2
BITMAP
08700B
0AA039
0B9156
1A4683
470AA0
7409A0
A106A0
000670
008D10
ENDCHAR
STARTCHAR a.a
ENCODING -1
SWIDTH 600 0
DWIDTH 6 0
BBX 6 5 0 0
BITMAP
03BFB0
0530B2
06BEF0
5949C0
4ED790
ENDCHAR
STARTCHAR agrave.a
ENCODING -1
SWIDTH 600 0
DWIDTH 6 0
BBX 6 8 0 0
BITMAP
002900
000730
000000
03BFB0
0530B2
06BEF0
5949C0
4ED790
ENDCHAR
STARTCHAR aacute.a
ENCODING -1
SWIDTH 600 0
DWIDTH 6 0
BBX 6 8 0 0
BITMAP
0001A0
000920
000000
03BFB0
0530B2
06BEF0
5949C0
4ED790
ENDCHAR
STARTCHAR acircumflex.a
ENCODING -1
SWIDTH 600 0
DWIDTH 6 0
BBX 6 8 0 0
BITMAP
002C80
008180
000000
03BFB0
0530B2
06BEF0
5949C0
4ED790
ENDCHAR
STARTCHAR atilde.a
ENCODING -1
SWIDTH 600 0
DWIDTH 6 0
BBX 6 8 0 0
BITMAP
006936
0083E2
000000
03BFB0
0530B2
06BEF0
5949C0
4ED790
ENDCHAR
STARTCHAR adieresis.a
ENCODING -1
SWIDTH 600 0
DWIDTH 6 0
BBX 6 7 0 0
BITMAP
0082A1
000000
03BFB0
0530B2
06BEF0
5949C0
4ED790
ENDCHAR
STARTCHAR amacron.a
ENCODING -1
SWIDTH 600 0
DWIDTH 6 0
BBX 6 7 0 0
BITMAP
009FE0
000000
03BFB0
0530B2
06BEF0
5949C0
4ED790
ENDCHAR
STARTCHAR abreve.a
ENCODING -1
SWIDTH 600 0
DWIDTH 6 0
BBX 6 7 0 0
BITMAP
009174
005E90
03BFB0
0530B2
06BEF0
5949C0
4ED790
ENDCHAR
STARTCHAR aring.a
ENCODING -1
SWIDTH 600 0
DWIDTH 6 0
BBX 6 8 0 0
BITMAP
001D80
004690
002E60
03BFB0
0530B2
06BEF0
5949C0
4ED790
ENDCHAR
STARTCHAR aringacute.a
ENCODING -1
SWIDTH 600 0
DWIDTH 6 0
BBX 6 9 0 0
BITMAP
000270
001D80
004690
002E60
03BFB0
0530B2
06BEF0
5935B0
4ED790
ENDCHAR
STARTCHAR uni01CE.a
ENCODING -1
SWIDTH 600 0
DWIDTH 6 0
BBX 6 8 0 0
BITMAP
007263
002D70
000000
03BFB0
0530B2
06BEF0
5949C0
4ED790
ENDCHAR
STARTCHAR uni1EA1.a
ENCODING -1
SWIDTH 600 0
DWIDTH 6 0
BBX 6 7 0 -2
BITMAP
03BFB0
0530B2
06BEF0
5949C0
4ED790
000000
02B000
ENDCHAR
STARTCHAR uni1EA3.a
ENCODING -1
SWIDTH 600 0
DWIDTH 6 0
BBX 6 8 0 0
BITMAP
000B50
000580
000920
03BFB0
0530B2
06BEF0
5949C0
4ED790
ENDCHAR
STARTCHAR uni1EA5.a
ENCODING -1
SWIDTH 600 0
DWIDTH 6 0
BBX 6 8 0 0
BITMAP
000017
004770
000000
03BFB0
0530B2
06BEF0
5949C0
4ED790
ENDCHAR
STARTCHAR uni1EA7.a
ENCODING -1
SWIDTH 600 0
DWIDTH 6 0
BBX 6 8 0 0
BITMAP
044000
004770
000000
03BFB0
0530B2
06BEF0
5949C0
4ED790
ENDCHAR
STARTCHAR uni1EA9.a
ENCODING -1
SWIDTH 600 0
DWIDTH 6 0
BBX 6 9 0 0
BITMAP
00004A
00000B
0047A7
000000
03BFB0
0530B2
06BEF0
5949C0
4ED790
ENDCHAR
STARTCHAR uni1EAB.a
ENCODING -1
SWIDTH 600 0
DWIDTH 6 0
BBX 6 9 0 0
BITMAP
002C44
0065D1
004870
000000
03BFB0
0530B2
06BEF0
5949C0
4ED790
ENDCHAR
STARTCHAR uni1EAD.a
ENCODING -1
SWIDTH 600 0
DWIDTH 6 0
BBX 6 10 0 -2
BITMAP
002C80
008180
000000
03BFB0
0530B2
06BEF0
5949C0
4ED790
000000
02B000
ENDCHAR
STARTCHAR uni1EAF.a
ENCODING -1
SWIDTH 600 0
DWIDTH 6 0
BBX 6 8 0 0
BITMAP
000270
009164
005E90
03BFB0
0530B2
06BEF0
5949C0
4ED790
ENDCHAR
STARTCHAR uni1EB1.a
ENCODING -1
SWIDTH 600 0
DWIDTH 6 0
BBX 6 8 0 0
BITMAP
000710
009164
005E90
03BFB0
0530B2
06BEF0
5949C0
4ED790
ENDCHAR
STARTCHAR uni1EB3.a
ENCODING -1
SWIDTH 600 0
DWIDTH 6 0
BBX 6 10 0 0
BITMAP
000870
0002A0
000740
008164
005E90
03BFB0
0530B2
06BEF0
5949C0
4ED790
ENDCHAR
STARTCHAR uni1EB5.a
ENCODING -1
SWIDTH 600 0
DWIDTH 6 0
BBX 6 9 0 0
BITMAP
002C44
0075D1
008181
004E80
03BFB0
0530B2
06BEF0
5949C0
4ED790
ENDCHAR
STARTCHAR uni1EB7.a
ENCODING -1
SWIDTH 600 0
DWIDTH 6 0
BBX 6 9 0 -2
BITMAP
009174
005E90
03BFB0
0530B2
06BEF0
5949C0
4ED790
000000
02B000
ENDCHAR
STARTCHAR aogonek.a
ENCODING -1
SWIDTH 600 0
DWIDTH 6 0
BBX 6 7 0 -2
BITMAP
03BFB0
0530B2
06BEF0
5949C0
4ED790
001520
003E50
ENDCHAR
STARTCHAR g.a
ENCODING -1
SWIDTH 600 0
DWIDTH 6 0
BBX 6 7 0 -2
BITMAP
04DFF9
0B23B0
0CFD40
191000
2DFD50
B11690
9EEB20
ENDCHAR
STARTCHAR uni01F5.a
ENCODING -1
SWIDTH 600 0
DWIDTH 6 0
BBX 6 10 0 -2
BITMAP
0001A0
000920
000000
04DFF9
0B23B0
0CFD40
191000
2DFD50
B11690
9EEB20
ENDCHAR
STARTCHAR gcircumflex.a
ENCODING -1
SWIDTH 600 0
DWIDTH 6 0
BBX 6 10 0 -2
BITMAP
002C80
008180
000000
04DFF9
0B23B0
0CFD40
191000
2DFD50
B11690
9EEB20
ENDCHAR
STARTCHAR gbreve.a
ENCODING -1
SWIDTH 600 0
DWIDTH 6 0
BBX 6 9 0 -2
BITMAP
009174
005E90
04DFF9
0B23B0
0CFD40
191000
2DFD50
B11690
9EEB20
ENDCHAR
STARTCHAR gdotaccent.a
ENCODING -1
SWIDTH 600 0
DWIDTH 6 0
BBX 6 9 0 -2
BITMAP
000B30
000000
04DFF9
0B23B0
0CFD40
191000
2DFD50
B11690
9EEB20
ENDCHAR
STARTCHAR uni0123.a
ENCODING -1
SWIDTH 600 0
DWIDTH 6 0
BBX 6 9 0 -2
BITMAP
000580
000B10
04DFF9
0B23B0
0CFD40
191000
2DFD50
B11690
9EEB20
ENDCHAR
STARTCHAR gcaron.a
ENCODING -1
SWIDTH 600 0
DWIDTH 6 0
BBX 6 10 0 -2
BITMAP
007263
002D70
000000
04DFF9
0B23B0
0CFD40
191000
2DFD50
B11690
9EEB20
ENDCHAR
STARTCHAR uni1E21.a
ENCODING -1
SWIDTH 600 0
DWIDTH 6 0
BBX 6 9 0 -2
BITMAP
009FE0
000000
04DFF9
0B23B0
0CFD40
191000
2DFD50
B11690
9EEB20
ENDCHAR
STARTCHAR uni00670303.a
ENCODING -1
SWIDTH 600 0
DWIDTH 6 0
BBX 6 10 0 -2
BITMAP
006936
0083E2
000000
04DFF9
0B23B0
0CFD40
191000
2DFD50
B11690
9EEB20
ENDCHAR
STARTCHAR iogonek.d
ENCODING -1
SWIDTH 600 0
DWIDTH 6 0
BBX 4 7 1 -2
BITMAP
DF90
0550
0820
0B11
09E5
0230
05E3
ENDCHAR
STARTCHAR uni0268.d
ENCODING -1
SWIDTH 600 0
DWIDTH 6 0
BBX 5 5 0 0
BITMAP
0DF900
005600
2EFFC0
00B110
009E80
ENDCHAR
STARTCHAR uni029D.d
ENCODING -1
SWIDTH 600 0
DWIDTH 6 0
BBX 5 8 0 -3
BITMAP
09FF50
000920
000B00
002A00
8EC600
B2D500
AE7A00
000800
ENDCHAR
STARTCHAR zero.a
ENCODING -1
SWIDTH 600 0
DWIDTH 6 0
BBX 6 6 0 0
BITMAP
01BEA0
0A61A5
376156
550673
4A06A0
0AEC20
ENDCHAR
STARTCHAR one.a
ENCODING -1
SWIDTH 600 0
DWIDTH 6 0
BBX 5 7 0 0
BITMAP
000820
02AD10
011C00
002900
005600
008300
8FFFC0
ENDCHAR
STARTCHAR zero.onum
ENCODING -1
SWIDTH 600 0
DWIDTH 6 0
BBX 6 6 0 0
BITMAP
02CE90
0C41B3
470065
657693
5915C0
0AEC20
ENDCHAR
STARTCHAR one.onum
ENCODING -1
SWIDTH 600 0
DWIDTH 6 0
BBX 5 6 0 0
BITMAP
019E10
000C00
002A00
005600
008300
8FFFC0
ENDCHAR
STARTCHAR two.onum
ENCODING -1
SWIDTH 600 0
DWIDTH 6 0
BBX 5 6 0 0
BITMAP
03DE60
0823B0
000460
003800
076000
9FFFB0
ENDCHAR
STARTCHAR three.onum
ENCODING -1
SWIDTH 600 0
DWIDTH 6 0
BBX 5 7 0 -1
BITMAP
03CE80
0621C0
016960
02BB20
000390
831780
2BEB10
ENDCHAR
STARTCHAR four.onum
ENCODING -1
SWIDTH 600 0
DWIDTH 6 0
BBX 6 7 0 -1
BITMAP
0004D0
0038A0
027470
260740
CFFFF1
000B00
000B00
ENDCHAR
STARTCHAR five.onum
ENCODING -1
SWIDTH 600 0
DWIDTH 6 0
BBX 6 7 0 -1
BITMAP
05FFF4
083000
0B0000
0CDE50
0003C0
7305A0
1BEB20
ENDCHAR
STARTCHAR six.onum
ENCODING -1
SWIDTH 600 0
DWIDTH 6 0
BBX 6 6 0 0
BITMAP
019EC1
0A6133
2BCE80
5C31C0
4913B0
09EC30
ENDCHAR
STARTCHAR seven.onum
ENCODING -1
SWIDTH 600 0
DWIDTH 6 0
BBX 5 7 1 -1
BITMAP
EFFFA0
000A20
009300
048000
0B1000
2A0000
660000
ENDCHAR
STARTCHAR eight.onum
ENCODING -1
SWIDTH 600 0
DWIDTH 6 0
BBX 6 6 0 0
BITMAP
02CFB0
046184
08B5C2
4B2660
5802B0
0AFE70
ENDCHAR
STARTCHAR nine.onum
ENCODING -1
SWIDTH 600 0
DWIDTH 6 0
BBX 6 7 0 -1
BITMAP
04DE70
1B21B1
3A12B3
0AFCD2
0001C0
521A70
3DE800
ENDCHAR
STARTCHAR zero.b
ENCODING -1
SWIDTH 600 0
DWIDTH 6 0
BBX 6 6 0 0
BITMAP
02CE90
0B61B3
476065
651683
5A16B0
0AEC20
ENDCHAR
STARTCHAR one.b
ENCODING -1
SWIDTH 600 0
DWIDTH 6 0
BBX 5 7 0 0
BITMAP
000100
004E10
048C00
002900
005600
008300
8FFFC0
ENDCHAR
STARTCHAR zero.cap
ENCODING -1
SWIDTH 600 0
DWIDTH 6 0
BBX 6 7 0 0
BITMAP
01AE90
0A61A4
2A0056
565765
6500A2
3A16A0
09EB10
ENDCHAR
STARTCHAR one.cap
ENCODING -1
SWIDTH 600 0
DWIDTH 6 0
BBX 5 13 0 0
BITMAP
008C30
000A10
000900
000700
000600
001300
002FC0
003FC0
005FC0
006FB0
008FB0
009FB0
8ECB70
ENDCHAR
STARTCHAR two.cap
ENCODING -1
SWIDTH 600 0
DWIDTH 6 0
BBX 5 7 0 0
BITMAP
01BE80
0641D0
0000A0
000640
007500
194000
8FFFE0
ENDCHAR
STARTCHAR three.cap
ENCODING -1
SWIDTH 600 0
DWIDTH 6 0
BBX 6 7 0 0
BITMAP
01BEA0
0431B3
0003C1
00DD30
0014A0
6514B0
1AEC30
ENDCHAR
STARTCHAR four.cap
ENCODING -1
SWIDTH 600 0
DWIDTH 6 0
BBX 6 7 0 0
BITMAP
0003E2
003AB0
03A1A0
290380
BFFFF5
000830
000A00
ENDCHAR
STARTCHAR five.cap
ENCODING -1
SWIDTH 600 0
DWIDTH 6 0
BBX 6 7 0 0
BITMAP
03FFF5
065000
092000
0BCE70
0002C0
6414B0
1BEB20
ENDCHAR
STARTCHAR six.cap
ENCODING -1
SWIDTH 600 0
DWIDTH 6 0
BBX 6 7 0 0
BITMAP
008ED2
089134
1C0000
4BCE90
5C31C0
3913B0
08EC30
ENDCHAR
STARTCHAR seven.cap
ENCODING -1
SWIDTH 600 0
DWIDTH 6 0
BBX 5 7 1 0
BITMAP
BFFFB0
000930
008400
039000
0A2000
1B0000
580000
ENDCHAR
STARTCHAR eight.cap
ENCODING -1
SWIDTH 600 0
DWIDTH 6 0
BBX 6 7 0 0
BITMAP
01BEB0
068184
0292A3
08FF80
4A2680
5802C0
0AED50
ENDCHAR
STARTCHAR nine.cap
ENCODING -1
SWIDTH 600 0
DWIDTH 6 0
BBX 6 7 0 0
BITMAP
03CE80
0B3193
0C13C5
08ECB4
0000C1
431990
2CE900
ENDCHAR
STARTCHAR zero.c
ENCODING -1
SWIDTH 600 0
DWIDTH 6 0
BBX 6 7 0 0
BITMAP
01AE90
0A61A4
297056
563455
660792
3B15A0
09EB10
ENDCHAR
STARTCHAR one.c
ENCODING -1
SWIDTH 600 0
DWIDTH 6 0
BBX 5 7 0 0
BITMAP
000620
019E10
012B00
002A00
005700
008300
8FFFC0
ENDCHAR
STARTCHAR at.case
ENCODING -1
SWIDTH 600 0
DWIDTH 6 0
BBX 6 7 0 0
BITMAP
008EE5
0A7219
3707CB
817738
81A1A6
589FB4
09EC20
ENDCHAR
STARTCHAR asterisk.a
ENCODING -1
SWIDTH 600 0
DWIDTH 6 0
BBX 5 4 1 3
BITMAP
108010
3CE910
07E100
2A8500
ENDCHAR
STARTCHAR hyphen.a
ENCODING -1
SWIDTH 600 0
DWIDTH 6 0
BBX 4 1 1 2
BITMAP
BFF8
ENDCHAR
STARTCHAR uni00AD.a
ENCODING -1
SWIDTH 600 0
DWIDTH 6 0
BBX 4 1 1 2
BITMAP
BFF8
ENDCHAR
STARTCHAR uni2010.a
ENCODING -1
SWIDTH 600 0
DWIDTH 6 0
BBX 4 1 1 2
BITMAP
BFF8
ENDCHAR
STARTCHAR dollar.a
ENCODING -1
SWIDTH 600 0
DWIDTH 6 0
BBX 6 8 0 -1
BITMAP
000080
04DF70
0668B1
005A00
019510
2B92B0
05FE60
080000
ENDCHAR
STARTCHAR period.sups
ENCODING -1
SWIDTH 600 0
DWIDTH 6 0
BBX 2 1 2 4
BITMAP
37
ENDCHAR
STARTCHAR comma.sups
ENCODING -1
SWIDTH 600 0
DWIDTH 6 0
BBX 2 3 2 2
BITMAP
28
28
72
ENDCHAR
STARTCHAR period.subs
ENCODING -1
SWIDTH 600 0
DWIDTH 6 0
BBX 2 1 1 -2
BITMAP
19
ENDCHAR
STARTCHAR comma.subs
ENCODING -1
SWIDTH 600 0
DWIDTH 6 0
BBX 2 3 1 -4
BITMAP
0A
19
54
ENDCHAR
STARTCHAR zero.dnom
ENCODING -1
SWIDTH 600 0
DWIDTH 6 0
BBX 4 3 1 0
BITMAP
3DD1
92A1
7E80
ENDCHAR
STARTCHAR one.dnom
ENCODING -1
SWIDTH 600 0
DWIDTH 6 0
BBX 2 3 2 0
BITMAP
B6
63
90
ENDCHAR
STARTCHAR two.dnom
ENCODING -1
SWIDTH 600 0
DWIDTH 6 0
BBX 3 3 1 0
BITMAP
1CA0
2430
AFB0
ENDCHAR
STARTCHAR three.dnom
ENCODING -1
SWIDTH 600 0
DWIDTH 6 0
BBX 3 3 1 0
BITMAP
0BB0
3C80
4E80
ENDCHAR
STARTCHAR four.dnom
ENCODING -1
SWIDTH 600 0
DWIDTH 6 0
BBX 3 3 1 0
BITMAP
0610
3460
BFE0
ENDCHAR
STARTCHAR five.dnom
ENCODING -1
SWIDTH 600 0
DWIDTH 6 0
BBX 3 3 1 0
BITMAP
0FF0
6FA0
6F80
ENDCHAR
STARTCHAR six.dnom
ENCODING -1
SWIDTH 600 0
DWIDTH 6 0
BBX 3 3 1 0
BITMAP
2CD0
7EC0
5E90
ENDCHAR
STARTCHAR seven.dnom
ENCODING -1
SWIDTH 600 0
DWIDTH 6 0
BBX 4 3 1 0
BITMAP
3FF3
0360
0900
ENDCHAR
STARTCHAR eight.dnom
ENCODING -1
SWIDTH 600 0
DWIDTH 6 0
BBX 3 3 1 0
BITMAP
2EC0
3F90
7F90
ENDCHAR
STARTCHAR nine.dnom
ENCODING -1
SWIDTH 600 0
DWIDTH 6 0
BBX 3 3 1 0
BITMAP
4EA0
6ED0
7E60
ENDCHAR
STARTCHAR parenleft.dnom
ENCODING -1
SWIDTH 600 0
DWIDTH 6 0
BBX 2 5 2 -1
BITMAP
18
82
90
90
81
ENDCHAR
STARTCHAR parenright.dnom
ENCODING -1
SWIDTH 600 0
DWIDTH 6 0
BBX 3 5 1 -1
BITMAP
0710
0450
0350
0810
3600
ENDCHAR
STARTCHAR period.dnom
ENCODING -1
SWIDTH 600 0
DWIDTH 6 0
BBX 1 1 2 0
BITMAP
A0
ENDCHAR
STARTCHAR comma.dnom
ENCODING -1
SWIDTH 600 0
DWIDTH 6 0
BBX 2 3 1 -2
BITMAP
0B
1A
46
ENDCHAR
STARTCHAR zero.numr
ENCODING -1
SWIDTH 600 0
DWIDTH 6 0
BBX 4 3 1 3
BITMAP
08E7
1A29
1DD3
ENDCHAR
STARTCHAR one.numr
ENCODING -1
SWIDTH 600 0
DWIDTH 6 0
BBX 2 3 2 3
BITMAP
4D
08
08
ENDCHAR
STARTCHAR two.numr
ENCODING -1
SWIDTH 600 0
DWIDTH 6 0
BBX 4 3 1 3
BITMAP
05E4
0431
2FF5
ENDCHAR
STARTCHAR three.numr
ENCODING -1
SWIDTH 600 0
DWIDTH 6 0
BBX 3 3 2 3
BITMAP
3E50
6F20
9E30
ENDCHAR
STARTCHAR four.numr
ENCODING -1
SWIDTH 600 0
DWIDTH 6 0
BBX 4 3 1 3
BITMAP
0070
0752
2FF8
ENDCHAR
STARTCHAR five.numr
ENCODING -1
SWIDTH 600 0
DWIDTH 6 0
BBX 3 3 2 3
BITMAP
6F90
CE40
CE30
ENDCHAR
STARTCHAR six.numr
ENCODING -1
SWIDTH 600 0
DWIDTH 6 0
BBX 3 3 2 3
BITMAP
6E70
DE60
BE40
ENDCHAR
STARTCHAR seven.numr
ENCODING -1
SWIDTH 600 0
DWIDTH 6 0
BBX 3 3 2 3
BITMAP
9FC0
0620
3600
ENDCHAR
STARTCHAR eight.numr
ENCODING -1
SWIDTH 600 0
DWIDTH 6 0
BBX 3 3 2 3
BITMAP
7E60
9F30
DE30
ENDCHAR
STARTCHAR nine.numr
ENCODING -1
SWIDTH 600 0
DWIDTH 6 0
BBX 4 3 1 3
BITMAP
09E5
0CE7
1DC2
ENDCHAR
STARTCHAR parenleft.numr
ENCODING -1
SWIDTH 600 0
DWIDTH 6 0
BBX 3 5 2 2
BITMAP
0540
1900
4500
4500
1800
ENDCHAR
STARTCHAR parenright.numr
ENCODING -1
SWIDTH 600 0
DWIDTH 6 0
BBX 2 5 2 2
BITMAP
08
09
09
19
82
ENDCHAR
STARTCHAR period.numr
ENCODING -1
SWIDTH 600 0
DWIDTH 6 0
BBX 2 1 2 3
BITMAP
46
ENDCHAR
STARTCHAR comma.numr
ENCODING -1
SWIDTH 600 0
DWIDTH 6 0
BBX 2 3 2 1
BITMAP
38
38
91
ENDCHAR
STARTCHAR ordfeminine.a
ENCODING -1
SWIDTH 600 0
DWIDTH 6 0
BBX 3 3 2 4
BITMAP
3CB0
1690
EC80
ENDCHAR
STARTCHAR q.sups
ENCODING -1
SWIDTH 600 0
DWIDTH 6 0
BBX 4 4 1 3
BITMAP
08EA
2929
1DB8
0044
ENDCHAR
STARTCHAR egrave.sups
ENCODING -1
SWIDTH 600 0
DWIDTH 6 0
BBX 3 5 2 4
BITMAP
0720
0010
6EA0
FFF0
BE40
ENDCHAR
STARTCHAR eacute.sups
ENCODING -1
SWIDTH 600 0
DWIDTH 6 0
BBX 3 5 2 4
BITMAP
0270
0100
6EA0
FFF0
BE40
ENDCHAR
STARTCHAR a.supa
ENCODING -1
SWIDTH 600 0
DWIDTH 6 0
BBX 3 3 2 4
BITMAP
3CB0
1690
EC80
ENDCHAR
STARTCHAR g.supa
ENCODING -1
SWIDTH 600 0
DWIDTH 6 0
BBX 5 5 1 2
BITMAP
08FF50
0BF800
0EFA00
632A00
4ED300
ENDCHAR
STARTCHAR colon.sups
ENCODING -1
SWIDTH 600 0
DWIDTH 6 0
BBX 2 3 2 4
BITMAP
18
00
73
ENDCHAR
STARTCHAR hyphen.sups
ENCODING -1
SWIDTH 600 0
DWIDTH 6 0
BBX 3 1 2 5
BITMAP
4F40
ENDCHAR
STARTCHAR endash.sups
ENCODING -1
SWIDTH 600 0
DWIDTH 6 0
BBX 3 1 2 5
BITMAP
CFC0
ENDCHAR
STARTCHAR emdash.sups
ENCODING -1
SWIDTH 600 0
DWIDTH 6 0
BBX 5 1 1 5
BITMAP
DFFFD0
ENDCHAR
STARTCHAR slash.frac
ENCODING -1
SWIDTH 600 0
DWIDTH 6 0
BBX 7 6 -1 0
BITMAP
00000080
00001810
00001000
00100000
02700000
18000000
ENDCHAR
STARTCHAR uni0300.cap
ENCODING -1
SWIDTH 600 0
DWIDTH 6 0
BBX 3 2 2 7
BITMAP
2900
0730
ENDCHAR
STARTCHAR uni0301.cap
ENCODING -1
SWIDTH 600 0
DWIDTH 6 0
BBX 3 2 3 7
BITMAP
0920
7500
ENDCHAR
STARTCHAR uni0302.cap
ENCODING -1
SWIDTH 600 0
DWIDTH 6 0
BBX 4 1 2 7
BITMAP
3781
ENDCHAR
STARTCHAR uni0303.cap
ENCODING -1
SWIDTH 600 0
DWIDTH 6 0
BBX 4 3 2 7
BITMAP
0100
7E39
83E4
ENDCHAR
STARTCHAR uni0304.cap
ENCODING -1
SWIDTH 600 0
DWIDTH 6 0
BBX 4 1 2 7
BITMAP
6FF3
ENDCHAR
STARTCHAR uni0305.cap
ENCODING -1
SWIDTH 600 0
DWIDTH 6 0
BBX 4 1 2 7
BITMAP
6FF3
ENDCHAR
STARTCHAR uni0306.c
ENCODING -1
SWIDTH 600 0
DWIDTH 6 0
BBX 3 2 2 5
BITMAP
82A0
4E60
ENDCHAR
STARTCHAR uni0306.cap
ENCODING -1
SWIDTH 600 0
DWIDTH 6 0
BBX 4 2 2 7
BITMAP
6355
2EB0
ENDCHAR
STARTCHAR uni0306.ccap
ENCODING -1
SWIDTH 600 0
DWIDTH 6 0
BBX 4 2 2 7
BITMAP
6574
2DA0
ENDCHAR
STARTCHAR uni0307.cap
ENCODING -1
SWIDTH 600 0
DWIDTH 6 0
BBX 2 1 3 7
BITMAP
74
ENDCHAR
STARTCHAR uni0308.cap
ENCODING -1
SWIDTH 600 0
DWIDTH 6 0
BBX 4 1 2 7
BITMAP
5573
ENDCHAR
STARTCHAR uni0309.cap
ENCODING -1
SWIDTH 600 0
DWIDTH 6 0
BBX 2 3 3 7
BITMAP
A5
48
92
ENDCHAR
STARTCHAR uni0310.cap
ENCODING -1
SWIDTH 600 0
DWIDTH 6 0
BBX 4 3 2 7
BITMAP
0470
7356
2EB0
ENDCHAR
STARTCHAR uni030A.cap
ENCODING -1
SWIDTH 600 0
DWIDTH 6 0
BBX 2 3 3 7
BITMAP
9A
99
C8
ENDCHAR
STARTCHAR uni030B.cap
ENCODING -1
SWIDTH 600 0
DWIDTH 6 0
BBX 4 2 2 7
BITMAP
0549
1854
ENDCHAR
STARTCHAR uni030C.cap
ENCODING -1
SWIDTH 600 0
DWIDTH 6 0
BBX 4 1 2 7
BITMAP
2873
ENDCHAR
STARTCHAR uni030C.a
ENCODING -1
SWIDTH 600 0
DWIDTH 6 0
BBX 2 3 3 5
BITMAP
83
90
80
ENDCHAR
STARTCHAR uni030F.cap
ENCODING -1
SWIDTH 600 0
DWIDTH 6 0
BBX 3 2 2 7
BITMAP
9440
7180
ENDCHAR
STARTCHAR uni0311.cap
ENCODING -1
SWIDTH 600 0
DWIDTH 6 0
BBX 4 2 2 7
BITMAP
1CC1
8364
ENDCHAR
STARTCHAR uni0326.a
ENCODING -1
SWIDTH 600 0
DWIDTH 6 0
BBX 2 3 3 4
BITMAP
57
B1
20
ENDCHAR
STARTCHAR uni0327.cap
ENCODING -1
SWIDTH 600 0
DWIDTH 6 0
BBX 2 4 1 -4
BITMAP
07
5A
1B
D4
ENDCHAR
STARTCHAR uni0328.cap
ENCODING -1
SWIDTH 600 0
DWIDTH 6 0
BBX 2 2 1 -2
BITMAP
43
AC
ENDCHAR
STARTCHAR uni0342.cap
ENCODING -1
SWIDTH 600 0
DWIDTH 6 0
BBX 4 3 2 7
BITMAP
0100
7E39
83E4
ENDCHAR
STARTCHAR uni03080301
ENCODING -1
SWIDTH 600 0
DWIDTH 6 0
BBX 3 2 2 6
BITMAP
0260
8190
ENDCHAR
STARTCHAR uni03080301.cap
ENCODING -1
SWIDTH 600 0
DWIDTH 6 0
BBX 4 2 2 7
BITMAP
0171
5471
ENDCHAR
STARTCHAR uni03080300
ENCODING -1
SWIDTH 600 0
DWIDTH 6 0
BBX 3 2 2 6
BITMAP
0700
8190
ENDCHAR
STARTCHAR uni03080300.cap
ENCODING -1
SWIDTH 600 0
DWIDTH 6 0
BBX 4 2 2 7
BITMAP
0620
5471
ENDCHAR
STARTCHAR uni03080303
ENCODING -1
SWIDTH 600 0
DWIDTH 6 0
BBX 4 4 2 6
BITMAP
4D35
74D1
0000
8190
ENDCHAR
STARTCHAR uni03080304
ENCODING -1
SWIDTH 600 0
DWIDTH 6 0
BBX 4 3 2 6
BITMAP
5FF3
0000
8190
ENDCHAR
STARTCHAR uni03080304.cap
ENCODING -1
SWIDTH 600 0
DWIDTH 6 0
BBX 4 3 2 7
BITMAP
3FF6
0000
5471
ENDCHAR
STARTCHAR uni0308030C
ENCODING -1
SWIDTH 600 0
DWIDTH 6 0
BBX 4 2 2 6
BITMAP
1871
8190
ENDCHAR
STARTCHAR uni0308030C.cap
ENCODING -1
SWIDTH 600 0
DWIDTH 6 0
BBX 4 2 2 7
BITMAP
0872
5471
ENDCHAR
STARTCHAR uni03020301
ENCODING -1
SWIDTH 600 0
DWIDTH 6 0
BBX 4 2 2 6
BITMAP
0017
4770
ENDCHAR
STARTCHAR uni03020301.cap
ENCODING -1
SWIDTH 600 0
DWIDTH 6 0
BBX 5 2 2 7
BITMAP
000710
278000
ENDCHAR
STARTCHAR uni03020300
ENCODING -1
SWIDTH 600 0
DWIDTH 6 0
BBX 4 2 1 6
BITMAP
4400
0477
ENDCHAR
STARTCHAR uni03020300.cap
ENCODING -1
SWIDTH 600 0
DWIDTH 6 0
BBX 3 2 2 7
BITMAP
7000
2780
ENDCHAR
STARTCHAR uni03020309
ENCODING -1
SWIDTH 600 0
DWIDTH 6 0
BBX 4 3 2 6
BITMAP
0049
000A
47A6
ENDCHAR
STARTCHAR uni03020309.cap
ENCODING -1
SWIDTH 600 0
DWIDTH 6 0
BBX 5 3 2 7
BITMAP
001C00
000A10
278A00
ENDCHAR
STARTCHAR uni03020303
ENCODING -1
SWIDTH 600 0
DWIDTH 6 0
BBX 4 3 2 6
BITMAP
3B43
65D0
4870
ENDCHAR
STARTCHAR uni03020303.cap
ENCODING -1
SWIDTH 600 0
DWIDTH 6 0
BBX 4 3 2 7
BITMAP
1D47
44D4
2880
ENDCHAR
STARTCHAR uni03060301
ENCODING -1
SWIDTH 600 0
DWIDTH 6 0
BBX 4 3 2 5
BITMAP
0360
9173
6E90
ENDCHAR
STARTCHAR uni03060301.cap
ENCODING -1
SWIDTH 600 0
DWIDTH 6 0
BBX 4 3 2 7
BITMAP
0271
6355
2EB0
ENDCHAR
STARTCHAR uni03060300
ENCODING -1
SWIDTH 600 0
DWIDTH 6 0
BBX 4 3 2 5
BITMAP
0810
9173
6E90
ENDCHAR
STARTCHAR uni03060300.cap
ENCODING -1
SWIDTH 600 0
DWIDTH 6 0
BBX 4 3 2 7
BITMAP
0620
6355
2EB0
ENDCHAR
STARTCHAR uni03060309
ENCODING -1
SWIDTH 600 0
DWIDTH 6 0
BBX 4 5 2 5
BITMAP
0860
0290
0740
9173
6E90
ENDCHAR
STARTCHAR uni03060309.cap
ENCODING -1
SWIDTH 600 0
DWIDTH 6 0
BBX 4 5 2 7
BITMAP
0580
01A0
0450
6355
2EB0
ENDCHAR
STARTCHAR uni03060303
ENCODING -1
SWIDTH 600 0
DWIDTH 6 0
BBX 4 4 2 5
BITMAP
3C44
75D1
9191
5E70
ENDCHAR
STARTCHAR uni03060303.cap
ENCODING -1
SWIDTH 600 0
DWIDTH 6 0
BBX 4 3 2 7
BITMAP
1D47
B8F8
2DA0
ENDCHAR
STARTCHAR uni03020306
ENCODING -1
SWIDTH 600 0
DWIDTH 6 0
BBX 4 4 2 5
BITMAP
2341
0530
2850
2020
ENDCHAR
STARTCHAR uni03040301
ENCODING -1
SWIDTH 600 0
DWIDTH 6 0
BBX 3 3 2 6
BITMAP
0260
0000
AFE0
ENDCHAR
STARTCHAR uni03040301.cap
ENCODING -1
SWIDTH 600 0
DWIDTH 6 0
BBX 4 3 2 7
BITMAP
0171
0000
6FF3
ENDCHAR
STARTCHAR space.frac
ENCODING -1
SWIDTH 600 0
DWIDTH 6 0
BBX 1 1 0 0
BITMAP
00
ENDCHAR
STARTCHAR nbspace.frac
ENCODING -1
SWIDTH 600 0
DWIDTH 6 0
BBX 1 1 0 0
BITMAP
00
ENDCHAR
STARTCHAR u1F3B5_uniFE0F
ENCODING -1
SWIDTH 600 0
DWIDTH 6 0
BBX 6 8 0 0
BITMAP
000200
001E40
001AC1
001853
001831
001800
0BE700
2EC200
ENDCHAR
STARTCHAR u1F3B6_uniFE0F
ENCODING -1
SWIDTH 600 0
DWIDTH 6 0
BBX 6 8 0 0
BITMAP
002478
00DFFE
00CC9B
008008
008008
008008
8EA6EB
BE58E4
ENDCHAR
STARTCHAR uni2611_uniFE0F
ENCODING -1
SWIDTH 600 0
DWIDTH 6 0
BBX 8 9 -1 0
BITMAP
00000001
0000003A
2EFFFFF4
430006C4
43302974
43738274
43099074
43032074
4FFFFFE2
ENDCHAR
STARTCHAR uni2713_uniFE0F
ENCODING -1
SWIDTH 600 0
DWIDTH 6 0
BBX 6 9 0 -1
BITMAP
000002
00003A
0001A0
000820
502800
828100
199000
0B6000
010000
ENDCHAR
STARTCHAR uni2665_uniFE0F
ENCODING -1
SWIDTH 600 0
DWIDTH 6 0
BBX 6 7 0 0
BITMAP
6E88E6
DFFFFD
DFFFFD
9FFFF9
2EFFE2
05FF50
007700
ENDCHAR
STARTCHAR uni2663_uniFE0F
ENCODING -1
SWIDTH 600 0
DWIDTH 6 0
BBX 6 7 0 0
BITMAP
03DD20
06FF60
27EE72
CFFFFC
8ECCF8
02CC20
0EFFE0
ENDCHAR
STARTCHAR uni2666_uniFE0F
ENCODING -1
SWIDTH 600 0
DWIDTH 6 0
BBX 6 7 0 0
BITMAP
007700
04FF40
3EFFE3
BFFFFB
3EFFE3
04FF40
007700
ENDCHAR
STARTCHAR uni2660_uniFE0F
ENCODING -1
SWIDTH 600 0
DWIDTH 6 0
BBX 6 7 0 0
BITMAP
008800
09FF90
7FFFF7
DFFFFD
9EBBE9
02CC20
0EFFE0
ENDCHAR
STARTCHAR uni263A_uniFE0F
ENCODING -1
SWIDTH 600 0
DWIDTH 6 0
BBX 6 6 0 0
BITMAP
047740
084490
C9449C
F4664F
042240
047740
ENDCHAR
STARTCHAR uni263B_uniFE0F
ENCODING -1
SWIDTH 600 0
DWIDTH 6 0
BBX 6 5 0 1
BITMAP
08EE80
7DAAC6
AC77CA
7BDDB7
08EE80
ENDCHAR
STARTCHAR uni2764_uniFE0F
ENCODING -1
SWIDTH 600 0
DWIDTH 6 0
BBX 8 7 -1 0
BITMAP
2CE77EC2
9FFEEFF9
AFFFFFFA
7FFFFFF6
0BFFFFB0
007FF700
00066000
ENDCHAR
STARTCHAR uni2615_uniFE0F
ENCODING -1
SWIDTH 600 0
DWIDTH 6 0
BBX 8 7 -1 0
BITMAP
06DEC200
2A202700
47DF9520
48DFD823
17000166
0A414DC1
02BEC300
ENDCHAR
STARTCHAR u1F4A9_uniFE0F
ENCODING -1
SWIDTH 600 0
DWIDTH 6 0
BBX 6 7 0 0
BITMAP
016910
08FF80
3EFFE3
7B99B7
7FFFF7
EC22CE
8DFFD8
ENDCHAR
STARTCHAR u1F916_uniFE0F
ENCODING -1
SWIDTH 600 0
DWIDTH 6 0
BBX 8 6 -1 0
BITMAP
01AEEA10
09BFFB90
3A8999A3
3B9EE9B3
08655780
009EE800
ENDCHAR
STARTCHAR u1F512_uniFE0F
ENCODING -1
SWIDTH 600 0
DWIDTH 6 0
BBX 6 10 0 -1
BITMAP
03DD30
094490
0A00A0
0A00A0
7FFFF7
8F55F8
8F66F8
8F99F8
8F88F8
7FFFF7
ENDCHAR
ENDFONT
